<svg width="32" height="32" viewBox="0 0 25 36" fill="none" xmlns="http://www.w3.org/2000/svg">
  <path d="M2.30426 29.7141C2.43923 29.1076 2.77023 28.5662 3.24309 28.1786L18.4092 15.7459C18.8821 15.3582 19.4688 15.1473 20.0733 15.1476L23.6655 15.1493C24.5226 15.1497 25.1571 15.9696 24.9657 16.8295L24.1637 20.4335C24.0287 21.04 23.6977 21.5814 23.2249 21.969L8.05876 34.4017C7.58591 34.7893 6.99921 35.0003 6.3947 35L2.80244 34.9983C1.94538 34.9979 1.31087 34.1779 1.50222 33.3181L2.30426 29.7141Z" fill="#2366EC"/>
  <path d="M0.836295 15.5665C0.971263 14.96 1.30226 14.4186 1.77512 14.031L16.9412 1.59828C17.4141 1.21065 18.0008 0.999714 18.6053 1L22.1976 1.0017C23.0546 1.00211 23.6891 1.82206 23.4978 2.68192L22.6957 6.28594C22.5608 6.89243 22.2298 7.43379 21.7569 7.82142L6.59079 20.2542C6.11794 20.6418 5.53124 20.8527 4.92673 20.8524L1.33447 20.8507C0.477412 20.8503 -0.157098 20.0304 0.034256 19.1705L0.836295 15.5665Z" fill="#2366EC"/>
</svg>
