<svg width="215" height="44" viewBox="0 0 215 44" fill="none" xmlns="http://www.w3.org/2000/svg">
<path d="M203.433 34.2357C201.08 34.2357 198.989 33.7092 197.162 32.6563C195.335 31.6034 193.895 30.1633 192.842 28.3362C191.82 26.509 191.309 24.4187 191.309 22.0651C191.309 19.6495 191.82 17.5282 192.842 15.701C193.895 13.8429 195.335 12.3874 197.162 11.3345C198.989 10.2506 201.095 9.70863 203.48 9.70863C206.484 9.70863 209.008 10.5138 211.051 12.1242C213.126 13.7036 214.443 15.8868 215 18.674H208.079C207.831 17.6211 207.273 16.8004 206.406 16.212C205.57 15.5926 204.564 15.283 203.387 15.283C202.334 15.283 201.389 15.5617 200.553 16.1191C199.748 16.6456 199.113 17.4043 198.649 18.3953C198.184 19.3863 197.952 20.5786 197.952 21.9722C197.952 23.0251 198.076 23.9696 198.323 24.8058C198.602 25.611 198.974 26.3077 199.438 26.8961C199.934 27.4845 200.522 27.9336 201.204 28.2433C201.885 28.553 202.613 28.7078 203.387 28.7078C204.192 28.7078 204.904 28.5839 205.524 28.3362C206.143 28.0575 206.685 27.6704 207.149 27.1749C207.614 26.6484 207.924 26.029 208.079 25.3168H215C214.443 28.042 213.126 30.2098 211.051 31.8201C208.977 33.4305 206.437 34.2357 203.433 34.2357Z" fill="white"/>
<path d="M164.495 33.6782V15.701H161.336V10.2661H164.495V8.31504C164.495 6.33306 164.836 4.75367 165.517 3.57686C166.198 2.40006 167.143 1.54842 168.351 1.02196C169.589 0.495496 171.045 0.232264 172.717 0.232264H175.318V5.76014H173.693C172.733 5.76014 172.036 5.96144 171.602 6.36403C171.2 6.73565 170.998 7.3705 170.998 8.26859V10.2661H185.77V33.6782H179.267V15.701H170.998V33.6782H164.495ZM182.565 7.20018C181.388 7.20018 180.428 6.85952 179.685 6.17822C178.942 5.49691 178.57 4.62979 178.57 3.57686C178.57 2.5549 178.942 1.70327 179.685 1.02196C180.428 0.340654 181.388 0 182.565 0C183.742 0 184.702 0.340654 185.445 1.02196C186.188 1.70327 186.56 2.5549 186.56 3.57686C186.56 4.62979 186.188 5.49691 185.445 6.17822C184.702 6.85952 183.742 7.20018 182.565 7.20018Z" fill="white"/>
<path d="M150.729 33.6782V10.2661H157.232V33.6782H150.729ZM153.981 7.24663C152.804 7.24663 151.844 6.90598 151.101 6.22467C150.357 5.51239 149.986 4.64528 149.986 3.62332C149.986 2.57038 150.357 1.70327 151.101 1.02196C151.844 0.340654 152.804 0 153.981 0C155.158 0 156.118 0.340654 156.861 1.02196C157.604 1.70327 157.976 2.57038 157.976 3.62332C157.976 4.64528 157.604 5.51239 156.861 6.22467C156.118 6.90598 155.158 7.24663 153.981 7.24663Z" fill="white"/>
<path d="M133.618 34.2357C131.264 34.2357 129.174 33.7092 127.347 32.6563C125.52 31.6034 124.08 30.1633 123.027 28.3362C122.005 26.509 121.494 24.4187 121.494 22.0651C121.494 19.6495 122.005 17.5282 123.027 15.701C124.08 13.8429 125.52 12.3874 127.347 11.3345C129.174 10.2506 131.28 9.70863 133.665 9.70863C136.668 9.70863 139.192 10.5138 141.236 12.1242C143.311 13.7036 144.627 15.8868 145.185 18.674H138.263C138.016 17.6211 137.458 16.8004 136.591 16.212C135.755 15.5926 134.748 15.283 133.572 15.283C132.519 15.283 131.574 15.5617 130.738 16.1191C129.933 16.6456 129.298 17.4043 128.833 18.3953C128.369 19.3863 128.137 20.5786 128.137 21.9722C128.137 23.0251 128.261 23.9696 128.508 24.8058C128.787 25.611 129.159 26.3077 129.623 26.8961C130.119 27.4845 130.707 27.9336 131.388 28.2433C132.07 28.553 132.797 28.7078 133.572 28.7078C134.377 28.7078 135.089 28.5839 135.708 28.3362C136.328 28.0575 136.87 27.6704 137.334 27.1749C137.799 26.6484 138.108 26.029 138.263 25.3168H145.185C144.627 28.042 143.311 30.2098 141.236 31.8201C139.161 33.4305 136.622 34.2357 133.618 34.2357Z" fill="white"/>
<path d="M105.399 34.2357C103.046 34.2357 100.956 33.7402 99.1284 32.7492C97.3322 31.7272 95.9231 30.3182 94.9012 28.522C93.8792 26.6948 93.3682 24.589 93.3682 22.2044C93.3682 19.7889 93.8637 17.652 94.8547 15.7939C95.8767 13.9049 97.2857 12.4184 99.0819 11.3345C100.909 10.2506 103.03 9.70863 105.446 9.70863C107.769 9.70863 109.797 10.2196 111.531 11.2416C113.296 12.2635 114.659 13.6416 115.619 15.3759C116.61 17.1101 117.106 19.1076 117.106 21.3683C117.106 21.678 117.09 22.0186 117.059 22.3902C117.059 22.7618 117.028 23.1644 116.966 23.598H98.0135V19.6495H110.509C110.416 18.225 109.89 17.0946 108.93 16.2585C108.001 15.3913 106.84 14.9578 105.446 14.9578C104.393 14.9578 103.433 15.2055 102.566 15.701C101.699 16.1965 101.017 16.9243 100.522 17.8843C100.026 18.8443 99.7787 20.0676 99.7787 21.5541V22.9012C99.7787 24.109 100.011 25.1774 100.476 26.1064C100.94 27.0045 101.59 27.7013 102.427 28.1968C103.263 28.6923 104.238 28.9401 105.353 28.9401C106.468 28.9401 107.381 28.7078 108.094 28.2433C108.837 27.7787 109.394 27.1749 109.766 26.4316H116.409C115.975 27.8871 115.232 29.2033 114.179 30.3801C113.157 31.5569 111.903 32.5014 110.416 33.2137C108.93 33.895 107.258 34.2357 105.399 34.2357Z" fill="white"/>
<path d="M63.5361 43.8979V10.2661H69.2962L70.0395 13.4248C70.504 12.7745 71.0769 12.1706 71.7582 11.6132C72.4395 11.0248 73.2447 10.5603 74.1738 10.2196C75.1338 9.87895 76.2332 9.70863 77.4719 9.70863C79.6397 9.70863 81.5598 10.2506 83.2321 11.3345C84.9353 12.4184 86.267 13.8894 87.227 15.7475C88.187 17.5746 88.667 19.665 88.667 22.0186C88.667 24.3722 88.1715 26.4781 87.1806 28.3362C86.1896 30.1633 84.8579 31.6034 83.1856 32.6563C81.5133 33.7092 79.6242 34.2357 77.5184 34.2357C75.8151 34.2357 74.3286 33.926 73.0589 33.3066C71.8202 32.6873 70.8137 31.8201 70.0395 30.7053V43.8979H63.5361ZM75.939 28.5684C77.1158 28.5684 78.1687 28.2897 79.0978 27.7323C80.0268 27.1749 80.7546 26.4006 81.2811 25.4097C81.8075 24.4187 82.0708 23.2883 82.0708 22.0186C82.0708 20.7179 81.8075 19.5721 81.2811 18.5811C80.7546 17.5901 80.0268 16.8159 79.0978 16.2585C78.1687 15.6701 77.1158 15.3759 75.939 15.3759C74.7312 15.3759 73.6628 15.6701 72.7337 16.2585C71.8357 16.8159 71.1234 17.5901 70.5969 18.5811C70.0705 19.5721 69.8072 20.7024 69.8072 21.9722C69.8072 23.2728 70.0705 24.4187 70.5969 25.4097C71.1234 26.4006 71.8357 27.1749 72.7337 27.7323C73.6628 28.2897 74.7312 28.5684 75.939 28.5684Z" fill="white"/>
<path d="M46.746 34.2357C44.3924 34.2357 42.2865 33.8331 40.4284 33.0279C38.6013 32.2227 37.1458 31.0459 36.0619 29.4975C34.978 27.9491 34.4205 26.0755 34.3896 23.8767H41.2646C41.2955 24.8058 41.5278 25.6419 41.9614 26.3852C42.4259 27.1284 43.0607 27.7168 43.8659 28.1504C44.6711 28.5839 45.6156 28.8007 46.6995 28.8007C47.6596 28.8007 48.4802 28.6459 49.1615 28.3362C49.8738 28.0265 50.4158 27.5929 50.7874 27.0355C51.19 26.4781 51.3913 25.7968 51.3913 24.9916C51.3913 24.1245 51.159 23.3812 50.6945 22.7619C50.2609 22.1425 49.657 21.616 48.8828 21.1825C48.1086 20.7489 47.2105 20.3618 46.1886 20.0211C45.1976 19.6495 44.1292 19.2779 42.9833 18.9063C40.4129 18.0701 38.4464 16.9553 37.0838 15.5617C35.7522 14.1681 35.0863 12.31 35.0863 9.98734C35.0863 8.00536 35.5509 6.31758 36.4799 4.924C37.44 3.53041 38.7561 2.462 40.4284 1.71876C42.1317 0.975511 44.0517 0.603889 46.1886 0.603889C48.3873 0.603889 50.3228 0.990995 51.9951 1.76521C53.6674 2.50845 54.9836 3.59235 55.9436 5.0169C56.9346 6.44145 57.4611 8.12923 57.523 10.0803H50.5551C50.5241 9.36798 50.3229 8.71764 49.9512 8.12924C49.5796 7.50986 49.0686 7.01437 48.4183 6.64275C47.7679 6.27112 46.9937 6.08531 46.0957 6.08531C45.3214 6.05434 44.6092 6.17822 43.9588 6.45694C43.3395 6.70468 42.844 7.09179 42.4723 7.61825C42.1007 8.11375 41.9149 8.7486 41.9149 9.52282C41.9149 10.297 42.1007 10.9474 42.4723 11.4738C42.844 11.9693 43.3549 12.4029 44.0053 12.7745C44.6866 13.1461 45.4763 13.5023 46.3744 13.8429C47.2725 14.1526 48.248 14.4778 49.3009 14.8184C50.9422 15.3759 52.4442 16.0417 53.8068 16.8159C55.1694 17.5591 56.2533 18.5347 57.0585 19.7424C57.8946 20.9502 58.3127 22.5451 58.3127 24.5271C58.3127 26.2613 57.8637 27.8717 56.9656 29.3581C56.0675 30.8137 54.7668 31.9905 53.0636 32.8885C51.3603 33.7866 49.2544 34.2357 46.746 34.2357Z" fill="white"/>
<path d="M2.30426 29.7141C2.43923 29.1076 2.77023 28.5662 3.24309 28.1786L18.4092 15.7459C18.8821 15.3582 19.4688 15.1473 20.0733 15.1476L23.6655 15.1493C24.5226 15.1497 25.1571 15.9696 24.9657 16.8295L24.1637 20.4335C24.0287 21.04 23.6977 21.5814 23.2249 21.969L8.05876 34.4017C7.58591 34.7893 6.99921 35.0003 6.3947 35L2.80244 34.9983C1.94538 34.9979 1.31087 34.1779 1.50222 33.3181L2.30426 29.7141Z" fill="#2366EC"/>
<path d="M0.836295 15.5665C0.971263 14.96 1.30226 14.4186 1.77512 14.031L16.9412 1.59828C17.4141 1.21065 18.0008 0.999714 18.6053 1L22.1976 1.0017C23.0546 1.00211 23.6891 1.82206 23.4978 2.68192L22.6957 6.28594C22.5608 6.89243 22.2298 7.43379 21.7569 7.82142L6.59079 20.2542C6.11794 20.6418 5.53124 20.8527 4.92673 20.8524L1.33447 20.8507C0.477412 20.8503 -0.157098 20.0304 0.034256 19.1705L0.836295 15.5665Z" fill="#2366EC"/>
</svg>
