<svg width="35" height="26" viewBox="0 0 35 26" fill="none" xmlns="http://www.w3.org/2000/svg">
<path d="M25.9837 5.37931C25.9837 6.86477 27.1872 8.06897 28.6717 8.06897H31.3596C32.8442 8.06897 34.0476 9.27317 34.0476 10.7586V23.3103C34.0476 24.7958 32.8442 26 31.3596 26H27.7757C26.2912 26 25.0877 24.7958 25.0877 23.3103V11.6552C25.0877 10.1697 23.8843 8.96552 22.3997 8.96552H11.6479C10.1633 8.96552 8.9599 10.1697 8.9599 11.6552V23.3103C8.9599 24.7958 7.75645 26 6.27193 26H2.68797C1.20345 26 0 24.7958 0 23.3103V10.7586C0 9.27317 1.20345 8.06897 2.68797 8.06897H5.37594C6.86046 8.06897 8.06391 6.86477 8.06391 5.37931V2.68966C8.06391 1.2042 9.26735 0 10.7519 0H23.2957C24.7803 0 25.9837 1.2042 25.9837 2.68966V5.37931Z" fill="white"/>
<path d="M13.8876 14.4285C15.1247 14.4285 16.1276 16.0843 16.1276 18.1268C16.1276 18.1698 16.1271 18.2126 16.1262 18.2553C16.1169 18.6986 15.7331 19.0233 15.2899 19.0233H12.4853C12.0421 19.0233 11.6583 18.6986 11.649 18.2553C11.6481 18.2126 11.6476 18.1698 11.6476 18.1268C11.6476 16.0843 12.6505 14.4285 13.8876 14.4285Z" fill="white"/>
<path d="M20.1596 14.4285C21.3967 14.4285 22.3995 16.0843 22.3995 18.1268C22.3995 18.1698 22.3991 18.2126 22.3982 18.2553C22.3888 18.6986 22.005 19.0233 21.5618 19.0233H18.7573C18.3141 19.0233 17.9303 18.6986 17.9209 18.2553C17.92 18.2126 17.9196 18.1698 17.9196 18.1268C17.9196 16.0843 18.9224 14.4285 20.1596 14.4285Z" fill="white"/>
</svg>
