<svg xmlns="http://www.w3.org/2000/svg" version="1.1" width="281" height="79">
<path d="M 3.867188 3.672852 L 3.867188 6.052246 L 6.257324 6.052246 L 6.257324 6.959961 L 3.867188 6.959961 L 3.867188 9.339355 L 2.964844 9.339355 L 2.964844 6.959961 L 0.580078 6.959961 L 0.580078 6.052246 L 2.964844 6.052246 L 2.964844 3.672852 Z " fill="rgb(255, 255, 255)" fill-opacity="1.000000" />
<path d="M 3.985352 14.594238 L 3.985352 25.594238 L 3.061523 25.594238 L 3.061523 14.594238 Z " fill="rgb(255, 255, 255)" fill-opacity="1.000000" />
<path d="M 3.985352 27.594238 L 3.985352 38.594238 L 3.061523 38.594238 L 3.061523 27.594238 Z " fill="rgb(255, 255, 255)" fill-opacity="1.000000" />
<path d="M 3.985352 40.594238 L 3.985352 51.594238 L 3.061523 51.594238 L 3.061523 40.594238 Z " fill="rgb(255, 255, 255)" fill-opacity="1.000000" />
<path d="M 3.867188 55.672852 L 3.867188 58.052246 L 6.257324 58.052246 L 6.257324 58.959961 L 3.867188 58.959961 L 3.867188 61.339355 L 2.964844 61.339355 L 2.964844 58.959961 L 0.580078 58.959961 L 0.580078 58.052246 L 2.964844 58.052246 L 2.964844 55.672852 Z " fill="rgb(255, 255, 255)" fill-opacity="1.000000" />
<path d="M 8.573730 66.980957 L 12.795410 76.020508 L 11.774902 76.020508 L 7.547852 66.980957 Z " fill="rgb(101, 101, 101)" fill-opacity="1.000000" />
<path d="M 15.573730 66.980957 L 19.795410 76.020508 L 18.774902 76.020508 L 14.547852 66.980957 Z " fill="rgb(101, 101, 101)" fill-opacity="1.000000" />
<path d="M 22.573730 66.980957 L 26.795410 76.020508 L 25.774902 76.020508 L 21.547852 66.980957 Z " fill="rgb(101, 101, 101)" fill-opacity="1.000000" />
<path d="M 29.573730 66.980957 L 33.795410 76.020508 L 32.774902 76.020508 L 28.547852 66.980957 Z " fill="rgb(101, 101, 101)" fill-opacity="1.000000" />
<path d="M 36.573730 66.980957 L 40.795410 76.020508 L 39.774902 76.020508 L 35.547852 66.980957 Z " fill="rgb(101, 101, 101)" fill-opacity="1.000000" />
<path d="M 43.573730 66.980957 L 47.795410 76.020508 L 46.774902 76.020508 L 42.547852 66.980957 Z " fill="rgb(101, 101, 101)" fill-opacity="1.000000" />
<path d="M 50.573730 66.980957 L 54.795410 76.020508 L 53.774902 76.020508 L 49.547852 66.980957 Z " fill="rgb(101, 101, 101)" fill-opacity="1.000000" />
<path d="M 57.573730 66.980957 L 61.795410 76.020508 L 60.774902 76.020508 L 56.547852 66.980957 Z " fill="rgb(101, 101, 101)" fill-opacity="1.000000" />
<path d="M 64.573730 66.980957 L 68.795410 76.020508 L 67.774902 76.020508 L 63.547852 66.980957 Z " fill="rgb(101, 101, 101)" fill-opacity="1.000000" />
<path d="M 71.573730 66.980957 L 75.795410 76.020508 L 74.774902 76.020508 L 70.547852 66.980957 Z " fill="rgb(101, 101, 101)" fill-opacity="1.000000" />
<path d="M 78.573730 66.980957 L 82.795410 76.020508 L 81.774902 76.020508 L 77.547852 66.980957 Z " fill="rgb(101, 101, 101)" fill-opacity="1.000000" />
<path d="M 85.573730 66.980957 L 89.795410 76.020508 L 88.774902 76.020508 L 84.547852 66.980957 Z " fill="rgb(101, 101, 101)" fill-opacity="1.000000" />
<path d="M 92.573730 66.980957 L 96.795410 76.020508 L 95.774902 76.020508 L 91.547852 66.980957 Z " fill="rgb(101, 101, 101)" fill-opacity="1.000000" />
<path d="M 99.573730 66.980957 L 103.795410 76.020508 L 102.774902 76.020508 L 98.547852 66.980957 Z " fill="rgb(101, 101, 101)" fill-opacity="1.000000" />
<path d="M 106.573730 66.980957 L 110.795410 76.020508 L 109.774902 76.020508 L 105.547852 66.980957 Z " fill="rgb(101, 101, 101)" fill-opacity="1.000000" />
<path d="M 113.573730 66.980957 L 117.795410 76.020508 L 116.774902 76.020508 L 112.547852 66.980957 Z " fill="rgb(101, 101, 101)" fill-opacity="1.000000" />
<path d="M 120.573730 66.980957 L 124.795410 76.020508 L 123.774902 76.020508 L 119.547852 66.980957 Z " fill="rgb(101, 101, 101)" fill-opacity="1.000000" />
<path d="M 127.573730 66.980957 L 131.795410 76.020508 L 130.774902 76.020508 L 126.547852 66.980957 Z " fill="rgb(101, 101, 101)" fill-opacity="1.000000" />
<path d="M 134.573730 66.980957 L 138.795410 76.020508 L 137.774902 76.020508 L 133.547852 66.980957 Z " fill="rgb(101, 101, 101)" fill-opacity="1.000000" />
<path d="M 141.573730 66.980957 L 145.795410 76.020508 L 144.774902 76.020508 L 140.547852 66.980957 Z " fill="rgb(101, 101, 101)" fill-opacity="1.000000" />
<path d="M 148.573730 66.980957 L 152.795410 76.020508 L 151.774902 76.020508 L 147.547852 66.980957 Z " fill="rgb(101, 101, 101)" fill-opacity="1.000000" />
<path d="M 155.573730 66.980957 L 159.795410 76.020508 L 158.774902 76.020508 L 154.547852 66.980957 Z " fill="rgb(101, 101, 101)" fill-opacity="1.000000" />
<path d="M 162.573730 66.980957 L 166.795410 76.020508 L 165.774902 76.020508 L 161.547852 66.980957 Z " fill="rgb(101, 101, 101)" fill-opacity="1.000000" />
<path d="M 169.573730 66.980957 L 173.795410 76.020508 L 172.774902 76.020508 L 168.547852 66.980957 Z " fill="rgb(101, 101, 101)" fill-opacity="1.000000" />
<path d="M 176.573730 66.980957 L 180.795410 76.020508 L 179.774902 76.020508 L 175.547852 66.980957 Z " fill="rgb(101, 101, 101)" fill-opacity="1.000000" />
<path d="M 183.573730 66.980957 L 187.795410 76.020508 L 186.774902 76.020508 L 182.547852 66.980957 Z " fill="rgb(101, 101, 101)" fill-opacity="1.000000" />
<path d="M 190.573730 66.980957 L 194.795410 76.020508 L 193.774902 76.020508 L 189.547852 66.980957 Z " fill="rgb(101, 101, 101)" fill-opacity="1.000000" />
<path d="M 197.573730 66.980957 L 201.795410 76.020508 L 200.774902 76.020508 L 196.547852 66.980957 Z " fill="rgb(101, 101, 101)" fill-opacity="1.000000" />
<path d="M 204.573730 66.980957 L 208.795410 76.020508 L 207.774902 76.020508 L 203.547852 66.980957 Z " fill="rgb(101, 101, 101)" fill-opacity="1.000000" />
<path d="M 211.573730 66.980957 L 215.795410 76.020508 L 214.774902 76.020508 L 210.547852 66.980957 Z " fill="rgb(101, 101, 101)" fill-opacity="1.000000" />
<path d="M 218.573730 66.980957 L 222.795410 76.020508 L 221.774902 76.020508 L 217.547852 66.980957 Z " fill="rgb(101, 101, 101)" fill-opacity="1.000000" />
<path d="M 225.573730 66.980957 L 229.795410 76.020508 L 228.774902 76.020508 L 224.547852 66.980957 Z " fill="rgb(101, 101, 101)" fill-opacity="1.000000" />
<path d="M 232.573730 66.980957 L 236.795410 76.020508 L 235.774902 76.020508 L 231.547852 66.980957 Z " fill="rgb(101, 101, 101)" fill-opacity="1.000000" />
<path d="M 239.573730 66.980957 L 243.795410 76.020508 L 242.774902 76.020508 L 238.547852 66.980957 Z " fill="rgb(101, 101, 101)" fill-opacity="1.000000" />
<path d="M 246.573730 66.980957 L 250.795410 76.020508 L 249.774902 76.020508 L 245.547852 66.980957 Z " fill="rgb(101, 101, 101)" fill-opacity="1.000000" />
<path d="M 253.573730 66.980957 L 257.795410 76.020508 L 256.774902 76.020508 L 252.547852 66.980957 Z " fill="rgb(101, 101, 101)" fill-opacity="1.000000" />
<path d="M 260.573730 66.980957 L 264.795410 76.020508 L 263.774902 76.020508 L 259.547852 66.980957 Z " fill="rgb(101, 101, 101)" fill-opacity="1.000000" />
<path d="M 267.573730 66.980957 L 271.795410 76.020508 L 270.774902 76.020508 L 266.547852 66.980957 Z " fill="rgb(101, 101, 101)" fill-opacity="1.000000" />
<path d="M 274.573730 66.980957 L 278.795410 76.020508 L 277.774902 76.020508 L 273.547852 66.980957 Z " fill="rgb(101, 101, 101)" fill-opacity="1.000000" />
<path d="M 7.547852 58.111328 L 13.241211 58.111328 L 13.241211 59.019043 L 7.547852 59.019043 Z " fill="rgb(255, 255, 255)" fill-opacity="1.000000" />
<path d="M 14.547852 58.111328 L 20.241211 58.111328 L 20.241211 59.019043 L 14.547852 59.019043 Z " fill="rgb(255, 255, 255)" fill-opacity="1.000000" />
<path d="M 21.547852 58.111328 L 27.241211 58.111328 L 27.241211 59.019043 L 21.547852 59.019043 Z " fill="rgb(255, 255, 255)" fill-opacity="1.000000" />
<path d="M 28.547852 58.111328 L 34.241211 58.111328 L 34.241211 59.019043 L 28.547852 59.019043 Z " fill="rgb(255, 255, 255)" fill-opacity="1.000000" />
<path d="M 35.547852 58.111328 L 41.241211 58.111328 L 41.241211 59.019043 L 35.547852 59.019043 Z " fill="rgb(255, 255, 255)" fill-opacity="1.000000" />
<path d="M 42.547852 58.111328 L 48.241211 58.111328 L 48.241211 59.019043 L 42.547852 59.019043 Z " fill="rgb(255, 255, 255)" fill-opacity="1.000000" />
<path d="M 49.547852 58.111328 L 55.241211 58.111328 L 55.241211 59.019043 L 49.547852 59.019043 Z " fill="rgb(255, 255, 255)" fill-opacity="1.000000" />
<path d="M 56.547852 58.111328 L 62.241211 58.111328 L 62.241211 59.019043 L 56.547852 59.019043 Z " fill="rgb(255, 255, 255)" fill-opacity="1.000000" />
<path d="M 63.547852 58.111328 L 69.241211 58.111328 L 69.241211 59.019043 L 63.547852 59.019043 Z " fill="rgb(255, 255, 255)" fill-opacity="1.000000" />
<path d="M 70.547852 58.111328 L 76.241211 58.111328 L 76.241211 59.019043 L 70.547852 59.019043 Z " fill="rgb(255, 255, 255)" fill-opacity="1.000000" />
<path d="M 80.867188 55.672852 L 80.867188 58.052246 L 83.257324 58.052246 L 83.257324 58.959961 L 80.867188 58.959961 L 80.867188 61.339355 L 79.964844 61.339355 L 79.964844 58.959961 L 77.580078 58.959961 L 77.580078 58.052246 L 79.964844 58.052246 L 79.964844 55.672852 Z " fill="rgb(255, 255, 255)" fill-opacity="1.000000" />
<path d="M 84.547852 58.111328 L 90.241211 58.111328 L 90.241211 59.019043 L 84.547852 59.019043 Z " fill="rgb(255, 255, 255)" fill-opacity="1.000000" />
<path d="M 91.547852 58.111328 L 97.241211 58.111328 L 97.241211 59.019043 L 91.547852 59.019043 Z " fill="rgb(255, 255, 255)" fill-opacity="1.000000" />
<path d="M 98.547852 58.111328 L 104.241211 58.111328 L 104.241211 59.019043 L 98.547852 59.019043 Z " fill="rgb(255, 255, 255)" fill-opacity="1.000000" />
<path d="M 105.547852 58.111328 L 111.241211 58.111328 L 111.241211 59.019043 L 105.547852 59.019043 Z " fill="rgb(255, 255, 255)" fill-opacity="1.000000" />
<path d="M 112.547852 58.111328 L 118.241211 58.111328 L 118.241211 59.019043 L 112.547852 59.019043 Z " fill="rgb(255, 255, 255)" fill-opacity="1.000000" />
<path d="M 119.547852 58.111328 L 125.241211 58.111328 L 125.241211 59.019043 L 119.547852 59.019043 Z " fill="rgb(255, 255, 255)" fill-opacity="1.000000" />
<path d="M 126.547852 58.111328 L 132.241211 58.111328 L 132.241211 59.019043 L 126.547852 59.019043 Z " fill="rgb(255, 255, 255)" fill-opacity="1.000000" />
<path d="M 136.867188 55.672852 L 136.867188 58.052246 L 139.257324 58.052246 L 139.257324 58.959961 L 136.867188 58.959961 L 136.867188 61.339355 L 135.964844 61.339355 L 135.964844 58.959961 L 133.580078 58.959961 L 133.580078 58.052246 L 135.964844 58.052246 L 135.964844 55.672852 Z " fill="rgb(255, 255, 255)" fill-opacity="1.000000" />
<path d="M 140.547852 58.111328 L 146.241211 58.111328 L 146.241211 59.019043 L 140.547852 59.019043 Z " fill="rgb(255, 255, 255)" fill-opacity="1.000000" />
<path d="M 147.547852 58.111328 L 153.241211 58.111328 L 153.241211 59.019043 L 147.547852 59.019043 Z " fill="rgb(255, 255, 255)" fill-opacity="1.000000" />
<path d="M 154.547852 58.111328 L 160.241211 58.111328 L 160.241211 59.019043 L 154.547852 59.019043 Z " fill="rgb(255, 255, 255)" fill-opacity="1.000000" />
<path d="M 161.547852 58.111328 L 167.241211 58.111328 L 167.241211 59.019043 L 161.547852 59.019043 Z " fill="rgb(255, 255, 255)" fill-opacity="1.000000" />
<path d="M 168.547852 58.111328 L 174.241211 58.111328 L 174.241211 59.019043 L 168.547852 59.019043 Z " fill="rgb(255, 255, 255)" fill-opacity="1.000000" />
<path d="M 175.547852 58.111328 L 181.241211 58.111328 L 181.241211 59.019043 L 175.547852 59.019043 Z " fill="rgb(255, 255, 255)" fill-opacity="1.000000" />
<path d="M 182.547852 58.111328 L 188.241211 58.111328 L 188.241211 59.019043 L 182.547852 59.019043 Z " fill="rgb(255, 255, 255)" fill-opacity="1.000000" />
<path d="M 189.547852 58.111328 L 195.241211 58.111328 L 195.241211 59.019043 L 189.547852 59.019043 Z " fill="rgb(255, 255, 255)" fill-opacity="1.000000" />
<path d="M 196.547852 58.111328 L 202.241211 58.111328 L 202.241211 59.019043 L 196.547852 59.019043 Z " fill="rgb(255, 255, 255)" fill-opacity="1.000000" />
<path d="M 203.547852 58.111328 L 209.241211 58.111328 L 209.241211 59.019043 L 203.547852 59.019043 Z " fill="rgb(255, 255, 255)" fill-opacity="1.000000" />
<path d="M 210.547852 58.111328 L 216.241211 58.111328 L 216.241211 59.019043 L 210.547852 59.019043 Z " fill="rgb(255, 255, 255)" fill-opacity="1.000000" />
<path d="M 217.547852 58.111328 L 223.241211 58.111328 L 223.241211 59.019043 L 217.547852 59.019043 Z " fill="rgb(255, 255, 255)" fill-opacity="1.000000" />
<path d="M 224.547852 58.111328 L 230.241211 58.111328 L 230.241211 59.019043 L 224.547852 59.019043 Z " fill="rgb(255, 255, 255)" fill-opacity="1.000000" />
<path d="M 231.547852 58.111328 L 237.241211 58.111328 L 237.241211 59.019043 L 231.547852 59.019043 Z " fill="rgb(255, 255, 255)" fill-opacity="1.000000" />
<path d="M 238.547852 58.111328 L 244.241211 58.111328 L 244.241211 59.019043 L 238.547852 59.019043 Z " fill="rgb(255, 255, 255)" fill-opacity="1.000000" />
<path d="M 245.547852 58.111328 L 251.241211 58.111328 L 251.241211 59.019043 L 245.547852 59.019043 Z " fill="rgb(255, 255, 255)" fill-opacity="1.000000" />
<path d="M 252.547852 58.111328 L 258.241211 58.111328 L 258.241211 59.019043 L 252.547852 59.019043 Z " fill="rgb(255, 255, 255)" fill-opacity="1.000000" />
<path d="M 259.547852 58.111328 L 265.241211 58.111328 L 265.241211 59.019043 L 259.547852 59.019043 Z " fill="rgb(255, 255, 255)" fill-opacity="1.000000" />
<path d="M 269.867188 55.672852 L 269.867188 58.052246 L 272.257324 58.052246 L 272.257324 58.959961 L 269.867188 58.959961 L 269.867188 61.339355 L 268.964844 61.339355 L 268.964844 58.959961 L 266.580078 58.959961 L 266.580078 58.052246 L 268.964844 58.052246 L 268.964844 55.672852 Z " fill="rgb(255, 255, 255)" fill-opacity="1.000000" />
<path d="M 274.573730 53.980957 L 278.795410 63.020508 L 277.774902 63.020508 L 273.547852 53.980957 Z " fill="rgb(101, 101, 101)" fill-opacity="1.000000" />
<path d="M 24.023926 27.105469 L 26.301270 27.105469 L 26.301270 27.873535 L 25.012207 27.873535 L 25.012207 36.145020 L 26.301270 36.145020 L 26.301270 36.913086 L 24.023926 36.913086 Z " fill="rgb(255, 255, 255)" fill-opacity="1.000000" />
<path d="M 80.985352 40.594238 L 80.985352 51.594238 L 80.061523 51.594238 L 80.061523 40.594238 Z " fill="rgb(255, 255, 255)" fill-opacity="1.000000" />
<path d="M 136.985352 40.594238 L 136.985352 51.594238 L 136.061523 51.594238 L 136.061523 40.594238 Z " fill="rgb(255, 255, 255)" fill-opacity="1.000000" />
<path d="M 185.023926 40.105469 L 187.301270 40.105469 L 187.301270 40.873535 L 186.012207 40.873535 L 186.012207 49.145020 L 187.301270 49.145020 L 187.301270 49.913086 L 185.023926 49.913086 Z " fill="rgb(255, 255, 255)" fill-opacity="1.000000" />
<path d="M 194.763184 48.715332 Q 194.349609 48.935547 193.914551 49.045654 Q 193.479492 49.155762 192.990723 49.155762 Q 191.449219 49.155762 190.597900 48.065430 Q 189.746582 46.975098 189.746582 44.998535 Q 189.746582 43.032715 190.603271 41.934326 Q 191.459961 40.835938 192.990723 40.835938 Q 193.479492 40.835938 193.914551 40.946045 Q 194.349609 41.056152 194.763184 41.276367 L 194.763184 42.388184 Q 194.365723 42.060547 193.909180 41.888672 Q 193.452637 41.716797 192.990723 41.716797 Q 191.932617 41.716797 191.406250 42.533203 Q 190.879883 43.349609 190.879883 44.998535 Q 190.879883 46.642090 191.406250 47.458496 Q 191.932617 48.274902 192.990723 48.274902 Q 193.463379 48.274902 193.917236 48.103027 Q 194.371094 47.931152 194.763184 47.603516 Z " fill="rgb(255, 255, 255)" fill-opacity="1.000000" />
<path d="M 200.082031 45.213379 Q 200.500977 45.320801 200.796387 45.618896 Q 201.091797 45.916992 201.532227 46.808594 L 202.622559 49.000000 L 201.457031 49.000000 L 200.500977 46.975098 Q 200.087402 46.110352 199.757080 45.860596 Q 199.426758 45.610840 198.895020 45.610840 L 197.858398 45.610840 L 197.858398 49.000000 L 196.768066 49.000000 L 196.768066 40.980957 L 199.002441 40.980957 Q 200.323730 40.980957 201.027344 41.577148 Q 201.730957 42.173340 201.730957 43.301270 Q 201.730957 44.096191 201.298584 44.598389 Q 200.866211 45.100586 200.082031 45.213379 Z M 197.858398 41.872559 L 197.858398 44.719238 L 199.045410 44.719238 Q 199.824219 44.719238 200.205566 44.370117 Q 200.586914 44.020996 200.586914 43.301270 Q 200.586914 42.608398 200.181396 42.240479 Q 199.775879 41.872559 199.002441 41.872559 Z " fill="rgb(255, 255, 255)" fill-opacity="1.000000" />
<path d="M 207.860840 44.998535 Q 207.860840 43.231445 207.498291 42.474121 Q 207.135742 41.716797 206.308594 41.716797 Q 205.486816 41.716797 205.124268 42.474121 Q 204.761719 43.231445 204.761719 44.998535 Q 204.761719 46.760254 205.124268 47.517578 Q 205.486816 48.274902 206.308594 48.274902 Q 207.135742 48.274902 207.498291 47.520264 Q 207.860840 46.765625 207.860840 44.998535 Z M 208.994141 44.998535 Q 208.994141 47.093262 208.330811 48.124512 Q 207.667480 49.155762 206.308594 49.155762 Q 204.949707 49.155762 204.289062 48.129883 Q 203.628418 47.104004 203.628418 44.998535 Q 203.628418 42.898438 204.291748 41.867188 Q 204.955078 40.835938 206.308594 40.835938 Q 207.667480 40.835938 208.330811 41.867188 Q 208.994141 42.898438 208.994141 44.998535 Z " fill="rgb(255, 255, 255)" fill-opacity="1.000000" />
<path d="M 210.102051 41.007812 L 211.584473 41.007812 L 214.721191 47.587402 L 214.721191 41.007812 L 215.875977 41.007812 L 215.875977 49.000000 L 214.393555 49.000000 L 211.256836 42.420410 L 211.256836 49.000000 L 210.102051 49.000000 Z " fill="rgb(255, 255, 255)" fill-opacity="1.000000" />
<path d="M 220.867188 40.105469 L 220.867188 49.913086 L 218.589844 49.913086 L 218.589844 49.145020 L 219.878906 49.145020 L 219.878906 40.873535 L 218.589844 40.873535 L 218.589844 40.105469 Z " fill="rgb(255, 255, 255)" fill-opacity="1.000000" />
<path d="M 269.985352 40.594238 L 269.985352 51.594238 L 269.061523 51.594238 L 269.061523 40.594238 Z " fill="rgb(255, 255, 255)" fill-opacity="1.000000" />
<path d="M 274.573730 40.980957 L 278.795410 50.020508 L 277.774902 50.020508 L 273.547852 40.980957 Z " fill="rgb(101, 101, 101)" fill-opacity="1.000000" />
<path d="M 31.308594 28.937012 L 30.164551 33.040527 L 32.452637 33.040527 Z M 30.653320 27.980957 L 31.969238 27.980957 L 34.423828 36.000000 L 33.301270 36.000000 L 32.710449 33.910645 L 29.901367 33.910645 L 29.321289 36.000000 L 28.198730 36.000000 Z " fill="rgb(255, 255, 255)" fill-opacity="1.000000" />
<path d="M 37.143066 28.872559 L 37.143066 31.885742 L 38.399902 31.885742 Q 39.151855 31.885742 39.573486 31.488281 Q 39.995117 31.090820 39.995117 30.376465 Q 39.995117 29.662109 39.576172 29.267334 Q 39.157227 28.872559 38.399902 28.872559 Z M 36.058105 27.980957 L 38.399902 27.980957 Q 39.742676 27.980957 40.435547 28.590576 Q 41.128418 29.200195 41.128418 30.376465 Q 41.128418 31.563477 40.438232 32.170410 Q 39.748047 32.777344 38.399902 32.777344 L 37.143066 32.777344 L 37.143066 36.000000 L 36.058105 36.000000 Z " fill="rgb(255, 255, 255)" fill-opacity="1.000000" />
<path d="M 43.079590 27.980957 L 47.532227 27.980957 L 47.532227 28.894043 L 45.851074 28.894043 L 45.851074 35.086914 L 47.532227 35.086914 L 47.532227 36.000000 L 43.079590 36.000000 L 43.079590 35.086914 L 44.760742 35.086914 L 44.760742 28.894043 L 43.079590 28.894043 Z " fill="rgb(255, 255, 255)" fill-opacity="1.000000" />
<path d="M 52.867188 27.105469 L 52.867188 36.913086 L 50.589844 36.913086 L 50.589844 36.145020 L 51.878906 36.145020 L 51.878906 27.873535 L 50.589844 27.873535 L 50.589844 27.105469 Z " fill="rgb(255, 255, 255)" fill-opacity="1.000000" />
<path d="M 80.985352 27.594238 L 80.985352 38.594238 L 80.061523 38.594238 L 80.061523 27.594238 Z " fill="rgb(255, 255, 255)" fill-opacity="1.000000" />
<path d="M 94.023926 27.105469 L 96.301270 27.105469 L 96.301270 27.873535 L 95.012207 27.873535 L 95.012207 36.145020 L 96.301270 36.145020 L 96.301270 36.913086 L 94.023926 36.913086 Z " fill="rgb(255, 255, 255)" fill-opacity="1.000000" />
<path d="M 101.308594 28.937012 L 100.164551 33.040527 L 102.452637 33.040527 Z M 100.653320 27.980957 L 101.969238 27.980957 L 104.423828 36.000000 L 103.301270 36.000000 L 102.710449 33.910645 L 99.901367 33.910645 L 99.321289 36.000000 L 98.198730 36.000000 Z " fill="rgb(255, 255, 255)" fill-opacity="1.000000" />
<path d="M 107.143066 28.872559 L 107.143066 31.885742 L 108.399902 31.885742 Q 109.151855 31.885742 109.573486 31.488281 Q 109.995117 31.090820 109.995117 30.376465 Q 109.995117 29.662109 109.576172 29.267334 Q 109.157227 28.872559 108.399902 28.872559 Z M 106.058105 27.980957 L 108.399902 27.980957 Q 109.742676 27.980957 110.435547 28.590576 Q 111.128418 29.200195 111.128418 30.376465 Q 111.128418 31.563477 110.438232 32.170410 Q 109.748047 32.777344 108.399902 32.777344 L 107.143066 32.777344 L 107.143066 36.000000 L 106.058105 36.000000 Z " fill="rgb(255, 255, 255)" fill-opacity="1.000000" />
<path d="M 113.079590 27.980957 L 117.532227 27.980957 L 117.532227 28.894043 L 115.851074 28.894043 L 115.851074 35.086914 L 117.532227 35.086914 L 117.532227 36.000000 L 113.079590 36.000000 L 113.079590 35.086914 L 114.760742 35.086914 L 114.760742 28.894043 L 113.079590 28.894043 Z " fill="rgb(255, 255, 255)" fill-opacity="1.000000" />
<path d="M 122.867188 27.105469 L 122.867188 36.913086 L 120.589844 36.913086 L 120.589844 36.145020 L 121.878906 36.145020 L 121.878906 27.873535 L 120.589844 27.873535 L 120.589844 27.105469 Z " fill="rgb(255, 255, 255)" fill-opacity="1.000000" />
<path d="M 136.867188 29.672852 L 136.867188 32.052246 L 139.257324 32.052246 L 139.257324 32.959961 L 136.867188 32.959961 L 136.867188 35.339355 L 135.964844 35.339355 L 135.964844 32.959961 L 133.580078 32.959961 L 133.580078 32.052246 L 135.964844 32.052246 L 135.964844 29.672852 Z " fill="rgb(255, 255, 255)" fill-opacity="1.000000" />
<path d="M 140.547852 32.111328 L 146.241211 32.111328 L 146.241211 33.019043 L 140.547852 33.019043 Z " fill="rgb(255, 255, 255)" fill-opacity="1.000000" />
<path d="M 147.547852 32.111328 L 153.241211 32.111328 L 153.241211 33.019043 L 147.547852 33.019043 Z " fill="rgb(255, 255, 255)" fill-opacity="1.000000" />
<path d="M 154.547852 32.111328 L 160.241211 32.111328 L 160.241211 33.019043 L 154.547852 33.019043 Z " fill="rgb(255, 255, 255)" fill-opacity="1.000000" />
<path d="M 161.547852 32.111328 L 167.241211 32.111328 L 167.241211 33.019043 L 161.547852 33.019043 Z " fill="rgb(255, 255, 255)" fill-opacity="1.000000" />
<path d="M 168.547852 32.111328 L 174.241211 32.111328 L 174.241211 33.019043 L 168.547852 33.019043 Z " fill="rgb(255, 255, 255)" fill-opacity="1.000000" />
<path d="M 175.547852 32.111328 L 181.241211 32.111328 L 181.241211 33.019043 L 175.547852 33.019043 Z " fill="rgb(255, 255, 255)" fill-opacity="1.000000" />
<path d="M 182.547852 32.111328 L 188.241211 32.111328 L 188.241211 33.019043 L 182.547852 33.019043 Z " fill="rgb(255, 255, 255)" fill-opacity="1.000000" />
<path d="M 189.547852 32.111328 L 195.241211 32.111328 L 195.241211 33.019043 L 189.547852 33.019043 Z " fill="rgb(255, 255, 255)" fill-opacity="1.000000" />
<path d="M 196.547852 32.111328 L 202.241211 32.111328 L 202.241211 33.019043 L 196.547852 33.019043 Z " fill="rgb(255, 255, 255)" fill-opacity="1.000000" />
<path d="M 203.547852 32.111328 L 209.241211 32.111328 L 209.241211 33.019043 L 203.547852 33.019043 Z " fill="rgb(255, 255, 255)" fill-opacity="1.000000" />
<path d="M 210.547852 32.111328 L 216.241211 32.111328 L 216.241211 33.019043 L 210.547852 33.019043 Z " fill="rgb(255, 255, 255)" fill-opacity="1.000000" />
<path d="M 217.547852 32.111328 L 223.241211 32.111328 L 223.241211 33.019043 L 217.547852 33.019043 Z " fill="rgb(255, 255, 255)" fill-opacity="1.000000" />
<path d="M 224.547852 32.111328 L 230.241211 32.111328 L 230.241211 33.019043 L 224.547852 33.019043 Z " fill="rgb(255, 255, 255)" fill-opacity="1.000000" />
<path d="M 231.547852 32.111328 L 237.241211 32.111328 L 237.241211 33.019043 L 231.547852 33.019043 Z " fill="rgb(255, 255, 255)" fill-opacity="1.000000" />
<path d="M 238.547852 32.111328 L 244.241211 32.111328 L 244.241211 33.019043 L 238.547852 33.019043 Z " fill="rgb(255, 255, 255)" fill-opacity="1.000000" />
<path d="M 245.547852 32.111328 L 251.241211 32.111328 L 251.241211 33.019043 L 245.547852 33.019043 Z " fill="rgb(255, 255, 255)" fill-opacity="1.000000" />
<path d="M 252.547852 32.111328 L 258.241211 32.111328 L 258.241211 33.019043 L 252.547852 33.019043 Z " fill="rgb(255, 255, 255)" fill-opacity="1.000000" />
<path d="M 259.547852 32.111328 L 265.241211 32.111328 L 265.241211 33.019043 L 259.547852 33.019043 Z " fill="rgb(255, 255, 255)" fill-opacity="1.000000" />
<path d="M 269.867188 29.672852 L 269.867188 32.052246 L 272.257324 32.052246 L 272.257324 32.959961 L 269.867188 32.959961 L 269.867188 35.339355 L 268.964844 35.339355 L 268.964844 32.959961 L 266.580078 32.959961 L 266.580078 32.052246 L 268.964844 32.052246 L 268.964844 29.672852 Z " fill="rgb(255, 255, 255)" fill-opacity="1.000000" />
<path d="M 274.573730 27.980957 L 278.795410 37.020508 L 277.774902 37.020508 L 273.547852 27.980957 Z " fill="rgb(101, 101, 101)" fill-opacity="1.000000" />
<path d="M 80.985352 14.594238 L 80.985352 25.594238 L 80.061523 25.594238 L 80.061523 14.594238 Z " fill="rgb(255, 255, 255)" fill-opacity="1.000000" />
<path d="M 136.985352 14.594238 L 136.985352 25.594238 L 136.061523 25.594238 L 136.061523 14.594238 Z " fill="rgb(255, 255, 255)" fill-opacity="1.000000" />
<path d="M 178.023926 14.105469 L 180.301270 14.105469 L 180.301270 14.873535 L 179.012207 14.873535 L 179.012207 23.145020 L 180.301270 23.145020 L 180.301270 23.913086 L 178.023926 23.913086 Z " fill="rgb(255, 255, 255)" fill-opacity="1.000000" />
<path d="M 182.000000 14.980957 L 183.058105 14.980957 L 183.826172 21.490723 L 184.739258 17.183105 L 185.872559 17.183105 L 186.796387 21.501465 L 187.564453 14.980957 L 188.622559 14.980957 L 187.424805 23.000000 L 186.398926 23.000000 L 185.308594 18.235840 L 184.223633 23.000000 L 183.197754 23.000000 Z " fill="rgb(255, 255, 255)" fill-opacity="1.000000" />
<path d="M 193.860840 18.998535 Q 193.860840 17.231445 193.498291 16.474121 Q 193.135742 15.716797 192.308594 15.716797 Q 191.486816 15.716797 191.124268 16.474121 Q 190.761719 17.231445 190.761719 18.998535 Q 190.761719 20.760254 191.124268 21.517578 Q 191.486816 22.274902 192.308594 22.274902 Q 193.135742 22.274902 193.498291 21.520264 Q 193.860840 20.765625 193.860840 18.998535 Z M 194.994141 18.998535 Q 194.994141 21.093262 194.330811 22.124512 Q 193.667480 23.155762 192.308594 23.155762 Q 190.949707 23.155762 190.289062 22.129883 Q 189.628418 21.104004 189.628418 18.998535 Q 189.628418 16.898438 190.291748 15.867188 Q 190.955078 14.835938 192.308594 14.835938 Q 193.667480 14.835938 194.330811 15.867188 Q 194.994141 16.898438 194.994141 18.998535 Z " fill="rgb(255, 255, 255)" fill-opacity="1.000000" />
<path d="M 200.082031 19.213379 Q 200.500977 19.320801 200.796387 19.618896 Q 201.091797 19.916992 201.532227 20.808594 L 202.622559 23.000000 L 201.457031 23.000000 L 200.500977 20.975098 Q 200.087402 20.110352 199.757080 19.860596 Q 199.426758 19.610840 198.895020 19.610840 L 197.858398 19.610840 L 197.858398 23.000000 L 196.768066 23.000000 L 196.768066 14.980957 L 199.002441 14.980957 Q 200.323730 14.980957 201.027344 15.577148 Q 201.730957 16.173340 201.730957 17.301270 Q 201.730957 18.096191 201.298584 18.598389 Q 200.866211 19.100586 200.082031 19.213379 Z M 197.858398 15.872559 L 197.858398 18.719238 L 199.045410 18.719238 Q 199.824219 18.719238 200.205566 18.370117 Q 200.586914 18.020996 200.586914 17.301270 Q 200.586914 16.608398 200.181396 16.240479 Q 199.775879 15.872559 199.002441 15.872559 Z " fill="rgb(255, 255, 255)" fill-opacity="1.000000" />
<path d="M 203.735840 14.980957 L 204.826172 14.980957 L 204.826172 18.547363 L 208.215332 14.980957 L 209.488281 14.980957 L 206.367676 18.257324 L 209.579590 23.000000 L 208.269043 23.000000 L 205.653320 18.982422 L 204.826172 19.863281 L 204.826172 23.000000 L 203.735840 23.000000 Z " fill="rgb(255, 255, 255)" fill-opacity="1.000000" />
<path d="M 211.058105 14.980957 L 215.816895 14.980957 L 215.816895 15.894043 L 212.143066 15.894043 L 212.143066 18.053223 L 215.655762 18.053223 L 215.655762 18.966309 L 212.143066 18.966309 L 212.143066 22.086914 L 215.918945 22.086914 L 215.918945 23.000000 L 211.058105 23.000000 Z " fill="rgb(255, 255, 255)" fill-opacity="1.000000" />
<path d="M 221.082031 19.213379 Q 221.500977 19.320801 221.796387 19.618896 Q 222.091797 19.916992 222.532227 20.808594 L 223.622559 23.000000 L 222.457031 23.000000 L 221.500977 20.975098 Q 221.087402 20.110352 220.757080 19.860596 Q 220.426758 19.610840 219.895020 19.610840 L 218.858398 19.610840 L 218.858398 23.000000 L 217.768066 23.000000 L 217.768066 14.980957 L 220.002441 14.980957 Q 221.323730 14.980957 222.027344 15.577148 Q 222.730957 16.173340 222.730957 17.301270 Q 222.730957 18.096191 222.298584 18.598389 Q 221.866211 19.100586 221.082031 19.213379 Z M 218.858398 15.872559 L 218.858398 18.719238 L 220.045410 18.719238 Q 220.824219 18.719238 221.205566 18.370117 Q 221.586914 18.020996 221.586914 17.301270 Q 221.586914 16.608398 221.181396 16.240479 Q 220.775879 15.872559 220.002441 15.872559 Z " fill="rgb(255, 255, 255)" fill-opacity="1.000000" />
<path d="M 227.867188 14.105469 L 227.867188 23.913086 L 225.589844 23.913086 L 225.589844 23.145020 L 226.878906 23.145020 L 226.878906 14.873535 L 225.589844 14.873535 L 225.589844 14.105469 Z " fill="rgb(255, 255, 255)" fill-opacity="1.000000" />
<path d="M 269.985352 14.594238 L 269.985352 25.594238 L 269.061523 25.594238 L 269.061523 14.594238 Z " fill="rgb(255, 255, 255)" fill-opacity="1.000000" />
<path d="M 274.573730 14.980957 L 278.795410 24.020508 L 277.774902 24.020508 L 273.547852 14.980957 Z " fill="rgb(101, 101, 101)" fill-opacity="1.000000" />
<path d="M 7.547852 6.111328 L 13.241211 6.111328 L 13.241211 7.019043 L 7.547852 7.019043 Z " fill="rgb(255, 255, 255)" fill-opacity="1.000000" />
<path d="M 14.547852 6.111328 L 20.241211 6.111328 L 20.241211 7.019043 L 14.547852 7.019043 Z " fill="rgb(255, 255, 255)" fill-opacity="1.000000" />
<path d="M 21.547852 6.111328 L 27.241211 6.111328 L 27.241211 7.019043 L 21.547852 7.019043 Z " fill="rgb(255, 255, 255)" fill-opacity="1.000000" />
<path d="M 28.547852 6.111328 L 34.241211 6.111328 L 34.241211 7.019043 L 28.547852 7.019043 Z " fill="rgb(255, 255, 255)" fill-opacity="1.000000" />
<path d="M 35.547852 6.111328 L 41.241211 6.111328 L 41.241211 7.019043 L 35.547852 7.019043 Z " fill="rgb(255, 255, 255)" fill-opacity="1.000000" />
<path d="M 42.547852 6.111328 L 48.241211 6.111328 L 48.241211 7.019043 L 42.547852 7.019043 Z " fill="rgb(255, 255, 255)" fill-opacity="1.000000" />
<path d="M 49.547852 6.111328 L 55.241211 6.111328 L 55.241211 7.019043 L 49.547852 7.019043 Z " fill="rgb(255, 255, 255)" fill-opacity="1.000000" />
<path d="M 56.547852 6.111328 L 62.241211 6.111328 L 62.241211 7.019043 L 56.547852 7.019043 Z " fill="rgb(255, 255, 255)" fill-opacity="1.000000" />
<path d="M 63.547852 6.111328 L 69.241211 6.111328 L 69.241211 7.019043 L 63.547852 7.019043 Z " fill="rgb(255, 255, 255)" fill-opacity="1.000000" />
<path d="M 70.547852 6.111328 L 76.241211 6.111328 L 76.241211 7.019043 L 70.547852 7.019043 Z " fill="rgb(255, 255, 255)" fill-opacity="1.000000" />
<path d="M 80.867188 3.672852 L 80.867188 6.052246 L 83.257324 6.052246 L 83.257324 6.959961 L 80.867188 6.959961 L 80.867188 9.339355 L 79.964844 9.339355 L 79.964844 6.959961 L 77.580078 6.959961 L 77.580078 6.052246 L 79.964844 6.052246 L 79.964844 3.672852 Z " fill="rgb(255, 255, 255)" fill-opacity="1.000000" />
<path d="M 84.547852 6.111328 L 90.241211 6.111328 L 90.241211 7.019043 L 84.547852 7.019043 Z " fill="rgb(255, 255, 255)" fill-opacity="1.000000" />
<path d="M 91.547852 6.111328 L 97.241211 6.111328 L 97.241211 7.019043 L 91.547852 7.019043 Z " fill="rgb(255, 255, 255)" fill-opacity="1.000000" />
<path d="M 98.547852 6.111328 L 104.241211 6.111328 L 104.241211 7.019043 L 98.547852 7.019043 Z " fill="rgb(255, 255, 255)" fill-opacity="1.000000" />
<path d="M 105.547852 6.111328 L 111.241211 6.111328 L 111.241211 7.019043 L 105.547852 7.019043 Z " fill="rgb(255, 255, 255)" fill-opacity="1.000000" />
<path d="M 112.547852 6.111328 L 118.241211 6.111328 L 118.241211 7.019043 L 112.547852 7.019043 Z " fill="rgb(255, 255, 255)" fill-opacity="1.000000" />
<path d="M 119.547852 6.111328 L 125.241211 6.111328 L 125.241211 7.019043 L 119.547852 7.019043 Z " fill="rgb(255, 255, 255)" fill-opacity="1.000000" />
<path d="M 126.547852 6.111328 L 132.241211 6.111328 L 132.241211 7.019043 L 126.547852 7.019043 Z " fill="rgb(255, 255, 255)" fill-opacity="1.000000" />
<path d="M 136.867188 3.672852 L 136.867188 6.052246 L 139.257324 6.052246 L 139.257324 6.959961 L 136.867188 6.959961 L 136.867188 9.339355 L 135.964844 9.339355 L 135.964844 6.959961 L 133.580078 6.959961 L 133.580078 6.052246 L 135.964844 6.052246 L 135.964844 3.672852 Z " fill="rgb(255, 255, 255)" fill-opacity="1.000000" />
<path d="M 140.547852 6.111328 L 146.241211 6.111328 L 146.241211 7.019043 L 140.547852 7.019043 Z " fill="rgb(255, 255, 255)" fill-opacity="1.000000" />
<path d="M 147.547852 6.111328 L 153.241211 6.111328 L 153.241211 7.019043 L 147.547852 7.019043 Z " fill="rgb(255, 255, 255)" fill-opacity="1.000000" />
<path d="M 154.547852 6.111328 L 160.241211 6.111328 L 160.241211 7.019043 L 154.547852 7.019043 Z " fill="rgb(255, 255, 255)" fill-opacity="1.000000" />
<path d="M 161.547852 6.111328 L 167.241211 6.111328 L 167.241211 7.019043 L 161.547852 7.019043 Z " fill="rgb(255, 255, 255)" fill-opacity="1.000000" />
<path d="M 168.547852 6.111328 L 174.241211 6.111328 L 174.241211 7.019043 L 168.547852 7.019043 Z " fill="rgb(255, 255, 255)" fill-opacity="1.000000" />
<path d="M 175.547852 6.111328 L 181.241211 6.111328 L 181.241211 7.019043 L 175.547852 7.019043 Z " fill="rgb(255, 255, 255)" fill-opacity="1.000000" />
<path d="M 182.547852 6.111328 L 188.241211 6.111328 L 188.241211 7.019043 L 182.547852 7.019043 Z " fill="rgb(255, 255, 255)" fill-opacity="1.000000" />
<path d="M 189.547852 6.111328 L 195.241211 6.111328 L 195.241211 7.019043 L 189.547852 7.019043 Z " fill="rgb(255, 255, 255)" fill-opacity="1.000000" />
<path d="M 196.547852 6.111328 L 202.241211 6.111328 L 202.241211 7.019043 L 196.547852 7.019043 Z " fill="rgb(255, 255, 255)" fill-opacity="1.000000" />
<path d="M 203.547852 6.111328 L 209.241211 6.111328 L 209.241211 7.019043 L 203.547852 7.019043 Z " fill="rgb(255, 255, 255)" fill-opacity="1.000000" />
<path d="M 210.547852 6.111328 L 216.241211 6.111328 L 216.241211 7.019043 L 210.547852 7.019043 Z " fill="rgb(255, 255, 255)" fill-opacity="1.000000" />
<path d="M 217.547852 6.111328 L 223.241211 6.111328 L 223.241211 7.019043 L 217.547852 7.019043 Z " fill="rgb(255, 255, 255)" fill-opacity="1.000000" />
<path d="M 224.547852 6.111328 L 230.241211 6.111328 L 230.241211 7.019043 L 224.547852 7.019043 Z " fill="rgb(255, 255, 255)" fill-opacity="1.000000" />
<path d="M 231.547852 6.111328 L 237.241211 6.111328 L 237.241211 7.019043 L 231.547852 7.019043 Z " fill="rgb(255, 255, 255)" fill-opacity="1.000000" />
<path d="M 238.547852 6.111328 L 244.241211 6.111328 L 244.241211 7.019043 L 238.547852 7.019043 Z " fill="rgb(255, 255, 255)" fill-opacity="1.000000" />
<path d="M 245.547852 6.111328 L 251.241211 6.111328 L 251.241211 7.019043 L 245.547852 7.019043 Z " fill="rgb(255, 255, 255)" fill-opacity="1.000000" />
<path d="M 252.547852 6.111328 L 258.241211 6.111328 L 258.241211 7.019043 L 252.547852 7.019043 Z " fill="rgb(255, 255, 255)" fill-opacity="1.000000" />
<path d="M 259.547852 6.111328 L 265.241211 6.111328 L 265.241211 7.019043 L 259.547852 7.019043 Z " fill="rgb(255, 255, 255)" fill-opacity="1.000000" />
<path d="M 269.867188 3.672852 L 269.867188 6.052246 L 272.257324 6.052246 L 272.257324 6.959961 L 269.867188 6.959961 L 269.867188 9.339355 L 268.964844 9.339355 L 268.964844 6.959961 L 266.580078 6.959961 L 266.580078 6.052246 L 268.964844 6.052246 L 268.964844 3.672852 Z " fill="rgb(255, 255, 255)" fill-opacity="1.000000" />
</svg>