<svg xmlns="http://www.w3.org/2000/svg" version="1.1" width="281" height="79">
<path d="M 3.867188 3.672852 L 3.867188 6.052246 L 6.257324 6.052246 L 6.257324 6.959961 L 3.867188 6.959961 L 3.867188 9.339355 L 2.964844 9.339355 L 2.964844 6.959961 L 0.580078 6.959961 L 0.580078 6.052246 L 2.964844 6.052246 L 2.964844 3.672852 Z " fill="rgb(255, 255, 255)" fill-opacity="1.000000" />
<path d="M 3.985352 14.594238 L 3.985352 25.594238 L 3.061523 25.594238 L 3.061523 14.594238 Z " fill="rgb(255, 255, 255)" fill-opacity="1.000000" />
<path d="M 3.985352 27.594238 L 3.985352 38.594238 L 3.061523 38.594238 L 3.061523 27.594238 Z " fill="rgb(255, 255, 255)" fill-opacity="1.000000" />
<path d="M 3.985352 40.594238 L 3.985352 51.594238 L 3.061523 51.594238 L 3.061523 40.594238 Z " fill="rgb(255, 255, 255)" fill-opacity="1.000000" />
<path d="M 3.867188 55.672852 L 3.867188 58.052246 L 6.257324 58.052246 L 6.257324 58.959961 L 3.867188 58.959961 L 3.867188 61.339355 L 2.964844 61.339355 L 2.964844 58.959961 L 0.580078 58.959961 L 0.580078 58.052246 L 2.964844 58.052246 L 2.964844 55.672852 Z " fill="rgb(255, 255, 255)" fill-opacity="1.000000" />
<path d="M 8.573730 66.980957 L 12.795410 76.020508 L 11.774902 76.020508 L 7.547852 66.980957 Z " fill="rgb(101, 101, 101)" fill-opacity="1.000000" />
<path d="M 15.573730 66.980957 L 19.795410 76.020508 L 18.774902 76.020508 L 14.547852 66.980957 Z " fill="rgb(101, 101, 101)" fill-opacity="1.000000" />
<path d="M 22.573730 66.980957 L 26.795410 76.020508 L 25.774902 76.020508 L 21.547852 66.980957 Z " fill="rgb(101, 101, 101)" fill-opacity="1.000000" />
<path d="M 29.573730 66.980957 L 33.795410 76.020508 L 32.774902 76.020508 L 28.547852 66.980957 Z " fill="rgb(101, 101, 101)" fill-opacity="1.000000" />
<path d="M 36.573730 66.980957 L 40.795410 76.020508 L 39.774902 76.020508 L 35.547852 66.980957 Z " fill="rgb(101, 101, 101)" fill-opacity="1.000000" />
<path d="M 43.573730 66.980957 L 47.795410 76.020508 L 46.774902 76.020508 L 42.547852 66.980957 Z " fill="rgb(101, 101, 101)" fill-opacity="1.000000" />
<path d="M 50.573730 66.980957 L 54.795410 76.020508 L 53.774902 76.020508 L 49.547852 66.980957 Z " fill="rgb(101, 101, 101)" fill-opacity="1.000000" />
<path d="M 57.573730 66.980957 L 61.795410 76.020508 L 60.774902 76.020508 L 56.547852 66.980957 Z " fill="rgb(101, 101, 101)" fill-opacity="1.000000" />
<path d="M 64.573730 66.980957 L 68.795410 76.020508 L 67.774902 76.020508 L 63.547852 66.980957 Z " fill="rgb(101, 101, 101)" fill-opacity="1.000000" />
<path d="M 71.573730 66.980957 L 75.795410 76.020508 L 74.774902 76.020508 L 70.547852 66.980957 Z " fill="rgb(101, 101, 101)" fill-opacity="1.000000" />
<path d="M 78.573730 66.980957 L 82.795410 76.020508 L 81.774902 76.020508 L 77.547852 66.980957 Z " fill="rgb(101, 101, 101)" fill-opacity="1.000000" />
<path d="M 85.573730 66.980957 L 89.795410 76.020508 L 88.774902 76.020508 L 84.547852 66.980957 Z " fill="rgb(101, 101, 101)" fill-opacity="1.000000" />
<path d="M 92.573730 66.980957 L 96.795410 76.020508 L 95.774902 76.020508 L 91.547852 66.980957 Z " fill="rgb(101, 101, 101)" fill-opacity="1.000000" />
<path d="M 99.573730 66.980957 L 103.795410 76.020508 L 102.774902 76.020508 L 98.547852 66.980957 Z " fill="rgb(101, 101, 101)" fill-opacity="1.000000" />
<path d="M 106.573730 66.980957 L 110.795410 76.020508 L 109.774902 76.020508 L 105.547852 66.980957 Z " fill="rgb(101, 101, 101)" fill-opacity="1.000000" />
<path d="M 113.573730 66.980957 L 117.795410 76.020508 L 116.774902 76.020508 L 112.547852 66.980957 Z " fill="rgb(101, 101, 101)" fill-opacity="1.000000" />
<path d="M 120.573730 66.980957 L 124.795410 76.020508 L 123.774902 76.020508 L 119.547852 66.980957 Z " fill="rgb(101, 101, 101)" fill-opacity="1.000000" />
<path d="M 127.573730 66.980957 L 131.795410 76.020508 L 130.774902 76.020508 L 126.547852 66.980957 Z " fill="rgb(101, 101, 101)" fill-opacity="1.000000" />
<path d="M 134.573730 66.980957 L 138.795410 76.020508 L 137.774902 76.020508 L 133.547852 66.980957 Z " fill="rgb(101, 101, 101)" fill-opacity="1.000000" />
<path d="M 141.573730 66.980957 L 145.795410 76.020508 L 144.774902 76.020508 L 140.547852 66.980957 Z " fill="rgb(101, 101, 101)" fill-opacity="1.000000" />
<path d="M 148.573730 66.980957 L 152.795410 76.020508 L 151.774902 76.020508 L 147.547852 66.980957 Z " fill="rgb(101, 101, 101)" fill-opacity="1.000000" />
<path d="M 155.573730 66.980957 L 159.795410 76.020508 L 158.774902 76.020508 L 154.547852 66.980957 Z " fill="rgb(101, 101, 101)" fill-opacity="1.000000" />
<path d="M 162.573730 66.980957 L 166.795410 76.020508 L 165.774902 76.020508 L 161.547852 66.980957 Z " fill="rgb(101, 101, 101)" fill-opacity="1.000000" />
<path d="M 169.573730 66.980957 L 173.795410 76.020508 L 172.774902 76.020508 L 168.547852 66.980957 Z " fill="rgb(101, 101, 101)" fill-opacity="1.000000" />
<path d="M 176.573730 66.980957 L 180.795410 76.020508 L 179.774902 76.020508 L 175.547852 66.980957 Z " fill="rgb(101, 101, 101)" fill-opacity="1.000000" />
<path d="M 183.573730 66.980957 L 187.795410 76.020508 L 186.774902 76.020508 L 182.547852 66.980957 Z " fill="rgb(101, 101, 101)" fill-opacity="1.000000" />
<path d="M 190.573730 66.980957 L 194.795410 76.020508 L 193.774902 76.020508 L 189.547852 66.980957 Z " fill="rgb(101, 101, 101)" fill-opacity="1.000000" />
<path d="M 197.573730 66.980957 L 201.795410 76.020508 L 200.774902 76.020508 L 196.547852 66.980957 Z " fill="rgb(101, 101, 101)" fill-opacity="1.000000" />
<path d="M 204.573730 66.980957 L 208.795410 76.020508 L 207.774902 76.020508 L 203.547852 66.980957 Z " fill="rgb(101, 101, 101)" fill-opacity="1.000000" />
<path d="M 211.573730 66.980957 L 215.795410 76.020508 L 214.774902 76.020508 L 210.547852 66.980957 Z " fill="rgb(101, 101, 101)" fill-opacity="1.000000" />
<path d="M 218.573730 66.980957 L 222.795410 76.020508 L 221.774902 76.020508 L 217.547852 66.980957 Z " fill="rgb(101, 101, 101)" fill-opacity="1.000000" />
<path d="M 225.573730 66.980957 L 229.795410 76.020508 L 228.774902 76.020508 L 224.547852 66.980957 Z " fill="rgb(101, 101, 101)" fill-opacity="1.000000" />
<path d="M 232.573730 66.980957 L 236.795410 76.020508 L 235.774902 76.020508 L 231.547852 66.980957 Z " fill="rgb(101, 101, 101)" fill-opacity="1.000000" />
<path d="M 239.573730 66.980957 L 243.795410 76.020508 L 242.774902 76.020508 L 238.547852 66.980957 Z " fill="rgb(101, 101, 101)" fill-opacity="1.000000" />
<path d="M 246.573730 66.980957 L 250.795410 76.020508 L 249.774902 76.020508 L 245.547852 66.980957 Z " fill="rgb(101, 101, 101)" fill-opacity="1.000000" />
<path d="M 253.573730 66.980957 L 257.795410 76.020508 L 256.774902 76.020508 L 252.547852 66.980957 Z " fill="rgb(101, 101, 101)" fill-opacity="1.000000" />
<path d="M 260.573730 66.980957 L 264.795410 76.020508 L 263.774902 76.020508 L 259.547852 66.980957 Z " fill="rgb(101, 101, 101)" fill-opacity="1.000000" />
<path d="M 267.573730 66.980957 L 271.795410 76.020508 L 270.774902 76.020508 L 266.547852 66.980957 Z " fill="rgb(101, 101, 101)" fill-opacity="1.000000" />
<path d="M 274.573730 66.980957 L 278.795410 76.020508 L 277.774902 76.020508 L 273.547852 66.980957 Z " fill="rgb(101, 101, 101)" fill-opacity="1.000000" />
<path d="M 7.547852 58.111328 L 13.241211 58.111328 L 13.241211 59.019043 L 7.547852 59.019043 Z " fill="rgb(255, 255, 255)" fill-opacity="1.000000" />
<path d="M 14.547852 58.111328 L 20.241211 58.111328 L 20.241211 59.019043 L 14.547852 59.019043 Z " fill="rgb(255, 255, 255)" fill-opacity="1.000000" />
<path d="M 21.547852 58.111328 L 27.241211 58.111328 L 27.241211 59.019043 L 21.547852 59.019043 Z " fill="rgb(255, 255, 255)" fill-opacity="1.000000" />
<path d="M 28.547852 58.111328 L 34.241211 58.111328 L 34.241211 59.019043 L 28.547852 59.019043 Z " fill="rgb(255, 255, 255)" fill-opacity="1.000000" />
<path d="M 35.547852 58.111328 L 41.241211 58.111328 L 41.241211 59.019043 L 35.547852 59.019043 Z " fill="rgb(255, 255, 255)" fill-opacity="1.000000" />
<path d="M 42.547852 58.111328 L 48.241211 58.111328 L 48.241211 59.019043 L 42.547852 59.019043 Z " fill="rgb(255, 255, 255)" fill-opacity="1.000000" />
<path d="M 49.547852 58.111328 L 55.241211 58.111328 L 55.241211 59.019043 L 49.547852 59.019043 Z " fill="rgb(255, 255, 255)" fill-opacity="1.000000" />
<path d="M 56.547852 58.111328 L 62.241211 58.111328 L 62.241211 59.019043 L 56.547852 59.019043 Z " fill="rgb(255, 255, 255)" fill-opacity="1.000000" />
<path d="M 63.547852 58.111328 L 69.241211 58.111328 L 69.241211 59.019043 L 63.547852 59.019043 Z " fill="rgb(255, 255, 255)" fill-opacity="1.000000" />
<path d="M 70.547852 58.111328 L 76.241211 58.111328 L 76.241211 59.019043 L 70.547852 59.019043 Z " fill="rgb(255, 255, 255)" fill-opacity="1.000000" />
<path d="M 77.547852 58.111328 L 83.241211 58.111328 L 83.241211 59.019043 L 77.547852 59.019043 Z " fill="rgb(255, 255, 255)" fill-opacity="1.000000" />
<path d="M 84.547852 58.111328 L 90.241211 58.111328 L 90.241211 59.019043 L 84.547852 59.019043 Z " fill="rgb(255, 255, 255)" fill-opacity="1.000000" />
<path d="M 91.547852 58.111328 L 97.241211 58.111328 L 97.241211 59.019043 L 91.547852 59.019043 Z " fill="rgb(255, 255, 255)" fill-opacity="1.000000" />
<path d="M 98.547852 58.111328 L 104.241211 58.111328 L 104.241211 59.019043 L 98.547852 59.019043 Z " fill="rgb(255, 255, 255)" fill-opacity="1.000000" />
<path d="M 105.547852 58.111328 L 111.241211 58.111328 L 111.241211 59.019043 L 105.547852 59.019043 Z " fill="rgb(255, 255, 255)" fill-opacity="1.000000" />
<path d="M 112.547852 58.111328 L 118.241211 58.111328 L 118.241211 59.019043 L 112.547852 59.019043 Z " fill="rgb(255, 255, 255)" fill-opacity="1.000000" />
<path d="M 119.547852 58.111328 L 125.241211 58.111328 L 125.241211 59.019043 L 119.547852 59.019043 Z " fill="rgb(255, 255, 255)" fill-opacity="1.000000" />
<path d="M 126.547852 58.111328 L 132.241211 58.111328 L 132.241211 59.019043 L 126.547852 59.019043 Z " fill="rgb(255, 255, 255)" fill-opacity="1.000000" />
<path d="M 133.547852 58.111328 L 139.241211 58.111328 L 139.241211 59.019043 L 133.547852 59.019043 Z " fill="rgb(255, 255, 255)" fill-opacity="1.000000" />
<path d="M 140.547852 58.111328 L 146.241211 58.111328 L 146.241211 59.019043 L 140.547852 59.019043 Z " fill="rgb(255, 255, 255)" fill-opacity="1.000000" />
<path d="M 147.547852 58.111328 L 153.241211 58.111328 L 153.241211 59.019043 L 147.547852 59.019043 Z " fill="rgb(255, 255, 255)" fill-opacity="1.000000" />
<path d="M 154.547852 58.111328 L 160.241211 58.111328 L 160.241211 59.019043 L 154.547852 59.019043 Z " fill="rgb(255, 255, 255)" fill-opacity="1.000000" />
<path d="M 161.547852 58.111328 L 167.241211 58.111328 L 167.241211 59.019043 L 161.547852 59.019043 Z " fill="rgb(255, 255, 255)" fill-opacity="1.000000" />
<path d="M 168.547852 58.111328 L 174.241211 58.111328 L 174.241211 59.019043 L 168.547852 59.019043 Z " fill="rgb(255, 255, 255)" fill-opacity="1.000000" />
<path d="M 175.547852 58.111328 L 181.241211 58.111328 L 181.241211 59.019043 L 175.547852 59.019043 Z " fill="rgb(255, 255, 255)" fill-opacity="1.000000" />
<path d="M 182.547852 58.111328 L 188.241211 58.111328 L 188.241211 59.019043 L 182.547852 59.019043 Z " fill="rgb(255, 255, 255)" fill-opacity="1.000000" />
<path d="M 189.547852 58.111328 L 195.241211 58.111328 L 195.241211 59.019043 L 189.547852 59.019043 Z " fill="rgb(255, 255, 255)" fill-opacity="1.000000" />
<path d="M 196.547852 58.111328 L 202.241211 58.111328 L 202.241211 59.019043 L 196.547852 59.019043 Z " fill="rgb(255, 255, 255)" fill-opacity="1.000000" />
<path d="M 203.547852 58.111328 L 209.241211 58.111328 L 209.241211 59.019043 L 203.547852 59.019043 Z " fill="rgb(255, 255, 255)" fill-opacity="1.000000" />
<path d="M 210.547852 58.111328 L 216.241211 58.111328 L 216.241211 59.019043 L 210.547852 59.019043 Z " fill="rgb(255, 255, 255)" fill-opacity="1.000000" />
<path d="M 217.547852 58.111328 L 223.241211 58.111328 L 223.241211 59.019043 L 217.547852 59.019043 Z " fill="rgb(255, 255, 255)" fill-opacity="1.000000" />
<path d="M 224.547852 58.111328 L 230.241211 58.111328 L 230.241211 59.019043 L 224.547852 59.019043 Z " fill="rgb(255, 255, 255)" fill-opacity="1.000000" />
<path d="M 231.547852 58.111328 L 237.241211 58.111328 L 237.241211 59.019043 L 231.547852 59.019043 Z " fill="rgb(255, 255, 255)" fill-opacity="1.000000" />
<path d="M 238.547852 58.111328 L 244.241211 58.111328 L 244.241211 59.019043 L 238.547852 59.019043 Z " fill="rgb(255, 255, 255)" fill-opacity="1.000000" />
<path d="M 245.547852 58.111328 L 251.241211 58.111328 L 251.241211 59.019043 L 245.547852 59.019043 Z " fill="rgb(255, 255, 255)" fill-opacity="1.000000" />
<path d="M 252.547852 58.111328 L 258.241211 58.111328 L 258.241211 59.019043 L 252.547852 59.019043 Z " fill="rgb(255, 255, 255)" fill-opacity="1.000000" />
<path d="M 259.547852 58.111328 L 265.241211 58.111328 L 265.241211 59.019043 L 259.547852 59.019043 Z " fill="rgb(255, 255, 255)" fill-opacity="1.000000" />
<path d="M 269.867188 55.672852 L 269.867188 58.052246 L 272.257324 58.052246 L 272.257324 58.959961 L 269.867188 58.959961 L 269.867188 61.339355 L 268.964844 61.339355 L 268.964844 58.959961 L 266.580078 58.959961 L 266.580078 58.052246 L 268.964844 58.052246 L 268.964844 55.672852 Z " fill="rgb(255, 255, 255)" fill-opacity="1.000000" />
<path d="M 274.573730 53.980957 L 278.795410 63.020508 L 277.774902 63.020508 L 273.547852 53.980957 Z " fill="rgb(101, 101, 101)" fill-opacity="1.000000" />
<path d="M 115.023926 27.105469 L 117.301270 27.105469 L 117.301270 27.873535 L 116.012207 27.873535 L 116.012207 36.145020 L 117.301270 36.145020 L 117.301270 36.913086 L 115.023926 36.913086 Z " fill="rgb(255, 255, 255)" fill-opacity="1.000000" />
<path d="M 269.985352 40.594238 L 269.985352 51.594238 L 269.061523 51.594238 L 269.061523 40.594238 Z " fill="rgb(255, 255, 255)" fill-opacity="1.000000" />
<path d="M 274.573730 40.980957 L 278.795410 50.020508 L 277.774902 50.020508 L 273.547852 40.980957 Z " fill="rgb(101, 101, 101)" fill-opacity="1.000000" />
<path d="M 124.763184 35.715332 Q 124.349609 35.935547 123.914551 36.045654 Q 123.479492 36.155762 122.990723 36.155762 Q 121.449219 36.155762 120.597900 35.065430 Q 119.746582 33.975098 119.746582 31.998535 Q 119.746582 30.032715 120.603271 28.934326 Q 121.459961 27.835938 122.990723 27.835938 Q 123.479492 27.835938 123.914551 27.946045 Q 124.349609 28.056152 124.763184 28.276367 L 124.763184 29.388184 Q 124.365723 29.060547 123.909180 28.888672 Q 123.452637 28.716797 122.990723 28.716797 Q 121.932617 28.716797 121.406250 29.533203 Q 120.879883 30.349609 120.879883 31.998535 Q 120.879883 33.642090 121.406250 34.458496 Q 121.932617 35.274902 122.990723 35.274902 Q 123.463379 35.274902 123.917236 35.103027 Q 124.371094 34.931152 124.763184 34.603516 Z " fill="rgb(255, 255, 255)" fill-opacity="1.000000" />
<path d="M 129.308594 28.937012 L 128.164551 33.040527 L 130.452637 33.040527 Z M 128.653320 27.980957 L 129.969238 27.980957 L 132.423828 36.000000 L 131.301270 36.000000 L 130.710449 33.910645 L 127.901367 33.910645 L 127.321289 36.000000 L 126.198730 36.000000 Z " fill="rgb(255, 255, 255)" fill-opacity="1.000000" />
<path d="M 138.763184 35.715332 Q 138.349609 35.935547 137.914551 36.045654 Q 137.479492 36.155762 136.990723 36.155762 Q 135.449219 36.155762 134.597900 35.065430 Q 133.746582 33.975098 133.746582 31.998535 Q 133.746582 30.032715 134.603271 28.934326 Q 135.459961 27.835938 136.990723 27.835938 Q 137.479492 27.835938 137.914551 27.946045 Q 138.349609 28.056152 138.763184 28.276367 L 138.763184 29.388184 Q 138.365723 29.060547 137.909180 28.888672 Q 137.452637 28.716797 136.990723 28.716797 Q 135.932617 28.716797 135.406250 29.533203 Q 134.879883 30.349609 134.879883 31.998535 Q 134.879883 33.642090 135.406250 34.458496 Q 135.932617 35.274902 136.990723 35.274902 Q 137.463379 35.274902 137.917236 35.103027 Q 138.371094 34.931152 138.763184 34.603516 Z " fill="rgb(255, 255, 255)" fill-opacity="1.000000" />
<path d="M 140.735840 27.980957 L 141.826172 27.980957 L 141.826172 31.053223 L 144.796387 31.053223 L 144.796387 27.980957 L 145.886719 27.980957 L 145.886719 36.000000 L 144.796387 36.000000 L 144.796387 31.966309 L 141.826172 31.966309 L 141.826172 36.000000 L 140.735840 36.000000 Z " fill="rgb(255, 255, 255)" fill-opacity="1.000000" />
<path d="M 148.058105 27.980957 L 152.816895 27.980957 L 152.816895 28.894043 L 149.143066 28.894043 L 149.143066 31.053223 L 152.655762 31.053223 L 152.655762 31.966309 L 149.143066 31.966309 L 149.143066 35.086914 L 152.918945 35.086914 L 152.918945 36.000000 L 148.058105 36.000000 Z " fill="rgb(255, 255, 255)" fill-opacity="1.000000" />
<path d="M 157.867188 27.105469 L 157.867188 36.913086 L 155.589844 36.913086 L 155.589844 36.145020 L 156.878906 36.145020 L 156.878906 27.873535 L 155.589844 27.873535 L 155.589844 27.105469 Z " fill="rgb(255, 255, 255)" fill-opacity="1.000000" />
<path d="M 269.985352 27.594238 L 269.985352 38.594238 L 269.061523 38.594238 L 269.061523 27.594238 Z " fill="rgb(255, 255, 255)" fill-opacity="1.000000" />
<path d="M 274.573730 27.980957 L 278.795410 37.020508 L 277.774902 37.020508 L 273.547852 27.980957 Z " fill="rgb(101, 101, 101)" fill-opacity="1.000000" />
<path d="M 269.985352 14.594238 L 269.985352 25.594238 L 269.061523 25.594238 L 269.061523 14.594238 Z " fill="rgb(255, 255, 255)" fill-opacity="1.000000" />
<path d="M 274.573730 14.980957 L 278.795410 24.020508 L 277.774902 24.020508 L 273.547852 14.980957 Z " fill="rgb(101, 101, 101)" fill-opacity="1.000000" />
<path d="M 7.547852 6.111328 L 13.241211 6.111328 L 13.241211 7.019043 L 7.547852 7.019043 Z " fill="rgb(255, 255, 255)" fill-opacity="1.000000" />
<path d="M 14.547852 6.111328 L 20.241211 6.111328 L 20.241211 7.019043 L 14.547852 7.019043 Z " fill="rgb(255, 255, 255)" fill-opacity="1.000000" />
<path d="M 21.547852 6.111328 L 27.241211 6.111328 L 27.241211 7.019043 L 21.547852 7.019043 Z " fill="rgb(255, 255, 255)" fill-opacity="1.000000" />
<path d="M 28.547852 6.111328 L 34.241211 6.111328 L 34.241211 7.019043 L 28.547852 7.019043 Z " fill="rgb(255, 255, 255)" fill-opacity="1.000000" />
<path d="M 35.547852 6.111328 L 41.241211 6.111328 L 41.241211 7.019043 L 35.547852 7.019043 Z " fill="rgb(255, 255, 255)" fill-opacity="1.000000" />
<path d="M 42.547852 6.111328 L 48.241211 6.111328 L 48.241211 7.019043 L 42.547852 7.019043 Z " fill="rgb(255, 255, 255)" fill-opacity="1.000000" />
<path d="M 49.547852 6.111328 L 55.241211 6.111328 L 55.241211 7.019043 L 49.547852 7.019043 Z " fill="rgb(255, 255, 255)" fill-opacity="1.000000" />
<path d="M 56.547852 6.111328 L 62.241211 6.111328 L 62.241211 7.019043 L 56.547852 7.019043 Z " fill="rgb(255, 255, 255)" fill-opacity="1.000000" />
<path d="M 63.547852 6.111328 L 69.241211 6.111328 L 69.241211 7.019043 L 63.547852 7.019043 Z " fill="rgb(255, 255, 255)" fill-opacity="1.000000" />
<path d="M 70.547852 6.111328 L 76.241211 6.111328 L 76.241211 7.019043 L 70.547852 7.019043 Z " fill="rgb(255, 255, 255)" fill-opacity="1.000000" />
<path d="M 77.547852 6.111328 L 83.241211 6.111328 L 83.241211 7.019043 L 77.547852 7.019043 Z " fill="rgb(255, 255, 255)" fill-opacity="1.000000" />
<path d="M 84.547852 6.111328 L 90.241211 6.111328 L 90.241211 7.019043 L 84.547852 7.019043 Z " fill="rgb(255, 255, 255)" fill-opacity="1.000000" />
<path d="M 91.547852 6.111328 L 97.241211 6.111328 L 97.241211 7.019043 L 91.547852 7.019043 Z " fill="rgb(255, 255, 255)" fill-opacity="1.000000" />
<path d="M 98.547852 6.111328 L 104.241211 6.111328 L 104.241211 7.019043 L 98.547852 7.019043 Z " fill="rgb(255, 255, 255)" fill-opacity="1.000000" />
<path d="M 105.547852 6.111328 L 111.241211 6.111328 L 111.241211 7.019043 L 105.547852 7.019043 Z " fill="rgb(255, 255, 255)" fill-opacity="1.000000" />
<path d="M 112.547852 6.111328 L 118.241211 6.111328 L 118.241211 7.019043 L 112.547852 7.019043 Z " fill="rgb(255, 255, 255)" fill-opacity="1.000000" />
<path d="M 119.547852 6.111328 L 125.241211 6.111328 L 125.241211 7.019043 L 119.547852 7.019043 Z " fill="rgb(255, 255, 255)" fill-opacity="1.000000" />
<path d="M 126.547852 6.111328 L 132.241211 6.111328 L 132.241211 7.019043 L 126.547852 7.019043 Z " fill="rgb(255, 255, 255)" fill-opacity="1.000000" />
<path d="M 133.547852 6.111328 L 139.241211 6.111328 L 139.241211 7.019043 L 133.547852 7.019043 Z " fill="rgb(255, 255, 255)" fill-opacity="1.000000" />
<path d="M 140.547852 6.111328 L 146.241211 6.111328 L 146.241211 7.019043 L 140.547852 7.019043 Z " fill="rgb(255, 255, 255)" fill-opacity="1.000000" />
<path d="M 147.547852 6.111328 L 153.241211 6.111328 L 153.241211 7.019043 L 147.547852 7.019043 Z " fill="rgb(255, 255, 255)" fill-opacity="1.000000" />
<path d="M 154.547852 6.111328 L 160.241211 6.111328 L 160.241211 7.019043 L 154.547852 7.019043 Z " fill="rgb(255, 255, 255)" fill-opacity="1.000000" />
<path d="M 161.547852 6.111328 L 167.241211 6.111328 L 167.241211 7.019043 L 161.547852 7.019043 Z " fill="rgb(255, 255, 255)" fill-opacity="1.000000" />
<path d="M 168.547852 6.111328 L 174.241211 6.111328 L 174.241211 7.019043 L 168.547852 7.019043 Z " fill="rgb(255, 255, 255)" fill-opacity="1.000000" />
<path d="M 175.547852 6.111328 L 181.241211 6.111328 L 181.241211 7.019043 L 175.547852 7.019043 Z " fill="rgb(255, 255, 255)" fill-opacity="1.000000" />
<path d="M 182.547852 6.111328 L 188.241211 6.111328 L 188.241211 7.019043 L 182.547852 7.019043 Z " fill="rgb(255, 255, 255)" fill-opacity="1.000000" />
<path d="M 189.547852 6.111328 L 195.241211 6.111328 L 195.241211 7.019043 L 189.547852 7.019043 Z " fill="rgb(255, 255, 255)" fill-opacity="1.000000" />
<path d="M 196.547852 6.111328 L 202.241211 6.111328 L 202.241211 7.019043 L 196.547852 7.019043 Z " fill="rgb(255, 255, 255)" fill-opacity="1.000000" />
<path d="M 203.547852 6.111328 L 209.241211 6.111328 L 209.241211 7.019043 L 203.547852 7.019043 Z " fill="rgb(255, 255, 255)" fill-opacity="1.000000" />
<path d="M 210.547852 6.111328 L 216.241211 6.111328 L 216.241211 7.019043 L 210.547852 7.019043 Z " fill="rgb(255, 255, 255)" fill-opacity="1.000000" />
<path d="M 217.547852 6.111328 L 223.241211 6.111328 L 223.241211 7.019043 L 217.547852 7.019043 Z " fill="rgb(255, 255, 255)" fill-opacity="1.000000" />
<path d="M 224.547852 6.111328 L 230.241211 6.111328 L 230.241211 7.019043 L 224.547852 7.019043 Z " fill="rgb(255, 255, 255)" fill-opacity="1.000000" />
<path d="M 231.547852 6.111328 L 237.241211 6.111328 L 237.241211 7.019043 L 231.547852 7.019043 Z " fill="rgb(255, 255, 255)" fill-opacity="1.000000" />
<path d="M 238.547852 6.111328 L 244.241211 6.111328 L 244.241211 7.019043 L 238.547852 7.019043 Z " fill="rgb(255, 255, 255)" fill-opacity="1.000000" />
<path d="M 245.547852 6.111328 L 251.241211 6.111328 L 251.241211 7.019043 L 245.547852 7.019043 Z " fill="rgb(255, 255, 255)" fill-opacity="1.000000" />
<path d="M 252.547852 6.111328 L 258.241211 6.111328 L 258.241211 7.019043 L 252.547852 7.019043 Z " fill="rgb(255, 255, 255)" fill-opacity="1.000000" />
<path d="M 259.547852 6.111328 L 265.241211 6.111328 L 265.241211 7.019043 L 259.547852 7.019043 Z " fill="rgb(255, 255, 255)" fill-opacity="1.000000" />
<path d="M 269.867188 3.672852 L 269.867188 6.052246 L 272.257324 6.052246 L 272.257324 6.959961 L 269.867188 6.959961 L 269.867188 9.339355 L 268.964844 9.339355 L 268.964844 6.959961 L 266.580078 6.959961 L 266.580078 6.052246 L 268.964844 6.052246 L 268.964844 3.672852 Z " fill="rgb(255, 255, 255)" fill-opacity="1.000000" />
</svg>