<svg xmlns="http://www.w3.org/2000/svg" version="1.1" width="281" height="79">
<path d="M 3.867188 3.672852 L 3.867188 6.052246 L 6.257324 6.052246 L 6.257324 6.959961 L 3.867188 6.959961 L 3.867188 9.339355 L 2.964844 9.339355 L 2.964844 6.959961 L 0.580078 6.959961 L 0.580078 6.052246 L 2.964844 6.052246 L 2.964844 3.672852 Z " fill="rgb(255, 255, 255)" fill-opacity="1.000000" />
<path d="M 3.985352 14.594238 L 3.985352 25.594238 L 3.061523 25.594238 L 3.061523 14.594238 Z " fill="rgb(255, 255, 255)" fill-opacity="1.000000" />
<path d="M 3.867188 29.672852 L 3.867188 32.052246 L 6.257324 32.052246 L 6.257324 32.959961 L 3.867188 32.959961 L 3.867188 35.339355 L 2.964844 35.339355 L 2.964844 32.959961 L 0.580078 32.959961 L 0.580078 32.052246 L 2.964844 32.052246 L 2.964844 29.672852 Z " fill="rgb(255, 255, 255)" fill-opacity="1.000000" />
<path d="M 3.985352 40.594238 L 3.985352 51.594238 L 3.061523 51.594238 L 3.061523 40.594238 Z " fill="rgb(255, 255, 255)" fill-opacity="1.000000" />
<path d="M 3.867188 55.672852 L 3.867188 58.052246 L 6.257324 58.052246 L 6.257324 58.959961 L 3.867188 58.959961 L 3.867188 61.339355 L 2.964844 61.339355 L 2.964844 58.959961 L 0.580078 58.959961 L 0.580078 58.052246 L 2.964844 58.052246 L 2.964844 55.672852 Z " fill="rgb(255, 255, 255)" fill-opacity="1.000000" />
<path d="M 8.573730 66.980957 L 12.795410 76.020508 L 11.774902 76.020508 L 7.547852 66.980957 Z " fill="rgb(101, 101, 101)" fill-opacity="1.000000" />
<path d="M 15.573730 66.980957 L 19.795410 76.020508 L 18.774902 76.020508 L 14.547852 66.980957 Z " fill="rgb(101, 101, 101)" fill-opacity="1.000000" />
<path d="M 22.573730 66.980957 L 26.795410 76.020508 L 25.774902 76.020508 L 21.547852 66.980957 Z " fill="rgb(101, 101, 101)" fill-opacity="1.000000" />
<path d="M 29.573730 66.980957 L 33.795410 76.020508 L 32.774902 76.020508 L 28.547852 66.980957 Z " fill="rgb(101, 101, 101)" fill-opacity="1.000000" />
<path d="M 36.573730 66.980957 L 40.795410 76.020508 L 39.774902 76.020508 L 35.547852 66.980957 Z " fill="rgb(101, 101, 101)" fill-opacity="1.000000" />
<path d="M 43.573730 66.980957 L 47.795410 76.020508 L 46.774902 76.020508 L 42.547852 66.980957 Z " fill="rgb(101, 101, 101)" fill-opacity="1.000000" />
<path d="M 50.573730 66.980957 L 54.795410 76.020508 L 53.774902 76.020508 L 49.547852 66.980957 Z " fill="rgb(101, 101, 101)" fill-opacity="1.000000" />
<path d="M 57.573730 66.980957 L 61.795410 76.020508 L 60.774902 76.020508 L 56.547852 66.980957 Z " fill="rgb(101, 101, 101)" fill-opacity="1.000000" />
<path d="M 64.573730 66.980957 L 68.795410 76.020508 L 67.774902 76.020508 L 63.547852 66.980957 Z " fill="rgb(101, 101, 101)" fill-opacity="1.000000" />
<path d="M 71.573730 66.980957 L 75.795410 76.020508 L 74.774902 76.020508 L 70.547852 66.980957 Z " fill="rgb(101, 101, 101)" fill-opacity="1.000000" />
<path d="M 78.573730 66.980957 L 82.795410 76.020508 L 81.774902 76.020508 L 77.547852 66.980957 Z " fill="rgb(101, 101, 101)" fill-opacity="1.000000" />
<path d="M 85.573730 66.980957 L 89.795410 76.020508 L 88.774902 76.020508 L 84.547852 66.980957 Z " fill="rgb(101, 101, 101)" fill-opacity="1.000000" />
<path d="M 92.573730 66.980957 L 96.795410 76.020508 L 95.774902 76.020508 L 91.547852 66.980957 Z " fill="rgb(101, 101, 101)" fill-opacity="1.000000" />
<path d="M 99.573730 66.980957 L 103.795410 76.020508 L 102.774902 76.020508 L 98.547852 66.980957 Z " fill="rgb(101, 101, 101)" fill-opacity="1.000000" />
<path d="M 106.573730 66.980957 L 110.795410 76.020508 L 109.774902 76.020508 L 105.547852 66.980957 Z " fill="rgb(101, 101, 101)" fill-opacity="1.000000" />
<path d="M 113.573730 66.980957 L 117.795410 76.020508 L 116.774902 76.020508 L 112.547852 66.980957 Z " fill="rgb(101, 101, 101)" fill-opacity="1.000000" />
<path d="M 120.573730 66.980957 L 124.795410 76.020508 L 123.774902 76.020508 L 119.547852 66.980957 Z " fill="rgb(101, 101, 101)" fill-opacity="1.000000" />
<path d="M 127.573730 66.980957 L 131.795410 76.020508 L 130.774902 76.020508 L 126.547852 66.980957 Z " fill="rgb(101, 101, 101)" fill-opacity="1.000000" />
<path d="M 134.573730 66.980957 L 138.795410 76.020508 L 137.774902 76.020508 L 133.547852 66.980957 Z " fill="rgb(101, 101, 101)" fill-opacity="1.000000" />
<path d="M 141.573730 66.980957 L 145.795410 76.020508 L 144.774902 76.020508 L 140.547852 66.980957 Z " fill="rgb(101, 101, 101)" fill-opacity="1.000000" />
<path d="M 148.573730 66.980957 L 152.795410 76.020508 L 151.774902 76.020508 L 147.547852 66.980957 Z " fill="rgb(101, 101, 101)" fill-opacity="1.000000" />
<path d="M 155.573730 66.980957 L 159.795410 76.020508 L 158.774902 76.020508 L 154.547852 66.980957 Z " fill="rgb(101, 101, 101)" fill-opacity="1.000000" />
<path d="M 162.573730 66.980957 L 166.795410 76.020508 L 165.774902 76.020508 L 161.547852 66.980957 Z " fill="rgb(101, 101, 101)" fill-opacity="1.000000" />
<path d="M 169.573730 66.980957 L 173.795410 76.020508 L 172.774902 76.020508 L 168.547852 66.980957 Z " fill="rgb(101, 101, 101)" fill-opacity="1.000000" />
<path d="M 176.573730 66.980957 L 180.795410 76.020508 L 179.774902 76.020508 L 175.547852 66.980957 Z " fill="rgb(101, 101, 101)" fill-opacity="1.000000" />
<path d="M 183.573730 66.980957 L 187.795410 76.020508 L 186.774902 76.020508 L 182.547852 66.980957 Z " fill="rgb(101, 101, 101)" fill-opacity="1.000000" />
<path d="M 190.573730 66.980957 L 194.795410 76.020508 L 193.774902 76.020508 L 189.547852 66.980957 Z " fill="rgb(101, 101, 101)" fill-opacity="1.000000" />
<path d="M 197.573730 66.980957 L 201.795410 76.020508 L 200.774902 76.020508 L 196.547852 66.980957 Z " fill="rgb(101, 101, 101)" fill-opacity="1.000000" />
<path d="M 204.573730 66.980957 L 208.795410 76.020508 L 207.774902 76.020508 L 203.547852 66.980957 Z " fill="rgb(101, 101, 101)" fill-opacity="1.000000" />
<path d="M 211.573730 66.980957 L 215.795410 76.020508 L 214.774902 76.020508 L 210.547852 66.980957 Z " fill="rgb(101, 101, 101)" fill-opacity="1.000000" />
<path d="M 218.573730 66.980957 L 222.795410 76.020508 L 221.774902 76.020508 L 217.547852 66.980957 Z " fill="rgb(101, 101, 101)" fill-opacity="1.000000" />
<path d="M 225.573730 66.980957 L 229.795410 76.020508 L 228.774902 76.020508 L 224.547852 66.980957 Z " fill="rgb(101, 101, 101)" fill-opacity="1.000000" />
<path d="M 232.573730 66.980957 L 236.795410 76.020508 L 235.774902 76.020508 L 231.547852 66.980957 Z " fill="rgb(101, 101, 101)" fill-opacity="1.000000" />
<path d="M 239.573730 66.980957 L 243.795410 76.020508 L 242.774902 76.020508 L 238.547852 66.980957 Z " fill="rgb(101, 101, 101)" fill-opacity="1.000000" />
<path d="M 246.573730 66.980957 L 250.795410 76.020508 L 249.774902 76.020508 L 245.547852 66.980957 Z " fill="rgb(101, 101, 101)" fill-opacity="1.000000" />
<path d="M 253.573730 66.980957 L 257.795410 76.020508 L 256.774902 76.020508 L 252.547852 66.980957 Z " fill="rgb(101, 101, 101)" fill-opacity="1.000000" />
<path d="M 260.573730 66.980957 L 264.795410 76.020508 L 263.774902 76.020508 L 259.547852 66.980957 Z " fill="rgb(101, 101, 101)" fill-opacity="1.000000" />
<path d="M 267.573730 66.980957 L 271.795410 76.020508 L 270.774902 76.020508 L 266.547852 66.980957 Z " fill="rgb(101, 101, 101)" fill-opacity="1.000000" />
<path d="M 274.573730 66.980957 L 278.795410 76.020508 L 277.774902 76.020508 L 273.547852 66.980957 Z " fill="rgb(101, 101, 101)" fill-opacity="1.000000" />
<path d="M 7.547852 58.111328 L 13.241211 58.111328 L 13.241211 59.019043 L 7.547852 59.019043 Z " fill="rgb(255, 255, 255)" fill-opacity="1.000000" />
<path d="M 14.547852 58.111328 L 20.241211 58.111328 L 20.241211 59.019043 L 14.547852 59.019043 Z " fill="rgb(255, 255, 255)" fill-opacity="1.000000" />
<path d="M 21.547852 58.111328 L 27.241211 58.111328 L 27.241211 59.019043 L 21.547852 59.019043 Z " fill="rgb(255, 255, 255)" fill-opacity="1.000000" />
<path d="M 28.547852 58.111328 L 34.241211 58.111328 L 34.241211 59.019043 L 28.547852 59.019043 Z " fill="rgb(255, 255, 255)" fill-opacity="1.000000" />
<path d="M 35.547852 58.111328 L 41.241211 58.111328 L 41.241211 59.019043 L 35.547852 59.019043 Z " fill="rgb(255, 255, 255)" fill-opacity="1.000000" />
<path d="M 42.547852 58.111328 L 48.241211 58.111328 L 48.241211 59.019043 L 42.547852 59.019043 Z " fill="rgb(255, 255, 255)" fill-opacity="1.000000" />
<path d="M 49.547852 58.111328 L 55.241211 58.111328 L 55.241211 59.019043 L 49.547852 59.019043 Z " fill="rgb(255, 255, 255)" fill-opacity="1.000000" />
<path d="M 56.547852 58.111328 L 62.241211 58.111328 L 62.241211 59.019043 L 56.547852 59.019043 Z " fill="rgb(255, 255, 255)" fill-opacity="1.000000" />
<path d="M 63.547852 58.111328 L 69.241211 58.111328 L 69.241211 59.019043 L 63.547852 59.019043 Z " fill="rgb(255, 255, 255)" fill-opacity="1.000000" />
<path d="M 70.547852 58.111328 L 76.241211 58.111328 L 76.241211 59.019043 L 70.547852 59.019043 Z " fill="rgb(255, 255, 255)" fill-opacity="1.000000" />
<path d="M 77.547852 58.111328 L 83.241211 58.111328 L 83.241211 59.019043 L 77.547852 59.019043 Z " fill="rgb(255, 255, 255)" fill-opacity="1.000000" />
<path d="M 84.547852 58.111328 L 90.241211 58.111328 L 90.241211 59.019043 L 84.547852 59.019043 Z " fill="rgb(255, 255, 255)" fill-opacity="1.000000" />
<path d="M 91.547852 58.111328 L 97.241211 58.111328 L 97.241211 59.019043 L 91.547852 59.019043 Z " fill="rgb(255, 255, 255)" fill-opacity="1.000000" />
<path d="M 98.547852 58.111328 L 104.241211 58.111328 L 104.241211 59.019043 L 98.547852 59.019043 Z " fill="rgb(255, 255, 255)" fill-opacity="1.000000" />
<path d="M 105.547852 58.111328 L 111.241211 58.111328 L 111.241211 59.019043 L 105.547852 59.019043 Z " fill="rgb(255, 255, 255)" fill-opacity="1.000000" />
<path d="M 112.547852 58.111328 L 118.241211 58.111328 L 118.241211 59.019043 L 112.547852 59.019043 Z " fill="rgb(255, 255, 255)" fill-opacity="1.000000" />
<path d="M 119.547852 58.111328 L 125.241211 58.111328 L 125.241211 59.019043 L 119.547852 59.019043 Z " fill="rgb(255, 255, 255)" fill-opacity="1.000000" />
<path d="M 126.547852 58.111328 L 132.241211 58.111328 L 132.241211 59.019043 L 126.547852 59.019043 Z " fill="rgb(255, 255, 255)" fill-opacity="1.000000" />
<path d="M 136.867188 55.672852 L 136.867188 58.052246 L 139.257324 58.052246 L 139.257324 58.959961 L 136.867188 58.959961 L 136.867188 61.339355 L 135.964844 61.339355 L 135.964844 58.959961 L 133.580078 58.959961 L 133.580078 58.052246 L 135.964844 58.052246 L 135.964844 55.672852 Z " fill="rgb(255, 255, 255)" fill-opacity="1.000000" />
<path d="M 140.547852 58.111328 L 146.241211 58.111328 L 146.241211 59.019043 L 140.547852 59.019043 Z " fill="rgb(255, 255, 255)" fill-opacity="1.000000" />
<path d="M 147.547852 58.111328 L 153.241211 58.111328 L 153.241211 59.019043 L 147.547852 59.019043 Z " fill="rgb(255, 255, 255)" fill-opacity="1.000000" />
<path d="M 154.547852 58.111328 L 160.241211 58.111328 L 160.241211 59.019043 L 154.547852 59.019043 Z " fill="rgb(255, 255, 255)" fill-opacity="1.000000" />
<path d="M 161.547852 58.111328 L 167.241211 58.111328 L 167.241211 59.019043 L 161.547852 59.019043 Z " fill="rgb(255, 255, 255)" fill-opacity="1.000000" />
<path d="M 168.547852 58.111328 L 174.241211 58.111328 L 174.241211 59.019043 L 168.547852 59.019043 Z " fill="rgb(255, 255, 255)" fill-opacity="1.000000" />
<path d="M 175.547852 58.111328 L 181.241211 58.111328 L 181.241211 59.019043 L 175.547852 59.019043 Z " fill="rgb(255, 255, 255)" fill-opacity="1.000000" />
<path d="M 182.547852 58.111328 L 188.241211 58.111328 L 188.241211 59.019043 L 182.547852 59.019043 Z " fill="rgb(255, 255, 255)" fill-opacity="1.000000" />
<path d="M 189.547852 58.111328 L 195.241211 58.111328 L 195.241211 59.019043 L 189.547852 59.019043 Z " fill="rgb(255, 255, 255)" fill-opacity="1.000000" />
<path d="M 196.547852 58.111328 L 202.241211 58.111328 L 202.241211 59.019043 L 196.547852 59.019043 Z " fill="rgb(255, 255, 255)" fill-opacity="1.000000" />
<path d="M 203.547852 58.111328 L 209.241211 58.111328 L 209.241211 59.019043 L 203.547852 59.019043 Z " fill="rgb(255, 255, 255)" fill-opacity="1.000000" />
<path d="M 210.547852 58.111328 L 216.241211 58.111328 L 216.241211 59.019043 L 210.547852 59.019043 Z " fill="rgb(255, 255, 255)" fill-opacity="1.000000" />
<path d="M 217.547852 58.111328 L 223.241211 58.111328 L 223.241211 59.019043 L 217.547852 59.019043 Z " fill="rgb(255, 255, 255)" fill-opacity="1.000000" />
<path d="M 224.547852 58.111328 L 230.241211 58.111328 L 230.241211 59.019043 L 224.547852 59.019043 Z " fill="rgb(255, 255, 255)" fill-opacity="1.000000" />
<path d="M 231.547852 58.111328 L 237.241211 58.111328 L 237.241211 59.019043 L 231.547852 59.019043 Z " fill="rgb(255, 255, 255)" fill-opacity="1.000000" />
<path d="M 238.547852 58.111328 L 244.241211 58.111328 L 244.241211 59.019043 L 238.547852 59.019043 Z " fill="rgb(255, 255, 255)" fill-opacity="1.000000" />
<path d="M 245.547852 58.111328 L 251.241211 58.111328 L 251.241211 59.019043 L 245.547852 59.019043 Z " fill="rgb(255, 255, 255)" fill-opacity="1.000000" />
<path d="M 252.547852 58.111328 L 258.241211 58.111328 L 258.241211 59.019043 L 252.547852 59.019043 Z " fill="rgb(255, 255, 255)" fill-opacity="1.000000" />
<path d="M 259.547852 58.111328 L 265.241211 58.111328 L 265.241211 59.019043 L 259.547852 59.019043 Z " fill="rgb(255, 255, 255)" fill-opacity="1.000000" />
<path d="M 269.867188 55.672852 L 269.867188 58.052246 L 272.257324 58.052246 L 272.257324 58.959961 L 269.867188 58.959961 L 269.867188 61.339355 L 268.964844 61.339355 L 268.964844 58.959961 L 266.580078 58.959961 L 266.580078 58.052246 L 268.964844 58.052246 L 268.964844 55.672852 Z " fill="rgb(255, 255, 255)" fill-opacity="1.000000" />
<path d="M 274.573730 53.980957 L 278.795410 63.020508 L 277.774902 63.020508 L 273.547852 53.980957 Z " fill="rgb(101, 101, 101)" fill-opacity="1.000000" />
<path d="M 50.079590 40.980957 L 54.532227 40.980957 L 54.532227 41.894043 L 52.851074 41.894043 L 52.851074 48.086914 L 54.532227 48.086914 L 54.532227 49.000000 L 50.079590 49.000000 L 50.079590 48.086914 L 51.760742 48.086914 L 51.760742 41.894043 L 50.079590 41.894043 Z " fill="rgb(255, 255, 255)" fill-opacity="1.000000" />
<path d="M 56.102051 41.007812 L 57.584473 41.007812 L 60.721191 47.587402 L 60.721191 41.007812 L 61.875977 41.007812 L 61.875977 49.000000 L 60.393555 49.000000 L 57.256836 42.420410 L 57.256836 49.000000 L 56.102051 49.000000 Z " fill="rgb(255, 255, 255)" fill-opacity="1.000000" />
<path d="M 64.251465 40.980957 L 68.972656 40.980957 L 68.972656 41.894043 L 65.341797 41.894043 L 65.341797 44.042480 L 68.634277 44.042480 L 68.634277 44.955566 L 65.341797 44.955566 L 65.341797 49.000000 L 64.251465 49.000000 Z " fill="rgb(255, 255, 255)" fill-opacity="1.000000" />
<path d="M 74.082031 45.213379 Q 74.500977 45.320801 74.796387 45.618896 Q 75.091797 45.916992 75.532227 46.808594 L 76.622559 49.000000 L 75.457031 49.000000 L 74.500977 46.975098 Q 74.087402 46.110352 73.757080 45.860596 Q 73.426758 45.610840 72.895020 45.610840 L 71.858398 45.610840 L 71.858398 49.000000 L 70.768066 49.000000 L 70.768066 40.980957 L 73.002441 40.980957 Q 74.323730 40.980957 75.027344 41.577148 Q 75.730957 42.173340 75.730957 43.301270 Q 75.730957 44.096191 75.298584 44.598389 Q 74.866211 45.100586 74.082031 45.213379 Z M 71.858398 41.872559 L 71.858398 44.719238 L 73.045410 44.719238 Q 73.824219 44.719238 74.205566 44.370117 Q 74.586914 44.020996 74.586914 43.301270 Q 74.586914 42.608398 74.181396 42.240479 Q 73.775879 41.872559 73.002441 41.872559 Z " fill="rgb(255, 255, 255)" fill-opacity="1.000000" />
<path d="M 80.308594 41.937012 L 79.164551 46.040527 L 81.452637 46.040527 Z M 79.653320 40.980957 L 80.969238 40.980957 L 83.423828 49.000000 L 82.301270 49.000000 L 81.710449 46.910645 L 78.901367 46.910645 L 78.321289 49.000000 L 77.198730 49.000000 Z " fill="rgb(255, 255, 255)" fill-opacity="1.000000" />
<path d="M 87.673828 46.846191 L 86.653320 46.846191 L 86.653320 46.019043 Q 86.653320 45.492676 86.817139 45.124756 Q 86.980957 44.756836 87.432129 44.316406 L 87.915527 43.838379 Q 88.248535 43.521484 88.374756 43.285156 Q 88.500977 43.048828 88.500977 42.785645 Q 88.500977 42.307617 88.149170 42.012207 Q 87.797363 41.716797 87.211914 41.716797 Q 86.792969 41.716797 86.314941 41.902100 Q 85.836914 42.087402 85.310547 42.452637 L 85.310547 41.442871 Q 85.815430 41.136719 86.328369 40.986328 Q 86.841309 40.835938 87.399902 40.835938 Q 88.398926 40.835938 88.992432 41.351562 Q 89.585938 41.867188 89.585938 42.731934 Q 89.585938 43.140137 89.406006 43.491943 Q 89.226074 43.843750 88.721191 44.337891 L 88.248535 44.799805 Q 87.877930 45.154297 87.775879 45.379883 Q 87.673828 45.605469 87.673828 45.933105 L 87.673828 46.185547 Z M 86.615723 47.635742 L 87.706055 47.635742 L 87.706055 49.000000 L 86.615723 49.000000 Z " fill="rgb(255, 255, 255)" fill-opacity="1.000000" />
<path d="M 136.985352 40.594238 L 136.985352 51.594238 L 136.061523 51.594238 L 136.061523 40.594238 Z " fill="rgb(255, 255, 255)" fill-opacity="1.000000" />
<path d="M 173.435547 41.254883 L 173.435547 42.355957 Q 172.941406 42.039062 172.444580 41.877930 Q 171.947754 41.716797 171.442871 41.716797 Q 170.674805 41.716797 170.229004 42.073975 Q 169.783203 42.431152 169.783203 43.038086 Q 169.783203 43.569824 170.075928 43.849121 Q 170.368652 44.128418 171.168945 44.316406 L 171.738281 44.445312 Q 172.866211 44.708496 173.381836 45.272461 Q 173.897461 45.836426 173.897461 46.808594 Q 173.897461 47.952637 173.188477 48.554199 Q 172.479492 49.155762 171.125977 49.155762 Q 170.562012 49.155762 169.992676 49.034912 Q 169.423340 48.914062 168.848633 48.672363 L 168.848633 47.517578 Q 169.466309 47.909668 170.016846 48.092285 Q 170.567383 48.274902 171.125977 48.274902 Q 171.947754 48.274902 172.404297 47.906982 Q 172.860840 47.539062 172.860840 46.878418 Q 172.860840 46.276855 172.546631 45.959961 Q 172.232422 45.643066 171.453613 45.471191 L 170.873535 45.336914 Q 169.756348 45.084473 169.251465 44.574219 Q 168.746582 44.063965 168.746582 43.204590 Q 168.746582 42.130371 169.468994 41.483154 Q 170.191406 40.835938 171.389160 40.835938 Q 171.851074 40.835938 172.361328 40.940674 Q 172.871582 41.045410 173.435547 41.254883 Z " fill="rgb(255, 255, 255)" fill-opacity="1.000000" />
<path d="M 177.143066 41.872559 L 177.143066 44.885742 L 178.399902 44.885742 Q 179.151855 44.885742 179.573486 44.488281 Q 179.995117 44.090820 179.995117 43.376465 Q 179.995117 42.662109 179.576172 42.267334 Q 179.157227 41.872559 178.399902 41.872559 Z M 176.058105 40.980957 L 178.399902 40.980957 Q 179.742676 40.980957 180.435547 41.590576 Q 181.128418 42.200195 181.128418 43.376465 Q 181.128418 44.563477 180.438232 45.170410 Q 179.748047 45.777344 178.399902 45.777344 L 177.143066 45.777344 L 177.143066 49.000000 L 176.058105 49.000000 Z " fill="rgb(255, 255, 255)" fill-opacity="1.000000" />
<path d="M 183.058105 40.980957 L 187.816895 40.980957 L 187.816895 41.894043 L 184.143066 41.894043 L 184.143066 44.053223 L 187.655762 44.053223 L 187.655762 44.966309 L 184.143066 44.966309 L 184.143066 48.086914 L 187.918945 48.086914 L 187.918945 49.000000 L 183.058105 49.000000 Z " fill="rgb(255, 255, 255)" fill-opacity="1.000000" />
<path d="M 194.763184 48.715332 Q 194.349609 48.935547 193.914551 49.045654 Q 193.479492 49.155762 192.990723 49.155762 Q 191.449219 49.155762 190.597900 48.065430 Q 189.746582 46.975098 189.746582 44.998535 Q 189.746582 43.032715 190.603271 41.934326 Q 191.459961 40.835938 192.990723 40.835938 Q 193.479492 40.835938 193.914551 40.946045 Q 194.349609 41.056152 194.763184 41.276367 L 194.763184 42.388184 Q 194.365723 42.060547 193.909180 41.888672 Q 193.452637 41.716797 192.990723 41.716797 Q 191.932617 41.716797 191.406250 42.533203 Q 190.879883 43.349609 190.879883 44.998535 Q 190.879883 46.642090 191.406250 47.458496 Q 191.932617 48.274902 192.990723 48.274902 Q 193.463379 48.274902 193.917236 48.103027 Q 194.371094 47.931152 194.763184 47.603516 Z " fill="rgb(255, 255, 255)" fill-opacity="1.000000" />
<path d="M 197.079590 40.980957 L 201.532227 40.980957 L 201.532227 41.894043 L 199.851074 41.894043 L 199.851074 48.086914 L 201.532227 48.086914 L 201.532227 49.000000 L 197.079590 49.000000 L 197.079590 48.086914 L 198.760742 48.086914 L 198.760742 41.894043 L 197.079590 41.894043 Z " fill="rgb(255, 255, 255)" fill-opacity="1.000000" />
<path d="M 204.251465 40.980957 L 208.972656 40.980957 L 208.972656 41.894043 L 205.341797 41.894043 L 205.341797 44.042480 L 208.634277 44.042480 L 208.634277 44.955566 L 205.341797 44.955566 L 205.341797 49.000000 L 204.251465 49.000000 Z " fill="rgb(255, 255, 255)" fill-opacity="1.000000" />
<path d="M 211.079590 40.980957 L 215.532227 40.980957 L 215.532227 41.894043 L 213.851074 41.894043 L 213.851074 48.086914 L 215.532227 48.086914 L 215.532227 49.000000 L 211.079590 49.000000 L 211.079590 48.086914 L 212.760742 48.086914 L 212.760742 41.894043 L 211.079590 41.894043 Z " fill="rgb(255, 255, 255)" fill-opacity="1.000000" />
<path d="M 222.763184 48.715332 Q 222.349609 48.935547 221.914551 49.045654 Q 221.479492 49.155762 220.990723 49.155762 Q 219.449219 49.155762 218.597900 48.065430 Q 217.746582 46.975098 217.746582 44.998535 Q 217.746582 43.032715 218.603271 41.934326 Q 219.459961 40.835938 220.990723 40.835938 Q 221.479492 40.835938 221.914551 40.946045 Q 222.349609 41.056152 222.763184 41.276367 L 222.763184 42.388184 Q 222.365723 42.060547 221.909180 41.888672 Q 221.452637 41.716797 220.990723 41.716797 Q 219.932617 41.716797 219.406250 42.533203 Q 218.879883 43.349609 218.879883 44.998535 Q 218.879883 46.642090 219.406250 47.458496 Q 219.932617 48.274902 220.990723 48.274902 Q 221.463379 48.274902 221.917236 48.103027 Q 222.371094 47.931152 222.763184 47.603516 Z " fill="rgb(255, 255, 255)" fill-opacity="1.000000" />
<path d="M 226.089355 46.830078 L 227.979980 46.830078 L 227.979980 49.000000 L 226.089355 49.000000 Z " fill="rgb(255, 255, 255)" fill-opacity="1.000000" />
<path d="M 269.985352 40.594238 L 269.985352 51.594238 L 269.061523 51.594238 L 269.061523 40.594238 Z " fill="rgb(255, 255, 255)" fill-opacity="1.000000" />
<path d="M 274.573730 40.980957 L 278.795410 50.020508 L 277.774902 50.020508 L 273.547852 40.980957 Z " fill="rgb(101, 101, 101)" fill-opacity="1.000000" />
<path d="M 7.547852 32.111328 L 13.241211 32.111328 L 13.241211 33.019043 L 7.547852 33.019043 Z " fill="rgb(255, 255, 255)" fill-opacity="1.000000" />
<path d="M 14.547852 32.111328 L 20.241211 32.111328 L 20.241211 33.019043 L 14.547852 33.019043 Z " fill="rgb(255, 255, 255)" fill-opacity="1.000000" />
<path d="M 21.547852 32.111328 L 27.241211 32.111328 L 27.241211 33.019043 L 21.547852 33.019043 Z " fill="rgb(255, 255, 255)" fill-opacity="1.000000" />
<path d="M 28.547852 32.111328 L 34.241211 32.111328 L 34.241211 33.019043 L 28.547852 33.019043 Z " fill="rgb(255, 255, 255)" fill-opacity="1.000000" />
<path d="M 35.547852 32.111328 L 41.241211 32.111328 L 41.241211 33.019043 L 35.547852 33.019043 Z " fill="rgb(255, 255, 255)" fill-opacity="1.000000" />
<path d="M 42.547852 32.111328 L 48.241211 32.111328 L 48.241211 33.019043 L 42.547852 33.019043 Z " fill="rgb(255, 255, 255)" fill-opacity="1.000000" />
<path d="M 49.547852 32.111328 L 55.241211 32.111328 L 55.241211 33.019043 L 49.547852 33.019043 Z " fill="rgb(255, 255, 255)" fill-opacity="1.000000" />
<path d="M 56.547852 32.111328 L 62.241211 32.111328 L 62.241211 33.019043 L 56.547852 33.019043 Z " fill="rgb(255, 255, 255)" fill-opacity="1.000000" />
<path d="M 63.547852 32.111328 L 69.241211 32.111328 L 69.241211 33.019043 L 63.547852 33.019043 Z " fill="rgb(255, 255, 255)" fill-opacity="1.000000" />
<path d="M 70.547852 32.111328 L 76.241211 32.111328 L 76.241211 33.019043 L 70.547852 33.019043 Z " fill="rgb(255, 255, 255)" fill-opacity="1.000000" />
<path d="M 77.547852 32.111328 L 83.241211 32.111328 L 83.241211 33.019043 L 77.547852 33.019043 Z " fill="rgb(255, 255, 255)" fill-opacity="1.000000" />
<path d="M 84.547852 32.111328 L 90.241211 32.111328 L 90.241211 33.019043 L 84.547852 33.019043 Z " fill="rgb(255, 255, 255)" fill-opacity="1.000000" />
<path d="M 91.547852 32.111328 L 97.241211 32.111328 L 97.241211 33.019043 L 91.547852 33.019043 Z " fill="rgb(255, 255, 255)" fill-opacity="1.000000" />
<path d="M 98.547852 32.111328 L 104.241211 32.111328 L 104.241211 33.019043 L 98.547852 33.019043 Z " fill="rgb(255, 255, 255)" fill-opacity="1.000000" />
<path d="M 105.547852 32.111328 L 111.241211 32.111328 L 111.241211 33.019043 L 105.547852 33.019043 Z " fill="rgb(255, 255, 255)" fill-opacity="1.000000" />
<path d="M 112.547852 32.111328 L 118.241211 32.111328 L 118.241211 33.019043 L 112.547852 33.019043 Z " fill="rgb(255, 255, 255)" fill-opacity="1.000000" />
<path d="M 119.547852 32.111328 L 125.241211 32.111328 L 125.241211 33.019043 L 119.547852 33.019043 Z " fill="rgb(255, 255, 255)" fill-opacity="1.000000" />
<path d="M 126.547852 32.111328 L 132.241211 32.111328 L 132.241211 33.019043 L 126.547852 33.019043 Z " fill="rgb(255, 255, 255)" fill-opacity="1.000000" />
<path d="M 136.867188 29.672852 L 136.867188 32.052246 L 139.257324 32.052246 L 139.257324 32.959961 L 136.867188 32.959961 L 136.867188 35.339355 L 135.964844 35.339355 L 135.964844 32.959961 L 133.580078 32.959961 L 133.580078 32.052246 L 135.964844 32.052246 L 135.964844 29.672852 Z " fill="rgb(255, 255, 255)" fill-opacity="1.000000" />
<path d="M 140.547852 32.111328 L 146.241211 32.111328 L 146.241211 33.019043 L 140.547852 33.019043 Z " fill="rgb(255, 255, 255)" fill-opacity="1.000000" />
<path d="M 147.547852 32.111328 L 153.241211 32.111328 L 153.241211 33.019043 L 147.547852 33.019043 Z " fill="rgb(255, 255, 255)" fill-opacity="1.000000" />
<path d="M 154.547852 32.111328 L 160.241211 32.111328 L 160.241211 33.019043 L 154.547852 33.019043 Z " fill="rgb(255, 255, 255)" fill-opacity="1.000000" />
<path d="M 161.547852 32.111328 L 167.241211 32.111328 L 167.241211 33.019043 L 161.547852 33.019043 Z " fill="rgb(255, 255, 255)" fill-opacity="1.000000" />
<path d="M 168.547852 32.111328 L 174.241211 32.111328 L 174.241211 33.019043 L 168.547852 33.019043 Z " fill="rgb(255, 255, 255)" fill-opacity="1.000000" />
<path d="M 175.547852 32.111328 L 181.241211 32.111328 L 181.241211 33.019043 L 175.547852 33.019043 Z " fill="rgb(255, 255, 255)" fill-opacity="1.000000" />
<path d="M 182.547852 32.111328 L 188.241211 32.111328 L 188.241211 33.019043 L 182.547852 33.019043 Z " fill="rgb(255, 255, 255)" fill-opacity="1.000000" />
<path d="M 189.547852 32.111328 L 195.241211 32.111328 L 195.241211 33.019043 L 189.547852 33.019043 Z " fill="rgb(255, 255, 255)" fill-opacity="1.000000" />
<path d="M 196.547852 32.111328 L 202.241211 32.111328 L 202.241211 33.019043 L 196.547852 33.019043 Z " fill="rgb(255, 255, 255)" fill-opacity="1.000000" />
<path d="M 203.547852 32.111328 L 209.241211 32.111328 L 209.241211 33.019043 L 203.547852 33.019043 Z " fill="rgb(255, 255, 255)" fill-opacity="1.000000" />
<path d="M 210.547852 32.111328 L 216.241211 32.111328 L 216.241211 33.019043 L 210.547852 33.019043 Z " fill="rgb(255, 255, 255)" fill-opacity="1.000000" />
<path d="M 217.547852 32.111328 L 223.241211 32.111328 L 223.241211 33.019043 L 217.547852 33.019043 Z " fill="rgb(255, 255, 255)" fill-opacity="1.000000" />
<path d="M 224.547852 32.111328 L 230.241211 32.111328 L 230.241211 33.019043 L 224.547852 33.019043 Z " fill="rgb(255, 255, 255)" fill-opacity="1.000000" />
<path d="M 231.547852 32.111328 L 237.241211 32.111328 L 237.241211 33.019043 L 231.547852 33.019043 Z " fill="rgb(255, 255, 255)" fill-opacity="1.000000" />
<path d="M 238.547852 32.111328 L 244.241211 32.111328 L 244.241211 33.019043 L 238.547852 33.019043 Z " fill="rgb(255, 255, 255)" fill-opacity="1.000000" />
<path d="M 245.547852 32.111328 L 251.241211 32.111328 L 251.241211 33.019043 L 245.547852 33.019043 Z " fill="rgb(255, 255, 255)" fill-opacity="1.000000" />
<path d="M 252.547852 32.111328 L 258.241211 32.111328 L 258.241211 33.019043 L 252.547852 33.019043 Z " fill="rgb(255, 255, 255)" fill-opacity="1.000000" />
<path d="M 259.547852 32.111328 L 265.241211 32.111328 L 265.241211 33.019043 L 259.547852 33.019043 Z " fill="rgb(255, 255, 255)" fill-opacity="1.000000" />
<path d="M 269.867188 29.672852 L 269.867188 32.052246 L 272.257324 32.052246 L 272.257324 32.959961 L 269.867188 32.959961 L 269.867188 35.339355 L 268.964844 35.339355 L 268.964844 32.959961 L 266.580078 32.959961 L 266.580078 32.052246 L 268.964844 32.052246 L 268.964844 29.672852 Z " fill="rgb(255, 255, 255)" fill-opacity="1.000000" />
<path d="M 274.573730 27.980957 L 278.795410 37.020508 L 277.774902 37.020508 L 273.547852 27.980957 Z " fill="rgb(101, 101, 101)" fill-opacity="1.000000" />
<path d="M 45.308594 15.937012 L 44.164551 20.040527 L 46.452637 20.040527 Z M 44.653320 14.980957 L 45.969238 14.980957 L 48.423828 23.000000 L 47.301270 23.000000 L 46.710449 20.910645 L 43.901367 20.910645 L 43.321289 23.000000 L 42.198730 23.000000 Z " fill="rgb(255, 255, 255)" fill-opacity="1.000000" />
<path d="M 51.143066 15.872559 L 51.143066 18.885742 L 52.399902 18.885742 Q 53.151855 18.885742 53.573486 18.488281 Q 53.995117 18.090820 53.995117 17.376465 Q 53.995117 16.662109 53.576172 16.267334 Q 53.157227 15.872559 52.399902 15.872559 Z M 50.058105 14.980957 L 52.399902 14.980957 Q 53.742676 14.980957 54.435547 15.590576 Q 55.128418 16.200195 55.128418 17.376465 Q 55.128418 18.563477 54.438232 19.170410 Q 53.748047 19.777344 52.399902 19.777344 L 51.143066 19.777344 L 51.143066 23.000000 L 50.058105 23.000000 Z " fill="rgb(255, 255, 255)" fill-opacity="1.000000" />
<path d="M 57.079590 14.980957 L 61.532227 14.980957 L 61.532227 15.894043 L 59.851074 15.894043 L 59.851074 22.086914 L 61.532227 22.086914 L 61.532227 23.000000 L 57.079590 23.000000 L 57.079590 22.086914 L 58.760742 22.086914 L 58.760742 15.894043 L 57.079590 15.894043 Z " fill="rgb(255, 255, 255)" fill-opacity="1.000000" />
<path d="M 69.574219 24.020508 L 69.574219 24.933594 L 63.000000 24.933594 L 63.000000 24.020508 Z " fill="rgb(255, 255, 255)" fill-opacity="1.000000" />
<path d="M 70.735840 14.980957 L 71.826172 14.980957 L 71.826172 18.547363 L 75.215332 14.980957 L 76.488281 14.980957 L 73.367676 18.257324 L 76.579590 23.000000 L 75.269043 23.000000 L 72.653320 18.982422 L 71.826172 19.863281 L 71.826172 23.000000 L 70.735840 23.000000 Z " fill="rgb(255, 255, 255)" fill-opacity="1.000000" />
<path d="M 78.058105 14.980957 L 82.816895 14.980957 L 82.816895 15.894043 L 79.143066 15.894043 L 79.143066 18.053223 L 82.655762 18.053223 L 82.655762 18.966309 L 79.143066 18.966309 L 79.143066 22.086914 L 82.918945 22.086914 L 82.918945 23.000000 L 78.058105 23.000000 Z " fill="rgb(255, 255, 255)" fill-opacity="1.000000" />
<path d="M 84.198730 14.980957 L 85.353516 14.980957 L 87.308594 18.520508 L 89.258301 14.980957 L 90.423828 14.980957 L 87.851074 19.401367 L 87.851074 23.000000 L 86.760742 23.000000 L 86.760742 19.401367 Z " fill="rgb(255, 255, 255)" fill-opacity="1.000000" />
<path d="M 136.985352 14.594238 L 136.985352 25.594238 L 136.061523 25.594238 L 136.061523 14.594238 Z " fill="rgb(255, 255, 255)" fill-opacity="1.000000" />
<path d="M 188.332520 18.321777 L 185.947754 19.610840 L 188.332520 20.905273 L 187.956543 21.560547 L 185.711426 20.212402 L 185.711426 22.715332 L 184.943359 22.715332 L 184.943359 20.212402 L 182.698242 21.560547 L 182.322266 20.905273 L 184.712402 19.610840 L 182.322266 18.321777 L 182.698242 17.661133 L 184.943359 19.009277 L 184.943359 16.506348 L 185.711426 16.506348 L 185.711426 19.009277 L 187.956543 17.661133 Z " fill="rgb(255, 255, 255)" fill-opacity="1.000000" />
<path d="M 195.332520 18.321777 L 192.947754 19.610840 L 195.332520 20.905273 L 194.956543 21.560547 L 192.711426 20.212402 L 192.711426 22.715332 L 191.943359 22.715332 L 191.943359 20.212402 L 189.698242 21.560547 L 189.322266 20.905273 L 191.712402 19.610840 L 189.322266 18.321777 L 189.698242 17.661133 L 191.943359 19.009277 L 191.943359 16.506348 L 192.711426 16.506348 L 192.711426 19.009277 L 194.956543 17.661133 Z " fill="rgb(255, 255, 255)" fill-opacity="1.000000" />
<path d="M 202.332520 18.321777 L 199.947754 19.610840 L 202.332520 20.905273 L 201.956543 21.560547 L 199.711426 20.212402 L 199.711426 22.715332 L 198.943359 22.715332 L 198.943359 20.212402 L 196.698242 21.560547 L 196.322266 20.905273 L 198.712402 19.610840 L 196.322266 18.321777 L 196.698242 17.661133 L 198.943359 19.009277 L 198.943359 16.506348 L 199.711426 16.506348 L 199.711426 19.009277 L 201.956543 17.661133 Z " fill="rgb(255, 255, 255)" fill-opacity="1.000000" />
<path d="M 209.332520 18.321777 L 206.947754 19.610840 L 209.332520 20.905273 L 208.956543 21.560547 L 206.711426 20.212402 L 206.711426 22.715332 L 205.943359 22.715332 L 205.943359 20.212402 L 203.698242 21.560547 L 203.322266 20.905273 L 205.712402 19.610840 L 203.322266 18.321777 L 203.698242 17.661133 L 205.943359 19.009277 L 205.943359 16.506348 L 206.711426 16.506348 L 206.711426 19.009277 L 208.956543 17.661133 Z " fill="rgb(255, 255, 255)" fill-opacity="1.000000" />
<path d="M 216.332520 18.321777 L 213.947754 19.610840 L 216.332520 20.905273 L 215.956543 21.560547 L 213.711426 20.212402 L 213.711426 22.715332 L 212.943359 22.715332 L 212.943359 20.212402 L 210.698242 21.560547 L 210.322266 20.905273 L 212.712402 19.610840 L 210.322266 18.321777 L 210.698242 17.661133 L 212.943359 19.009277 L 212.943359 16.506348 L 213.711426 16.506348 L 213.711426 19.009277 L 215.956543 17.661133 Z " fill="rgb(255, 255, 255)" fill-opacity="1.000000" />
<path d="M 223.332520 18.321777 L 220.947754 19.610840 L 223.332520 20.905273 L 222.956543 21.560547 L 220.711426 20.212402 L 220.711426 22.715332 L 219.943359 22.715332 L 219.943359 20.212402 L 217.698242 21.560547 L 217.322266 20.905273 L 219.712402 19.610840 L 217.322266 18.321777 L 217.698242 17.661133 L 219.943359 19.009277 L 219.943359 16.506348 L 220.711426 16.506348 L 220.711426 19.009277 L 222.956543 17.661133 Z " fill="rgb(255, 255, 255)" fill-opacity="1.000000" />
<path d="M 269.985352 14.594238 L 269.985352 25.594238 L 269.061523 25.594238 L 269.061523 14.594238 Z " fill="rgb(255, 255, 255)" fill-opacity="1.000000" />
<path d="M 274.573730 14.980957 L 278.795410 24.020508 L 277.774902 24.020508 L 273.547852 14.980957 Z " fill="rgb(101, 101, 101)" fill-opacity="1.000000" />
<path d="M 7.547852 6.111328 L 13.241211 6.111328 L 13.241211 7.019043 L 7.547852 7.019043 Z " fill="rgb(255, 255, 255)" fill-opacity="1.000000" />
<path d="M 14.547852 6.111328 L 20.241211 6.111328 L 20.241211 7.019043 L 14.547852 7.019043 Z " fill="rgb(255, 255, 255)" fill-opacity="1.000000" />
<path d="M 21.547852 6.111328 L 27.241211 6.111328 L 27.241211 7.019043 L 21.547852 7.019043 Z " fill="rgb(255, 255, 255)" fill-opacity="1.000000" />
<path d="M 28.547852 6.111328 L 34.241211 6.111328 L 34.241211 7.019043 L 28.547852 7.019043 Z " fill="rgb(255, 255, 255)" fill-opacity="1.000000" />
<path d="M 35.547852 6.111328 L 41.241211 6.111328 L 41.241211 7.019043 L 35.547852 7.019043 Z " fill="rgb(255, 255, 255)" fill-opacity="1.000000" />
<path d="M 42.547852 6.111328 L 48.241211 6.111328 L 48.241211 7.019043 L 42.547852 7.019043 Z " fill="rgb(255, 255, 255)" fill-opacity="1.000000" />
<path d="M 49.547852 6.111328 L 55.241211 6.111328 L 55.241211 7.019043 L 49.547852 7.019043 Z " fill="rgb(255, 255, 255)" fill-opacity="1.000000" />
<path d="M 56.547852 6.111328 L 62.241211 6.111328 L 62.241211 7.019043 L 56.547852 7.019043 Z " fill="rgb(255, 255, 255)" fill-opacity="1.000000" />
<path d="M 63.547852 6.111328 L 69.241211 6.111328 L 69.241211 7.019043 L 63.547852 7.019043 Z " fill="rgb(255, 255, 255)" fill-opacity="1.000000" />
<path d="M 70.547852 6.111328 L 76.241211 6.111328 L 76.241211 7.019043 L 70.547852 7.019043 Z " fill="rgb(255, 255, 255)" fill-opacity="1.000000" />
<path d="M 77.547852 6.111328 L 83.241211 6.111328 L 83.241211 7.019043 L 77.547852 7.019043 Z " fill="rgb(255, 255, 255)" fill-opacity="1.000000" />
<path d="M 84.547852 6.111328 L 90.241211 6.111328 L 90.241211 7.019043 L 84.547852 7.019043 Z " fill="rgb(255, 255, 255)" fill-opacity="1.000000" />
<path d="M 91.547852 6.111328 L 97.241211 6.111328 L 97.241211 7.019043 L 91.547852 7.019043 Z " fill="rgb(255, 255, 255)" fill-opacity="1.000000" />
<path d="M 98.547852 6.111328 L 104.241211 6.111328 L 104.241211 7.019043 L 98.547852 7.019043 Z " fill="rgb(255, 255, 255)" fill-opacity="1.000000" />
<path d="M 105.547852 6.111328 L 111.241211 6.111328 L 111.241211 7.019043 L 105.547852 7.019043 Z " fill="rgb(255, 255, 255)" fill-opacity="1.000000" />
<path d="M 112.547852 6.111328 L 118.241211 6.111328 L 118.241211 7.019043 L 112.547852 7.019043 Z " fill="rgb(255, 255, 255)" fill-opacity="1.000000" />
<path d="M 119.547852 6.111328 L 125.241211 6.111328 L 125.241211 7.019043 L 119.547852 7.019043 Z " fill="rgb(255, 255, 255)" fill-opacity="1.000000" />
<path d="M 126.547852 6.111328 L 132.241211 6.111328 L 132.241211 7.019043 L 126.547852 7.019043 Z " fill="rgb(255, 255, 255)" fill-opacity="1.000000" />
<path d="M 136.867188 3.672852 L 136.867188 6.052246 L 139.257324 6.052246 L 139.257324 6.959961 L 136.867188 6.959961 L 136.867188 9.339355 L 135.964844 9.339355 L 135.964844 6.959961 L 133.580078 6.959961 L 133.580078 6.052246 L 135.964844 6.052246 L 135.964844 3.672852 Z " fill="rgb(255, 255, 255)" fill-opacity="1.000000" />
<path d="M 140.547852 6.111328 L 146.241211 6.111328 L 146.241211 7.019043 L 140.547852 7.019043 Z " fill="rgb(255, 255, 255)" fill-opacity="1.000000" />
<path d="M 147.547852 6.111328 L 153.241211 6.111328 L 153.241211 7.019043 L 147.547852 7.019043 Z " fill="rgb(255, 255, 255)" fill-opacity="1.000000" />
<path d="M 154.547852 6.111328 L 160.241211 6.111328 L 160.241211 7.019043 L 154.547852 7.019043 Z " fill="rgb(255, 255, 255)" fill-opacity="1.000000" />
<path d="M 161.547852 6.111328 L 167.241211 6.111328 L 167.241211 7.019043 L 161.547852 7.019043 Z " fill="rgb(255, 255, 255)" fill-opacity="1.000000" />
<path d="M 168.547852 6.111328 L 174.241211 6.111328 L 174.241211 7.019043 L 168.547852 7.019043 Z " fill="rgb(255, 255, 255)" fill-opacity="1.000000" />
<path d="M 175.547852 6.111328 L 181.241211 6.111328 L 181.241211 7.019043 L 175.547852 7.019043 Z " fill="rgb(255, 255, 255)" fill-opacity="1.000000" />
<path d="M 182.547852 6.111328 L 188.241211 6.111328 L 188.241211 7.019043 L 182.547852 7.019043 Z " fill="rgb(255, 255, 255)" fill-opacity="1.000000" />
<path d="M 189.547852 6.111328 L 195.241211 6.111328 L 195.241211 7.019043 L 189.547852 7.019043 Z " fill="rgb(255, 255, 255)" fill-opacity="1.000000" />
<path d="M 196.547852 6.111328 L 202.241211 6.111328 L 202.241211 7.019043 L 196.547852 7.019043 Z " fill="rgb(255, 255, 255)" fill-opacity="1.000000" />
<path d="M 203.547852 6.111328 L 209.241211 6.111328 L 209.241211 7.019043 L 203.547852 7.019043 Z " fill="rgb(255, 255, 255)" fill-opacity="1.000000" />
<path d="M 210.547852 6.111328 L 216.241211 6.111328 L 216.241211 7.019043 L 210.547852 7.019043 Z " fill="rgb(255, 255, 255)" fill-opacity="1.000000" />
<path d="M 217.547852 6.111328 L 223.241211 6.111328 L 223.241211 7.019043 L 217.547852 7.019043 Z " fill="rgb(255, 255, 255)" fill-opacity="1.000000" />
<path d="M 224.547852 6.111328 L 230.241211 6.111328 L 230.241211 7.019043 L 224.547852 7.019043 Z " fill="rgb(255, 255, 255)" fill-opacity="1.000000" />
<path d="M 231.547852 6.111328 L 237.241211 6.111328 L 237.241211 7.019043 L 231.547852 7.019043 Z " fill="rgb(255, 255, 255)" fill-opacity="1.000000" />
<path d="M 238.547852 6.111328 L 244.241211 6.111328 L 244.241211 7.019043 L 238.547852 7.019043 Z " fill="rgb(255, 255, 255)" fill-opacity="1.000000" />
<path d="M 245.547852 6.111328 L 251.241211 6.111328 L 251.241211 7.019043 L 245.547852 7.019043 Z " fill="rgb(255, 255, 255)" fill-opacity="1.000000" />
<path d="M 252.547852 6.111328 L 258.241211 6.111328 L 258.241211 7.019043 L 252.547852 7.019043 Z " fill="rgb(255, 255, 255)" fill-opacity="1.000000" />
<path d="M 259.547852 6.111328 L 265.241211 6.111328 L 265.241211 7.019043 L 259.547852 7.019043 Z " fill="rgb(255, 255, 255)" fill-opacity="1.000000" />
<path d="M 269.867188 3.672852 L 269.867188 6.052246 L 272.257324 6.052246 L 272.257324 6.959961 L 269.867188 6.959961 L 269.867188 9.339355 L 268.964844 9.339355 L 268.964844 6.959961 L 266.580078 6.959961 L 266.580078 6.052246 L 268.964844 6.052246 L 268.964844 3.672852 Z " fill="rgb(255, 255, 255)" fill-opacity="1.000000" />
</svg>