<svg xmlns="http://www.w3.org/2000/svg" version="1.1" width="281" height="79">
<path d="M 3.867188 3.672852 L 3.867188 6.052246 L 6.257324 6.052246 L 6.257324 6.959961 L 3.867188 6.959961 L 3.867188 9.339355 L 2.964844 9.339355 L 2.964844 6.959961 L 0.580078 6.959961 L 0.580078 6.052246 L 2.964844 6.052246 L 2.964844 3.672852 Z " fill="rgb(35, 102, 236)" fill-opacity="1.000000" />
<path d="M 3.985352 14.594238 L 3.985352 25.594238 L 3.061523 25.594238 L 3.061523 14.594238 Z " fill="rgb(35, 102, 236)" fill-opacity="1.000000" />
<path d="M 3.985352 27.594238 L 3.985352 38.594238 L 3.061523 38.594238 L 3.061523 27.594238 Z " fill="rgb(35, 102, 236)" fill-opacity="1.000000" />
<path d="M 3.985352 40.594238 L 3.985352 51.594238 L 3.061523 51.594238 L 3.061523 40.594238 Z " fill="rgb(35, 102, 236)" fill-opacity="1.000000" />
<path d="M 3.867188 55.672852 L 3.867188 58.052246 L 6.257324 58.052246 L 6.257324 58.959961 L 3.867188 58.959961 L 3.867188 61.339355 L 2.964844 61.339355 L 2.964844 58.959961 L 0.580078 58.959961 L 0.580078 58.052246 L 2.964844 58.052246 L 2.964844 55.672852 Z " fill="rgb(35, 102, 236)" fill-opacity="1.000000" />
<path d="M 8.573730 66.980957 L 12.795410 76.020508 L 11.774902 76.020508 L 7.547852 66.980957 Z " fill="rgb(101, 101, 101)" fill-opacity="1.000000" />
<path d="M 15.573730 66.980957 L 19.795410 76.020508 L 18.774902 76.020508 L 14.547852 66.980957 Z " fill="rgb(101, 101, 101)" fill-opacity="1.000000" />
<path d="M 22.573730 66.980957 L 26.795410 76.020508 L 25.774902 76.020508 L 21.547852 66.980957 Z " fill="rgb(101, 101, 101)" fill-opacity="1.000000" />
<path d="M 29.573730 66.980957 L 33.795410 76.020508 L 32.774902 76.020508 L 28.547852 66.980957 Z " fill="rgb(101, 101, 101)" fill-opacity="1.000000" />
<path d="M 36.573730 66.980957 L 40.795410 76.020508 L 39.774902 76.020508 L 35.547852 66.980957 Z " fill="rgb(101, 101, 101)" fill-opacity="1.000000" />
<path d="M 43.573730 66.980957 L 47.795410 76.020508 L 46.774902 76.020508 L 42.547852 66.980957 Z " fill="rgb(101, 101, 101)" fill-opacity="1.000000" />
<path d="M 50.573730 66.980957 L 54.795410 76.020508 L 53.774902 76.020508 L 49.547852 66.980957 Z " fill="rgb(101, 101, 101)" fill-opacity="1.000000" />
<path d="M 57.573730 66.980957 L 61.795410 76.020508 L 60.774902 76.020508 L 56.547852 66.980957 Z " fill="rgb(101, 101, 101)" fill-opacity="1.000000" />
<path d="M 64.573730 66.980957 L 68.795410 76.020508 L 67.774902 76.020508 L 63.547852 66.980957 Z " fill="rgb(101, 101, 101)" fill-opacity="1.000000" />
<path d="M 71.573730 66.980957 L 75.795410 76.020508 L 74.774902 76.020508 L 70.547852 66.980957 Z " fill="rgb(101, 101, 101)" fill-opacity="1.000000" />
<path d="M 78.573730 66.980957 L 82.795410 76.020508 L 81.774902 76.020508 L 77.547852 66.980957 Z " fill="rgb(101, 101, 101)" fill-opacity="1.000000" />
<path d="M 85.573730 66.980957 L 89.795410 76.020508 L 88.774902 76.020508 L 84.547852 66.980957 Z " fill="rgb(101, 101, 101)" fill-opacity="1.000000" />
<path d="M 92.573730 66.980957 L 96.795410 76.020508 L 95.774902 76.020508 L 91.547852 66.980957 Z " fill="rgb(101, 101, 101)" fill-opacity="1.000000" />
<path d="M 99.573730 66.980957 L 103.795410 76.020508 L 102.774902 76.020508 L 98.547852 66.980957 Z " fill="rgb(101, 101, 101)" fill-opacity="1.000000" />
<path d="M 106.573730 66.980957 L 110.795410 76.020508 L 109.774902 76.020508 L 105.547852 66.980957 Z " fill="rgb(101, 101, 101)" fill-opacity="1.000000" />
<path d="M 113.573730 66.980957 L 117.795410 76.020508 L 116.774902 76.020508 L 112.547852 66.980957 Z " fill="rgb(101, 101, 101)" fill-opacity="1.000000" />
<path d="M 120.573730 66.980957 L 124.795410 76.020508 L 123.774902 76.020508 L 119.547852 66.980957 Z " fill="rgb(101, 101, 101)" fill-opacity="1.000000" />
<path d="M 127.573730 66.980957 L 131.795410 76.020508 L 130.774902 76.020508 L 126.547852 66.980957 Z " fill="rgb(101, 101, 101)" fill-opacity="1.000000" />
<path d="M 134.573730 66.980957 L 138.795410 76.020508 L 137.774902 76.020508 L 133.547852 66.980957 Z " fill="rgb(101, 101, 101)" fill-opacity="1.000000" />
<path d="M 141.573730 66.980957 L 145.795410 76.020508 L 144.774902 76.020508 L 140.547852 66.980957 Z " fill="rgb(101, 101, 101)" fill-opacity="1.000000" />
<path d="M 148.573730 66.980957 L 152.795410 76.020508 L 151.774902 76.020508 L 147.547852 66.980957 Z " fill="rgb(101, 101, 101)" fill-opacity="1.000000" />
<path d="M 155.573730 66.980957 L 159.795410 76.020508 L 158.774902 76.020508 L 154.547852 66.980957 Z " fill="rgb(101, 101, 101)" fill-opacity="1.000000" />
<path d="M 162.573730 66.980957 L 166.795410 76.020508 L 165.774902 76.020508 L 161.547852 66.980957 Z " fill="rgb(101, 101, 101)" fill-opacity="1.000000" />
<path d="M 169.573730 66.980957 L 173.795410 76.020508 L 172.774902 76.020508 L 168.547852 66.980957 Z " fill="rgb(101, 101, 101)" fill-opacity="1.000000" />
<path d="M 176.573730 66.980957 L 180.795410 76.020508 L 179.774902 76.020508 L 175.547852 66.980957 Z " fill="rgb(101, 101, 101)" fill-opacity="1.000000" />
<path d="M 183.573730 66.980957 L 187.795410 76.020508 L 186.774902 76.020508 L 182.547852 66.980957 Z " fill="rgb(101, 101, 101)" fill-opacity="1.000000" />
<path d="M 190.573730 66.980957 L 194.795410 76.020508 L 193.774902 76.020508 L 189.547852 66.980957 Z " fill="rgb(101, 101, 101)" fill-opacity="1.000000" />
<path d="M 197.573730 66.980957 L 201.795410 76.020508 L 200.774902 76.020508 L 196.547852 66.980957 Z " fill="rgb(101, 101, 101)" fill-opacity="1.000000" />
<path d="M 204.573730 66.980957 L 208.795410 76.020508 L 207.774902 76.020508 L 203.547852 66.980957 Z " fill="rgb(101, 101, 101)" fill-opacity="1.000000" />
<path d="M 211.573730 66.980957 L 215.795410 76.020508 L 214.774902 76.020508 L 210.547852 66.980957 Z " fill="rgb(101, 101, 101)" fill-opacity="1.000000" />
<path d="M 218.573730 66.980957 L 222.795410 76.020508 L 221.774902 76.020508 L 217.547852 66.980957 Z " fill="rgb(101, 101, 101)" fill-opacity="1.000000" />
<path d="M 225.573730 66.980957 L 229.795410 76.020508 L 228.774902 76.020508 L 224.547852 66.980957 Z " fill="rgb(101, 101, 101)" fill-opacity="1.000000" />
<path d="M 232.573730 66.980957 L 236.795410 76.020508 L 235.774902 76.020508 L 231.547852 66.980957 Z " fill="rgb(101, 101, 101)" fill-opacity="1.000000" />
<path d="M 239.573730 66.980957 L 243.795410 76.020508 L 242.774902 76.020508 L 238.547852 66.980957 Z " fill="rgb(101, 101, 101)" fill-opacity="1.000000" />
<path d="M 246.573730 66.980957 L 250.795410 76.020508 L 249.774902 76.020508 L 245.547852 66.980957 Z " fill="rgb(101, 101, 101)" fill-opacity="1.000000" />
<path d="M 253.573730 66.980957 L 257.795410 76.020508 L 256.774902 76.020508 L 252.547852 66.980957 Z " fill="rgb(101, 101, 101)" fill-opacity="1.000000" />
<path d="M 260.573730 66.980957 L 264.795410 76.020508 L 263.774902 76.020508 L 259.547852 66.980957 Z " fill="rgb(101, 101, 101)" fill-opacity="1.000000" />
<path d="M 267.573730 66.980957 L 271.795410 76.020508 L 270.774902 76.020508 L 266.547852 66.980957 Z " fill="rgb(101, 101, 101)" fill-opacity="1.000000" />
<path d="M 274.573730 66.980957 L 278.795410 76.020508 L 277.774902 76.020508 L 273.547852 66.980957 Z " fill="rgb(101, 101, 101)" fill-opacity="1.000000" />
<path d="M 7.547852 58.111328 L 13.241211 58.111328 L 13.241211 59.019043 L 7.547852 59.019043 Z " fill="rgb(35, 102, 236)" fill-opacity="1.000000" />
<path d="M 14.547852 58.111328 L 20.241211 58.111328 L 20.241211 59.019043 L 14.547852 59.019043 Z " fill="rgb(35, 102, 236)" fill-opacity="1.000000" />
<path d="M 21.547852 58.111328 L 27.241211 58.111328 L 27.241211 59.019043 L 21.547852 59.019043 Z " fill="rgb(35, 102, 236)" fill-opacity="1.000000" />
<path d="M 28.547852 58.111328 L 34.241211 58.111328 L 34.241211 59.019043 L 28.547852 59.019043 Z " fill="rgb(35, 102, 236)" fill-opacity="1.000000" />
<path d="M 35.547852 58.111328 L 41.241211 58.111328 L 41.241211 59.019043 L 35.547852 59.019043 Z " fill="rgb(35, 102, 236)" fill-opacity="1.000000" />
<path d="M 42.547852 58.111328 L 48.241211 58.111328 L 48.241211 59.019043 L 42.547852 59.019043 Z " fill="rgb(35, 102, 236)" fill-opacity="1.000000" />
<path d="M 49.547852 58.111328 L 55.241211 58.111328 L 55.241211 59.019043 L 49.547852 59.019043 Z " fill="rgb(35, 102, 236)" fill-opacity="1.000000" />
<path d="M 56.547852 58.111328 L 62.241211 58.111328 L 62.241211 59.019043 L 56.547852 59.019043 Z " fill="rgb(35, 102, 236)" fill-opacity="1.000000" />
<path d="M 63.547852 58.111328 L 69.241211 58.111328 L 69.241211 59.019043 L 63.547852 59.019043 Z " fill="rgb(35, 102, 236)" fill-opacity="1.000000" />
<path d="M 70.547852 58.111328 L 76.241211 58.111328 L 76.241211 59.019043 L 70.547852 59.019043 Z " fill="rgb(35, 102, 236)" fill-opacity="1.000000" />
<path d="M 77.547852 58.111328 L 83.241211 58.111328 L 83.241211 59.019043 L 77.547852 59.019043 Z " fill="rgb(35, 102, 236)" fill-opacity="1.000000" />
<path d="M 84.547852 58.111328 L 90.241211 58.111328 L 90.241211 59.019043 L 84.547852 59.019043 Z " fill="rgb(35, 102, 236)" fill-opacity="1.000000" />
<path d="M 91.547852 58.111328 L 97.241211 58.111328 L 97.241211 59.019043 L 91.547852 59.019043 Z " fill="rgb(35, 102, 236)" fill-opacity="1.000000" />
<path d="M 98.547852 58.111328 L 104.241211 58.111328 L 104.241211 59.019043 L 98.547852 59.019043 Z " fill="rgb(35, 102, 236)" fill-opacity="1.000000" />
<path d="M 105.547852 58.111328 L 111.241211 58.111328 L 111.241211 59.019043 L 105.547852 59.019043 Z " fill="rgb(35, 102, 236)" fill-opacity="1.000000" />
<path d="M 112.547852 58.111328 L 118.241211 58.111328 L 118.241211 59.019043 L 112.547852 59.019043 Z " fill="rgb(35, 102, 236)" fill-opacity="1.000000" />
<path d="M 119.547852 58.111328 L 125.241211 58.111328 L 125.241211 59.019043 L 119.547852 59.019043 Z " fill="rgb(35, 102, 236)" fill-opacity="1.000000" />
<path d="M 126.547852 58.111328 L 132.241211 58.111328 L 132.241211 59.019043 L 126.547852 59.019043 Z " fill="rgb(35, 102, 236)" fill-opacity="1.000000" />
<path d="M 133.547852 58.111328 L 139.241211 58.111328 L 139.241211 59.019043 L 133.547852 59.019043 Z " fill="rgb(35, 102, 236)" fill-opacity="1.000000" />
<path d="M 140.547852 58.111328 L 146.241211 58.111328 L 146.241211 59.019043 L 140.547852 59.019043 Z " fill="rgb(35, 102, 236)" fill-opacity="1.000000" />
<path d="M 147.547852 58.111328 L 153.241211 58.111328 L 153.241211 59.019043 L 147.547852 59.019043 Z " fill="rgb(35, 102, 236)" fill-opacity="1.000000" />
<path d="M 154.547852 58.111328 L 160.241211 58.111328 L 160.241211 59.019043 L 154.547852 59.019043 Z " fill="rgb(35, 102, 236)" fill-opacity="1.000000" />
<path d="M 161.547852 58.111328 L 167.241211 58.111328 L 167.241211 59.019043 L 161.547852 59.019043 Z " fill="rgb(35, 102, 236)" fill-opacity="1.000000" />
<path d="M 168.547852 58.111328 L 174.241211 58.111328 L 174.241211 59.019043 L 168.547852 59.019043 Z " fill="rgb(35, 102, 236)" fill-opacity="1.000000" />
<path d="M 175.547852 58.111328 L 181.241211 58.111328 L 181.241211 59.019043 L 175.547852 59.019043 Z " fill="rgb(35, 102, 236)" fill-opacity="1.000000" />
<path d="M 185.867188 55.672852 L 185.867188 58.052246 L 188.257324 58.052246 L 188.257324 58.959961 L 185.867188 58.959961 L 185.867188 61.339355 L 184.964844 61.339355 L 184.964844 58.959961 L 182.580078 58.959961 L 182.580078 58.052246 L 184.964844 58.052246 L 184.964844 55.672852 Z " fill="rgb(35, 102, 236)" fill-opacity="1.000000" />
<path d="M 189.547852 58.111328 L 195.241211 58.111328 L 195.241211 59.019043 L 189.547852 59.019043 Z " fill="rgb(35, 102, 236)" fill-opacity="1.000000" />
<path d="M 196.547852 58.111328 L 202.241211 58.111328 L 202.241211 59.019043 L 196.547852 59.019043 Z " fill="rgb(35, 102, 236)" fill-opacity="1.000000" />
<path d="M 203.547852 58.111328 L 209.241211 58.111328 L 209.241211 59.019043 L 203.547852 59.019043 Z " fill="rgb(35, 102, 236)" fill-opacity="1.000000" />
<path d="M 210.547852 58.111328 L 216.241211 58.111328 L 216.241211 59.019043 L 210.547852 59.019043 Z " fill="rgb(35, 102, 236)" fill-opacity="1.000000" />
<path d="M 217.547852 58.111328 L 223.241211 58.111328 L 223.241211 59.019043 L 217.547852 59.019043 Z " fill="rgb(35, 102, 236)" fill-opacity="1.000000" />
<path d="M 224.547852 58.111328 L 230.241211 58.111328 L 230.241211 59.019043 L 224.547852 59.019043 Z " fill="rgb(35, 102, 236)" fill-opacity="1.000000" />
<path d="M 231.547852 58.111328 L 237.241211 58.111328 L 237.241211 59.019043 L 231.547852 59.019043 Z " fill="rgb(35, 102, 236)" fill-opacity="1.000000" />
<path d="M 238.547852 58.111328 L 244.241211 58.111328 L 244.241211 59.019043 L 238.547852 59.019043 Z " fill="rgb(35, 102, 236)" fill-opacity="1.000000" />
<path d="M 245.547852 58.111328 L 251.241211 58.111328 L 251.241211 59.019043 L 245.547852 59.019043 Z " fill="rgb(35, 102, 236)" fill-opacity="1.000000" />
<path d="M 252.547852 58.111328 L 258.241211 58.111328 L 258.241211 59.019043 L 252.547852 59.019043 Z " fill="rgb(35, 102, 236)" fill-opacity="1.000000" />
<path d="M 259.547852 58.111328 L 265.241211 58.111328 L 265.241211 59.019043 L 259.547852 59.019043 Z " fill="rgb(35, 102, 236)" fill-opacity="1.000000" />
<path d="M 269.867188 55.672852 L 269.867188 58.052246 L 272.257324 58.052246 L 272.257324 58.959961 L 269.867188 58.959961 L 269.867188 61.339355 L 268.964844 61.339355 L 268.964844 58.959961 L 266.580078 58.959961 L 266.580078 58.052246 L 268.964844 58.052246 L 268.964844 55.672852 Z " fill="rgb(35, 102, 236)" fill-opacity="1.000000" />
<path d="M 274.573730 53.980957 L 278.795410 63.020508 L 277.774902 63.020508 L 273.547852 53.980957 Z " fill="rgb(101, 101, 101)" fill-opacity="1.000000" />
<path d="M 59.023926 27.105469 L 61.301270 27.105469 L 61.301270 27.873535 L 60.012207 27.873535 L 60.012207 36.145020 L 61.301270 36.145020 L 61.301270 36.913086 L 59.023926 36.913086 Z " fill="rgb(255, 255, 255)" fill-opacity="1.000000" />
<path d="M 185.985352 40.594238 L 185.985352 51.594238 L 185.061523 51.594238 L 185.061523 40.594238 Z " fill="rgb(35, 102, 236)" fill-opacity="1.000000" />
<path d="M 210.252441 40.980957 L 216.370117 40.980957 L 216.370117 41.894043 L 213.861816 41.894043 L 213.861816 49.000000 L 212.771484 49.000000 L 212.771484 41.894043 L 210.252441 41.894043 Z " fill="rgb(255, 255, 255)" fill-opacity="1.000000" />
<path d="M 218.058105 40.980957 L 222.816895 40.980957 L 222.816895 41.894043 L 219.143066 41.894043 L 219.143066 44.053223 L 222.655762 44.053223 L 222.655762 44.966309 L 219.143066 44.966309 L 219.143066 48.086914 L 222.918945 48.086914 L 222.918945 49.000000 L 218.058105 49.000000 Z " fill="rgb(255, 255, 255)" fill-opacity="1.000000" />
<path d="M 224.461914 40.980957 L 225.627441 40.980957 L 227.389160 44.004883 L 229.183105 40.980957 L 230.348633 40.980957 L 227.947754 44.751465 L 230.520508 49.000000 L 229.354980 49.000000 L 227.389160 45.546387 L 225.267578 49.000000 L 224.096680 49.000000 L 226.782227 44.751465 Z " fill="rgb(255, 255, 255)" fill-opacity="1.000000" />
<path d="M 231.252441 40.980957 L 237.370117 40.980957 L 237.370117 41.894043 L 234.861816 41.894043 L 234.861816 49.000000 L 233.771484 49.000000 L 233.771484 41.894043 L 231.252441 41.894043 Z " fill="rgb(255, 255, 255)" fill-opacity="1.000000" />
<path d="M 269.985352 40.594238 L 269.985352 51.594238 L 269.061523 51.594238 L 269.061523 40.594238 Z " fill="rgb(35, 102, 236)" fill-opacity="1.000000" />
<path d="M 274.573730 40.980957 L 278.795410 50.020508 L 277.774902 50.020508 L 273.547852 40.980957 Z " fill="rgb(101, 101, 101)" fill-opacity="1.000000" />
<path d="M 65.143066 28.872559 L 65.143066 31.885742 L 66.399902 31.885742 Q 67.151855 31.885742 67.573486 31.488281 Q 67.995117 31.090820 67.995117 30.376465 Q 67.995117 29.662109 67.576172 29.267334 Q 67.157227 28.872559 66.399902 28.872559 Z M 64.058105 27.980957 L 66.399902 27.980957 Q 67.742676 27.980957 68.435547 28.590576 Q 69.128418 29.200195 69.128418 30.376465 Q 69.128418 31.563477 68.438232 32.170410 Q 67.748047 32.777344 66.399902 32.777344 L 65.143066 32.777344 L 65.143066 36.000000 L 64.058105 36.000000 Z " fill="rgb(255, 255, 255)" fill-opacity="1.000000" />
<path d="M 74.860840 31.998535 Q 74.860840 30.231445 74.498291 29.474121 Q 74.135742 28.716797 73.308594 28.716797 Q 72.486816 28.716797 72.124268 29.474121 Q 71.761719 30.231445 71.761719 31.998535 Q 71.761719 33.760254 72.124268 34.517578 Q 72.486816 35.274902 73.308594 35.274902 Q 74.135742 35.274902 74.498291 34.520264 Q 74.860840 33.765625 74.860840 31.998535 Z M 75.994141 31.998535 Q 75.994141 34.093262 75.330811 35.124512 Q 74.667480 36.155762 73.308594 36.155762 Q 71.949707 36.155762 71.289062 35.129883 Q 70.628418 34.104004 70.628418 31.998535 Q 70.628418 29.898438 71.291748 28.867188 Q 71.955078 27.835938 73.308594 27.835938 Q 74.667480 27.835938 75.330811 28.867188 Q 75.994141 29.898438 75.994141 31.998535 Z " fill="rgb(255, 255, 255)" fill-opacity="1.000000" />
<path d="M 82.435547 28.254883 L 82.435547 29.355957 Q 81.941406 29.039062 81.444580 28.877930 Q 80.947754 28.716797 80.442871 28.716797 Q 79.674805 28.716797 79.229004 29.073975 Q 78.783203 29.431152 78.783203 30.038086 Q 78.783203 30.569824 79.075928 30.849121 Q 79.368652 31.128418 80.168945 31.316406 L 80.738281 31.445312 Q 81.866211 31.708496 82.381836 32.272461 Q 82.897461 32.836426 82.897461 33.808594 Q 82.897461 34.952637 82.188477 35.554199 Q 81.479492 36.155762 80.125977 36.155762 Q 79.562012 36.155762 78.992676 36.034912 Q 78.423340 35.914062 77.848633 35.672363 L 77.848633 34.517578 Q 78.466309 34.909668 79.016846 35.092285 Q 79.567383 35.274902 80.125977 35.274902 Q 80.947754 35.274902 81.404297 34.906982 Q 81.860840 34.539062 81.860840 33.878418 Q 81.860840 33.276855 81.546631 32.959961 Q 81.232422 32.643066 80.453613 32.471191 L 79.873535 32.336914 Q 78.756348 32.084473 78.251465 31.574219 Q 77.746582 31.063965 77.746582 30.204590 Q 77.746582 29.130371 78.468994 28.483154 Q 79.191406 27.835938 80.389160 27.835938 Q 80.851074 27.835938 81.361328 27.940674 Q 81.871582 28.045410 82.435547 28.254883 Z " fill="rgb(255, 255, 255)" fill-opacity="1.000000" />
<path d="M 84.252441 27.980957 L 90.370117 27.980957 L 90.370117 28.894043 L 87.861816 28.894043 L 87.861816 36.000000 L 86.771484 36.000000 L 86.771484 28.894043 L 84.252441 28.894043 Z " fill="rgb(255, 255, 255)" fill-opacity="1.000000" />
<path d="M 96.929688 35.339355 Q 96.494629 35.742188 95.949463 35.948975 Q 95.404297 36.155762 94.770508 36.155762 Q 93.245117 36.155762 92.396484 35.062744 Q 91.547852 33.969727 91.547852 31.998535 Q 91.547852 30.032715 92.407227 28.934326 Q 93.266602 27.835938 94.797363 27.835938 Q 95.302246 27.835938 95.764160 27.978271 Q 96.226074 28.120605 96.655762 28.410645 L 96.655762 29.522461 Q 96.220703 29.108887 95.764160 28.912842 Q 95.307617 28.716797 94.797363 28.716797 Q 93.739258 28.716797 93.210205 29.535889 Q 92.681152 30.354980 92.681152 31.998535 Q 92.681152 33.668945 93.194092 34.471924 Q 93.707031 35.274902 94.770508 35.274902 Q 95.130371 35.274902 95.401611 35.191650 Q 95.672852 35.108398 95.893066 34.931152 L 95.893066 32.777344 L 94.727539 32.777344 L 94.727539 31.885742 L 96.929688 31.885742 Z " fill="rgb(255, 255, 255)" fill-opacity="1.000000" />
<path d="M 102.082031 32.213379 Q 102.500977 32.320801 102.796387 32.618896 Q 103.091797 32.916992 103.532227 33.808594 L 104.622559 36.000000 L 103.457031 36.000000 L 102.500977 33.975098 Q 102.087402 33.110352 101.757080 32.860596 Q 101.426758 32.610840 100.895020 32.610840 L 99.858398 32.610840 L 99.858398 36.000000 L 98.768066 36.000000 L 98.768066 27.980957 L 101.002441 27.980957 Q 102.323730 27.980957 103.027344 28.577148 Q 103.730957 29.173340 103.730957 30.301270 Q 103.730957 31.096191 103.298584 31.598389 Q 102.866211 32.100586 102.082031 32.213379 Z M 99.858398 28.872559 L 99.858398 31.719238 L 101.045410 31.719238 Q 101.824219 31.719238 102.205566 31.370117 Q 102.586914 31.020996 102.586914 30.301270 Q 102.586914 29.608398 102.181396 29.240479 Q 101.775879 28.872559 101.002441 28.872559 Z " fill="rgb(255, 255, 255)" fill-opacity="1.000000" />
<path d="M 106.058105 27.980957 L 110.816895 27.980957 L 110.816895 28.894043 L 107.143066 28.894043 L 107.143066 31.053223 L 110.655762 31.053223 L 110.655762 31.966309 L 107.143066 31.966309 L 107.143066 35.086914 L 110.918945 35.086914 L 110.918945 36.000000 L 106.058105 36.000000 Z " fill="rgb(255, 255, 255)" fill-opacity="1.000000" />
<path d="M 117.435547 28.254883 L 117.435547 29.355957 Q 116.941406 29.039062 116.444580 28.877930 Q 115.947754 28.716797 115.442871 28.716797 Q 114.674805 28.716797 114.229004 29.073975 Q 113.783203 29.431152 113.783203 30.038086 Q 113.783203 30.569824 114.075928 30.849121 Q 114.368652 31.128418 115.168945 31.316406 L 115.738281 31.445312 Q 116.866211 31.708496 117.381836 32.272461 Q 117.897461 32.836426 117.897461 33.808594 Q 117.897461 34.952637 117.188477 35.554199 Q 116.479492 36.155762 115.125977 36.155762 Q 114.562012 36.155762 113.992676 36.034912 Q 113.423340 35.914062 112.848633 35.672363 L 112.848633 34.517578 Q 113.466309 34.909668 114.016846 35.092285 Q 114.567383 35.274902 115.125977 35.274902 Q 115.947754 35.274902 116.404297 34.906982 Q 116.860840 34.539062 116.860840 33.878418 Q 116.860840 33.276855 116.546631 32.959961 Q 116.232422 32.643066 115.453613 32.471191 L 114.873535 32.336914 Q 113.756348 32.084473 113.251465 31.574219 Q 112.746582 31.063965 112.746582 30.204590 Q 112.746582 29.130371 113.468994 28.483154 Q 114.191406 27.835938 115.389160 27.835938 Q 115.851074 27.835938 116.361328 27.940674 Q 116.871582 28.045410 117.435547 28.254883 Z " fill="rgb(255, 255, 255)" fill-opacity="1.000000" />
<path d="M 122.867188 27.105469 L 122.867188 36.913086 L 120.589844 36.913086 L 120.589844 36.145020 L 121.878906 36.145020 L 121.878906 27.873535 L 120.589844 27.873535 L 120.589844 27.105469 Z " fill="rgb(255, 255, 255)" fill-opacity="1.000000" />
<path d="M 185.867188 29.672852 L 185.867188 32.052246 L 188.257324 32.052246 L 188.257324 32.959961 L 185.867188 32.959961 L 185.867188 35.339355 L 184.964844 35.339355 L 184.964844 32.959961 L 182.580078 32.959961 L 182.580078 32.052246 L 184.964844 32.052246 L 184.964844 29.672852 Z " fill="rgb(35, 102, 236)" fill-opacity="1.000000" />
<path d="M 189.547852 32.111328 L 195.241211 32.111328 L 195.241211 33.019043 L 189.547852 33.019043 Z " fill="rgb(35, 102, 236)" fill-opacity="1.000000" />
<path d="M 196.547852 32.111328 L 202.241211 32.111328 L 202.241211 33.019043 L 196.547852 33.019043 Z " fill="rgb(35, 102, 236)" fill-opacity="1.000000" />
<path d="M 203.547852 32.111328 L 209.241211 32.111328 L 209.241211 33.019043 L 203.547852 33.019043 Z " fill="rgb(35, 102, 236)" fill-opacity="1.000000" />
<path d="M 210.547852 32.111328 L 216.241211 32.111328 L 216.241211 33.019043 L 210.547852 33.019043 Z " fill="rgb(35, 102, 236)" fill-opacity="1.000000" />
<path d="M 217.547852 32.111328 L 223.241211 32.111328 L 223.241211 33.019043 L 217.547852 33.019043 Z " fill="rgb(35, 102, 236)" fill-opacity="1.000000" />
<path d="M 224.547852 32.111328 L 230.241211 32.111328 L 230.241211 33.019043 L 224.547852 33.019043 Z " fill="rgb(35, 102, 236)" fill-opacity="1.000000" />
<path d="M 231.547852 32.111328 L 237.241211 32.111328 L 237.241211 33.019043 L 231.547852 33.019043 Z " fill="rgb(35, 102, 236)" fill-opacity="1.000000" />
<path d="M 238.547852 32.111328 L 244.241211 32.111328 L 244.241211 33.019043 L 238.547852 33.019043 Z " fill="rgb(35, 102, 236)" fill-opacity="1.000000" />
<path d="M 245.547852 32.111328 L 251.241211 32.111328 L 251.241211 33.019043 L 245.547852 33.019043 Z " fill="rgb(35, 102, 236)" fill-opacity="1.000000" />
<path d="M 252.547852 32.111328 L 258.241211 32.111328 L 258.241211 33.019043 L 252.547852 33.019043 Z " fill="rgb(35, 102, 236)" fill-opacity="1.000000" />
<path d="M 259.547852 32.111328 L 265.241211 32.111328 L 265.241211 33.019043 L 259.547852 33.019043 Z " fill="rgb(35, 102, 236)" fill-opacity="1.000000" />
<path d="M 269.867188 29.672852 L 269.867188 32.052246 L 272.257324 32.052246 L 272.257324 32.959961 L 269.867188 32.959961 L 269.867188 35.339355 L 268.964844 35.339355 L 268.964844 32.959961 L 266.580078 32.959961 L 266.580078 32.052246 L 268.964844 32.052246 L 268.964844 29.672852 Z " fill="rgb(35, 102, 236)" fill-opacity="1.000000" />
<path d="M 274.573730 27.980957 L 278.795410 37.020508 L 277.774902 37.020508 L 273.547852 27.980957 Z " fill="rgb(101, 101, 101)" fill-opacity="1.000000" />
<path d="M 185.985352 14.594238 L 185.985352 25.594238 L 185.061523 25.594238 L 185.061523 14.594238 Z " fill="rgb(35, 102, 236)" fill-opacity="1.000000" />
<path d="M 206.308594 22.086914 L 208.193848 14.980957 L 209.316406 14.980957 L 206.969238 23.000000 L 205.653320 23.000000 L 203.306152 14.980957 L 204.428711 14.980957 Z " fill="rgb(255, 255, 255)" fill-opacity="1.000000" />
<path d="M 211.058105 14.980957 L 215.816895 14.980957 L 215.816895 15.894043 L 212.143066 15.894043 L 212.143066 18.053223 L 215.655762 18.053223 L 215.655762 18.966309 L 212.143066 18.966309 L 212.143066 22.086914 L 215.918945 22.086914 L 215.918945 23.000000 L 211.058105 23.000000 Z " fill="rgb(255, 255, 255)" fill-opacity="1.000000" />
<path d="M 222.763184 22.715332 Q 222.349609 22.935547 221.914551 23.045654 Q 221.479492 23.155762 220.990723 23.155762 Q 219.449219 23.155762 218.597900 22.065430 Q 217.746582 20.975098 217.746582 18.998535 Q 217.746582 17.032715 218.603271 15.934326 Q 219.459961 14.835938 220.990723 14.835938 Q 221.479492 14.835938 221.914551 14.946045 Q 222.349609 15.056152 222.763184 15.276367 L 222.763184 16.388184 Q 222.365723 16.060547 221.909180 15.888672 Q 221.452637 15.716797 220.990723 15.716797 Q 219.932617 15.716797 219.406250 16.533203 Q 218.879883 17.349609 218.879883 18.998535 Q 218.879883 20.642090 219.406250 21.458496 Q 219.932617 22.274902 220.990723 22.274902 Q 221.463379 22.274902 221.917236 22.103027 Q 222.371094 21.931152 222.763184 21.603516 Z " fill="rgb(255, 255, 255)" fill-opacity="1.000000" />
<path d="M 224.252441 14.980957 L 230.370117 14.980957 L 230.370117 15.894043 L 227.861816 15.894043 L 227.861816 23.000000 L 226.771484 23.000000 L 226.771484 15.894043 L 224.252441 15.894043 Z " fill="rgb(255, 255, 255)" fill-opacity="1.000000" />
<path d="M 235.860840 18.998535 Q 235.860840 17.231445 235.498291 16.474121 Q 235.135742 15.716797 234.308594 15.716797 Q 233.486816 15.716797 233.124268 16.474121 Q 232.761719 17.231445 232.761719 18.998535 Q 232.761719 20.760254 233.124268 21.517578 Q 233.486816 22.274902 234.308594 22.274902 Q 235.135742 22.274902 235.498291 21.520264 Q 235.860840 20.765625 235.860840 18.998535 Z M 236.994141 18.998535 Q 236.994141 21.093262 236.330811 22.124512 Q 235.667480 23.155762 234.308594 23.155762 Q 232.949707 23.155762 232.289062 22.129883 Q 231.628418 21.104004 231.628418 18.998535 Q 231.628418 16.898438 232.291748 15.867188 Q 232.955078 14.835938 234.308594 14.835938 Q 235.667480 14.835938 236.330811 15.867188 Q 236.994141 16.898438 236.994141 18.998535 Z " fill="rgb(255, 255, 255)" fill-opacity="1.000000" />
<path d="M 242.082031 19.213379 Q 242.500977 19.320801 242.796387 19.618896 Q 243.091797 19.916992 243.532227 20.808594 L 244.622559 23.000000 L 243.457031 23.000000 L 242.500977 20.975098 Q 242.087402 20.110352 241.757080 19.860596 Q 241.426758 19.610840 240.895020 19.610840 L 239.858398 19.610840 L 239.858398 23.000000 L 238.768066 23.000000 L 238.768066 14.980957 L 241.002441 14.980957 Q 242.323730 14.980957 243.027344 15.577148 Q 243.730957 16.173340 243.730957 17.301270 Q 243.730957 18.096191 243.298584 18.598389 Q 242.866211 19.100586 242.082031 19.213379 Z M 239.858398 15.872559 L 239.858398 18.719238 L 241.045410 18.719238 Q 241.824219 18.719238 242.205566 18.370117 Q 242.586914 18.020996 242.586914 17.301270 Q 242.586914 16.608398 242.181396 16.240479 Q 241.775879 15.872559 241.002441 15.872559 Z " fill="rgb(255, 255, 255)" fill-opacity="1.000000" />
<path d="M 250.435547 15.254883 L 250.435547 16.355957 Q 249.941406 16.039062 249.444580 15.877930 Q 248.947754 15.716797 248.442871 15.716797 Q 247.674805 15.716797 247.229004 16.073975 Q 246.783203 16.431152 246.783203 17.038086 Q 246.783203 17.569824 247.075928 17.849121 Q 247.368652 18.128418 248.168945 18.316406 L 248.738281 18.445312 Q 249.866211 18.708496 250.381836 19.272461 Q 250.897461 19.836426 250.897461 20.808594 Q 250.897461 21.952637 250.188477 22.554199 Q 249.479492 23.155762 248.125977 23.155762 Q 247.562012 23.155762 246.992676 23.034912 Q 246.423340 22.914062 245.848633 22.672363 L 245.848633 21.517578 Q 246.466309 21.909668 247.016846 22.092285 Q 247.567383 22.274902 248.125977 22.274902 Q 248.947754 22.274902 249.404297 21.906982 Q 249.860840 21.539062 249.860840 20.878418 Q 249.860840 20.276855 249.546631 19.959961 Q 249.232422 19.643066 248.453613 19.471191 L 247.873535 19.336914 Q 246.756348 19.084473 246.251465 18.574219 Q 245.746582 18.063965 245.746582 17.204590 Q 245.746582 16.130371 246.468994 15.483154 Q 247.191406 14.835938 248.389160 14.835938 Q 248.851074 14.835938 249.361328 14.940674 Q 249.871582 15.045410 250.435547 15.254883 Z " fill="rgb(255, 255, 255)" fill-opacity="1.000000" />
<path d="M 269.985352 14.594238 L 269.985352 25.594238 L 269.061523 25.594238 L 269.061523 14.594238 Z " fill="rgb(35, 102, 236)" fill-opacity="1.000000" />
<path d="M 274.573730 14.980957 L 278.795410 24.020508 L 277.774902 24.020508 L 273.547852 14.980957 Z " fill="rgb(101, 101, 101)" fill-opacity="1.000000" />
<path d="M 7.547852 6.111328 L 13.241211 6.111328 L 13.241211 7.019043 L 7.547852 7.019043 Z " fill="rgb(35, 102, 236)" fill-opacity="1.000000" />
<path d="M 14.547852 6.111328 L 20.241211 6.111328 L 20.241211 7.019043 L 14.547852 7.019043 Z " fill="rgb(35, 102, 236)" fill-opacity="1.000000" />
<path d="M 21.547852 6.111328 L 27.241211 6.111328 L 27.241211 7.019043 L 21.547852 7.019043 Z " fill="rgb(35, 102, 236)" fill-opacity="1.000000" />
<path d="M 28.547852 6.111328 L 34.241211 6.111328 L 34.241211 7.019043 L 28.547852 7.019043 Z " fill="rgb(35, 102, 236)" fill-opacity="1.000000" />
<path d="M 35.547852 6.111328 L 41.241211 6.111328 L 41.241211 7.019043 L 35.547852 7.019043 Z " fill="rgb(35, 102, 236)" fill-opacity="1.000000" />
<path d="M 42.547852 6.111328 L 48.241211 6.111328 L 48.241211 7.019043 L 42.547852 7.019043 Z " fill="rgb(35, 102, 236)" fill-opacity="1.000000" />
<path d="M 49.547852 6.111328 L 55.241211 6.111328 L 55.241211 7.019043 L 49.547852 7.019043 Z " fill="rgb(35, 102, 236)" fill-opacity="1.000000" />
<path d="M 56.547852 6.111328 L 62.241211 6.111328 L 62.241211 7.019043 L 56.547852 7.019043 Z " fill="rgb(35, 102, 236)" fill-opacity="1.000000" />
<path d="M 63.547852 6.111328 L 69.241211 6.111328 L 69.241211 7.019043 L 63.547852 7.019043 Z " fill="rgb(35, 102, 236)" fill-opacity="1.000000" />
<path d="M 70.547852 6.111328 L 76.241211 6.111328 L 76.241211 7.019043 L 70.547852 7.019043 Z " fill="rgb(35, 102, 236)" fill-opacity="1.000000" />
<path d="M 77.547852 6.111328 L 83.241211 6.111328 L 83.241211 7.019043 L 77.547852 7.019043 Z " fill="rgb(35, 102, 236)" fill-opacity="1.000000" />
<path d="M 84.547852 6.111328 L 90.241211 6.111328 L 90.241211 7.019043 L 84.547852 7.019043 Z " fill="rgb(35, 102, 236)" fill-opacity="1.000000" />
<path d="M 91.547852 6.111328 L 97.241211 6.111328 L 97.241211 7.019043 L 91.547852 7.019043 Z " fill="rgb(35, 102, 236)" fill-opacity="1.000000" />
<path d="M 98.547852 6.111328 L 104.241211 6.111328 L 104.241211 7.019043 L 98.547852 7.019043 Z " fill="rgb(35, 102, 236)" fill-opacity="1.000000" />
<path d="M 105.547852 6.111328 L 111.241211 6.111328 L 111.241211 7.019043 L 105.547852 7.019043 Z " fill="rgb(35, 102, 236)" fill-opacity="1.000000" />
<path d="M 112.547852 6.111328 L 118.241211 6.111328 L 118.241211 7.019043 L 112.547852 7.019043 Z " fill="rgb(35, 102, 236)" fill-opacity="1.000000" />
<path d="M 119.547852 6.111328 L 125.241211 6.111328 L 125.241211 7.019043 L 119.547852 7.019043 Z " fill="rgb(35, 102, 236)" fill-opacity="1.000000" />
<path d="M 126.547852 6.111328 L 132.241211 6.111328 L 132.241211 7.019043 L 126.547852 7.019043 Z " fill="rgb(35, 102, 236)" fill-opacity="1.000000" />
<path d="M 133.547852 6.111328 L 139.241211 6.111328 L 139.241211 7.019043 L 133.547852 7.019043 Z " fill="rgb(35, 102, 236)" fill-opacity="1.000000" />
<path d="M 140.547852 6.111328 L 146.241211 6.111328 L 146.241211 7.019043 L 140.547852 7.019043 Z " fill="rgb(35, 102, 236)" fill-opacity="1.000000" />
<path d="M 147.547852 6.111328 L 153.241211 6.111328 L 153.241211 7.019043 L 147.547852 7.019043 Z " fill="rgb(35, 102, 236)" fill-opacity="1.000000" />
<path d="M 154.547852 6.111328 L 160.241211 6.111328 L 160.241211 7.019043 L 154.547852 7.019043 Z " fill="rgb(35, 102, 236)" fill-opacity="1.000000" />
<path d="M 161.547852 6.111328 L 167.241211 6.111328 L 167.241211 7.019043 L 161.547852 7.019043 Z " fill="rgb(35, 102, 236)" fill-opacity="1.000000" />
<path d="M 168.547852 6.111328 L 174.241211 6.111328 L 174.241211 7.019043 L 168.547852 7.019043 Z " fill="rgb(35, 102, 236)" fill-opacity="1.000000" />
<path d="M 175.547852 6.111328 L 181.241211 6.111328 L 181.241211 7.019043 L 175.547852 7.019043 Z " fill="rgb(35, 102, 236)" fill-opacity="1.000000" />
<path d="M 185.867188 3.672852 L 185.867188 6.052246 L 188.257324 6.052246 L 188.257324 6.959961 L 185.867188 6.959961 L 185.867188 9.339355 L 184.964844 9.339355 L 184.964844 6.959961 L 182.580078 6.959961 L 182.580078 6.052246 L 184.964844 6.052246 L 184.964844 3.672852 Z " fill="rgb(35, 102, 236)" fill-opacity="1.000000" />
<path d="M 189.547852 6.111328 L 195.241211 6.111328 L 195.241211 7.019043 L 189.547852 7.019043 Z " fill="rgb(35, 102, 236)" fill-opacity="1.000000" />
<path d="M 196.547852 6.111328 L 202.241211 6.111328 L 202.241211 7.019043 L 196.547852 7.019043 Z " fill="rgb(35, 102, 236)" fill-opacity="1.000000" />
<path d="M 203.547852 6.111328 L 209.241211 6.111328 L 209.241211 7.019043 L 203.547852 7.019043 Z " fill="rgb(35, 102, 236)" fill-opacity="1.000000" />
<path d="M 210.547852 6.111328 L 216.241211 6.111328 L 216.241211 7.019043 L 210.547852 7.019043 Z " fill="rgb(35, 102, 236)" fill-opacity="1.000000" />
<path d="M 217.547852 6.111328 L 223.241211 6.111328 L 223.241211 7.019043 L 217.547852 7.019043 Z " fill="rgb(35, 102, 236)" fill-opacity="1.000000" />
<path d="M 224.547852 6.111328 L 230.241211 6.111328 L 230.241211 7.019043 L 224.547852 7.019043 Z " fill="rgb(35, 102, 236)" fill-opacity="1.000000" />
<path d="M 231.547852 6.111328 L 237.241211 6.111328 L 237.241211 7.019043 L 231.547852 7.019043 Z " fill="rgb(35, 102, 236)" fill-opacity="1.000000" />
<path d="M 238.547852 6.111328 L 244.241211 6.111328 L 244.241211 7.019043 L 238.547852 7.019043 Z " fill="rgb(35, 102, 236)" fill-opacity="1.000000" />
<path d="M 245.547852 6.111328 L 251.241211 6.111328 L 251.241211 7.019043 L 245.547852 7.019043 Z " fill="rgb(35, 102, 236)" fill-opacity="1.000000" />
<path d="M 252.547852 6.111328 L 258.241211 6.111328 L 258.241211 7.019043 L 252.547852 7.019043 Z " fill="rgb(35, 102, 236)" fill-opacity="1.000000" />
<path d="M 259.547852 6.111328 L 265.241211 6.111328 L 265.241211 7.019043 L 259.547852 7.019043 Z " fill="rgb(35, 102, 236)" fill-opacity="1.000000" />
<path d="M 269.867188 3.672852 L 269.867188 6.052246 L 272.257324 6.052246 L 272.257324 6.959961 L 269.867188 6.959961 L 269.867188 9.339355 L 268.964844 9.339355 L 268.964844 6.959961 L 266.580078 6.959961 L 266.580078 6.052246 L 268.964844 6.052246 L 268.964844 3.672852 Z " fill="rgb(35, 102, 236)" fill-opacity="1.000000" />
</svg>