<svg xmlns="http://www.w3.org/2000/svg" version="1.1" width="281" height="79">
<path d="M 3.867188 3.672852 L 3.867188 6.052246 L 6.257324 6.052246 L 6.257324 6.959961 L 3.867188 6.959961 L 3.867188 9.339355 L 2.964844 9.339355 L 2.964844 6.959961 L 0.580078 6.959961 L 0.580078 6.052246 L 2.964844 6.052246 L 2.964844 3.672852 Z " fill="rgb(255, 255, 255)" fill-opacity="1.000000" />
<path d="M 3.985352 14.594238 L 3.985352 25.594238 L 3.061523 25.594238 L 3.061523 14.594238 Z " fill="rgb(255, 255, 255)" fill-opacity="1.000000" />
<path d="M 3.867188 29.672852 L 3.867188 32.052246 L 6.257324 32.052246 L 6.257324 32.959961 L 3.867188 32.959961 L 3.867188 35.339355 L 2.964844 35.339355 L 2.964844 32.959961 L 0.580078 32.959961 L 0.580078 32.052246 L 2.964844 32.052246 L 2.964844 29.672852 Z " fill="rgb(255, 255, 255)" fill-opacity="1.000000" />
<path d="M 3.985352 40.594238 L 3.985352 51.594238 L 3.061523 51.594238 L 3.061523 40.594238 Z " fill="rgb(255, 255, 255)" fill-opacity="1.000000" />
<path d="M 3.867188 55.672852 L 3.867188 58.052246 L 6.257324 58.052246 L 6.257324 58.959961 L 3.867188 58.959961 L 3.867188 61.339355 L 2.964844 61.339355 L 2.964844 58.959961 L 0.580078 58.959961 L 0.580078 58.052246 L 2.964844 58.052246 L 2.964844 55.672852 Z " fill="rgb(255, 255, 255)" fill-opacity="1.000000" />
<path d="M 8.573730 66.980957 L 12.795410 76.020508 L 11.774902 76.020508 L 7.547852 66.980957 Z " fill="rgb(101, 101, 101)" fill-opacity="1.000000" />
<path d="M 15.573730 66.980957 L 19.795410 76.020508 L 18.774902 76.020508 L 14.547852 66.980957 Z " fill="rgb(101, 101, 101)" fill-opacity="1.000000" />
<path d="M 22.573730 66.980957 L 26.795410 76.020508 L 25.774902 76.020508 L 21.547852 66.980957 Z " fill="rgb(101, 101, 101)" fill-opacity="1.000000" />
<path d="M 29.573730 66.980957 L 33.795410 76.020508 L 32.774902 76.020508 L 28.547852 66.980957 Z " fill="rgb(101, 101, 101)" fill-opacity="1.000000" />
<path d="M 36.573730 66.980957 L 40.795410 76.020508 L 39.774902 76.020508 L 35.547852 66.980957 Z " fill="rgb(101, 101, 101)" fill-opacity="1.000000" />
<path d="M 43.573730 66.980957 L 47.795410 76.020508 L 46.774902 76.020508 L 42.547852 66.980957 Z " fill="rgb(101, 101, 101)" fill-opacity="1.000000" />
<path d="M 50.573730 66.980957 L 54.795410 76.020508 L 53.774902 76.020508 L 49.547852 66.980957 Z " fill="rgb(101, 101, 101)" fill-opacity="1.000000" />
<path d="M 57.573730 66.980957 L 61.795410 76.020508 L 60.774902 76.020508 L 56.547852 66.980957 Z " fill="rgb(101, 101, 101)" fill-opacity="1.000000" />
<path d="M 64.573730 66.980957 L 68.795410 76.020508 L 67.774902 76.020508 L 63.547852 66.980957 Z " fill="rgb(101, 101, 101)" fill-opacity="1.000000" />
<path d="M 71.573730 66.980957 L 75.795410 76.020508 L 74.774902 76.020508 L 70.547852 66.980957 Z " fill="rgb(101, 101, 101)" fill-opacity="1.000000" />
<path d="M 78.573730 66.980957 L 82.795410 76.020508 L 81.774902 76.020508 L 77.547852 66.980957 Z " fill="rgb(101, 101, 101)" fill-opacity="1.000000" />
<path d="M 85.573730 66.980957 L 89.795410 76.020508 L 88.774902 76.020508 L 84.547852 66.980957 Z " fill="rgb(101, 101, 101)" fill-opacity="1.000000" />
<path d="M 92.573730 66.980957 L 96.795410 76.020508 L 95.774902 76.020508 L 91.547852 66.980957 Z " fill="rgb(101, 101, 101)" fill-opacity="1.000000" />
<path d="M 99.573730 66.980957 L 103.795410 76.020508 L 102.774902 76.020508 L 98.547852 66.980957 Z " fill="rgb(101, 101, 101)" fill-opacity="1.000000" />
<path d="M 106.573730 66.980957 L 110.795410 76.020508 L 109.774902 76.020508 L 105.547852 66.980957 Z " fill="rgb(101, 101, 101)" fill-opacity="1.000000" />
<path d="M 113.573730 66.980957 L 117.795410 76.020508 L 116.774902 76.020508 L 112.547852 66.980957 Z " fill="rgb(101, 101, 101)" fill-opacity="1.000000" />
<path d="M 120.573730 66.980957 L 124.795410 76.020508 L 123.774902 76.020508 L 119.547852 66.980957 Z " fill="rgb(101, 101, 101)" fill-opacity="1.000000" />
<path d="M 127.573730 66.980957 L 131.795410 76.020508 L 130.774902 76.020508 L 126.547852 66.980957 Z " fill="rgb(101, 101, 101)" fill-opacity="1.000000" />
<path d="M 134.573730 66.980957 L 138.795410 76.020508 L 137.774902 76.020508 L 133.547852 66.980957 Z " fill="rgb(101, 101, 101)" fill-opacity="1.000000" />
<path d="M 141.573730 66.980957 L 145.795410 76.020508 L 144.774902 76.020508 L 140.547852 66.980957 Z " fill="rgb(101, 101, 101)" fill-opacity="1.000000" />
<path d="M 148.573730 66.980957 L 152.795410 76.020508 L 151.774902 76.020508 L 147.547852 66.980957 Z " fill="rgb(101, 101, 101)" fill-opacity="1.000000" />
<path d="M 155.573730 66.980957 L 159.795410 76.020508 L 158.774902 76.020508 L 154.547852 66.980957 Z " fill="rgb(101, 101, 101)" fill-opacity="1.000000" />
<path d="M 162.573730 66.980957 L 166.795410 76.020508 L 165.774902 76.020508 L 161.547852 66.980957 Z " fill="rgb(101, 101, 101)" fill-opacity="1.000000" />
<path d="M 169.573730 66.980957 L 173.795410 76.020508 L 172.774902 76.020508 L 168.547852 66.980957 Z " fill="rgb(101, 101, 101)" fill-opacity="1.000000" />
<path d="M 176.573730 66.980957 L 180.795410 76.020508 L 179.774902 76.020508 L 175.547852 66.980957 Z " fill="rgb(101, 101, 101)" fill-opacity="1.000000" />
<path d="M 183.573730 66.980957 L 187.795410 76.020508 L 186.774902 76.020508 L 182.547852 66.980957 Z " fill="rgb(101, 101, 101)" fill-opacity="1.000000" />
<path d="M 190.573730 66.980957 L 194.795410 76.020508 L 193.774902 76.020508 L 189.547852 66.980957 Z " fill="rgb(101, 101, 101)" fill-opacity="1.000000" />
<path d="M 197.573730 66.980957 L 201.795410 76.020508 L 200.774902 76.020508 L 196.547852 66.980957 Z " fill="rgb(101, 101, 101)" fill-opacity="1.000000" />
<path d="M 204.573730 66.980957 L 208.795410 76.020508 L 207.774902 76.020508 L 203.547852 66.980957 Z " fill="rgb(101, 101, 101)" fill-opacity="1.000000" />
<path d="M 211.573730 66.980957 L 215.795410 76.020508 L 214.774902 76.020508 L 210.547852 66.980957 Z " fill="rgb(101, 101, 101)" fill-opacity="1.000000" />
<path d="M 218.573730 66.980957 L 222.795410 76.020508 L 221.774902 76.020508 L 217.547852 66.980957 Z " fill="rgb(101, 101, 101)" fill-opacity="1.000000" />
<path d="M 225.573730 66.980957 L 229.795410 76.020508 L 228.774902 76.020508 L 224.547852 66.980957 Z " fill="rgb(101, 101, 101)" fill-opacity="1.000000" />
<path d="M 232.573730 66.980957 L 236.795410 76.020508 L 235.774902 76.020508 L 231.547852 66.980957 Z " fill="rgb(101, 101, 101)" fill-opacity="1.000000" />
<path d="M 239.573730 66.980957 L 243.795410 76.020508 L 242.774902 76.020508 L 238.547852 66.980957 Z " fill="rgb(101, 101, 101)" fill-opacity="1.000000" />
<path d="M 246.573730 66.980957 L 250.795410 76.020508 L 249.774902 76.020508 L 245.547852 66.980957 Z " fill="rgb(101, 101, 101)" fill-opacity="1.000000" />
<path d="M 253.573730 66.980957 L 257.795410 76.020508 L 256.774902 76.020508 L 252.547852 66.980957 Z " fill="rgb(101, 101, 101)" fill-opacity="1.000000" />
<path d="M 260.573730 66.980957 L 264.795410 76.020508 L 263.774902 76.020508 L 259.547852 66.980957 Z " fill="rgb(101, 101, 101)" fill-opacity="1.000000" />
<path d="M 267.573730 66.980957 L 271.795410 76.020508 L 270.774902 76.020508 L 266.547852 66.980957 Z " fill="rgb(101, 101, 101)" fill-opacity="1.000000" />
<path d="M 274.573730 66.980957 L 278.795410 76.020508 L 277.774902 76.020508 L 273.547852 66.980957 Z " fill="rgb(101, 101, 101)" fill-opacity="1.000000" />
<path d="M 7.547852 58.111328 L 13.241211 58.111328 L 13.241211 59.019043 L 7.547852 59.019043 Z " fill="rgb(255, 255, 255)" fill-opacity="1.000000" />
<path d="M 14.547852 58.111328 L 20.241211 58.111328 L 20.241211 59.019043 L 14.547852 59.019043 Z " fill="rgb(255, 255, 255)" fill-opacity="1.000000" />
<path d="M 21.547852 58.111328 L 27.241211 58.111328 L 27.241211 59.019043 L 21.547852 59.019043 Z " fill="rgb(255, 255, 255)" fill-opacity="1.000000" />
<path d="M 28.547852 58.111328 L 34.241211 58.111328 L 34.241211 59.019043 L 28.547852 59.019043 Z " fill="rgb(255, 255, 255)" fill-opacity="1.000000" />
<path d="M 35.547852 58.111328 L 41.241211 58.111328 L 41.241211 59.019043 L 35.547852 59.019043 Z " fill="rgb(255, 255, 255)" fill-opacity="1.000000" />
<path d="M 42.547852 58.111328 L 48.241211 58.111328 L 48.241211 59.019043 L 42.547852 59.019043 Z " fill="rgb(255, 255, 255)" fill-opacity="1.000000" />
<path d="M 52.867188 55.672852 L 52.867188 58.052246 L 55.257324 58.052246 L 55.257324 58.959961 L 52.867188 58.959961 L 52.867188 61.339355 L 51.964844 61.339355 L 51.964844 58.959961 L 49.580078 58.959961 L 49.580078 58.052246 L 51.964844 58.052246 L 51.964844 55.672852 Z " fill="rgb(255, 255, 255)" fill-opacity="1.000000" />
<path d="M 56.547852 58.111328 L 62.241211 58.111328 L 62.241211 59.019043 L 56.547852 59.019043 Z " fill="rgb(255, 255, 255)" fill-opacity="1.000000" />
<path d="M 63.547852 58.111328 L 69.241211 58.111328 L 69.241211 59.019043 L 63.547852 59.019043 Z " fill="rgb(255, 255, 255)" fill-opacity="1.000000" />
<path d="M 70.547852 58.111328 L 76.241211 58.111328 L 76.241211 59.019043 L 70.547852 59.019043 Z " fill="rgb(255, 255, 255)" fill-opacity="1.000000" />
<path d="M 77.547852 58.111328 L 83.241211 58.111328 L 83.241211 59.019043 L 77.547852 59.019043 Z " fill="rgb(255, 255, 255)" fill-opacity="1.000000" />
<path d="M 84.547852 58.111328 L 90.241211 58.111328 L 90.241211 59.019043 L 84.547852 59.019043 Z " fill="rgb(255, 255, 255)" fill-opacity="1.000000" />
<path d="M 91.547852 58.111328 L 97.241211 58.111328 L 97.241211 59.019043 L 91.547852 59.019043 Z " fill="rgb(255, 255, 255)" fill-opacity="1.000000" />
<path d="M 98.547852 58.111328 L 104.241211 58.111328 L 104.241211 59.019043 L 98.547852 59.019043 Z " fill="rgb(255, 255, 255)" fill-opacity="1.000000" />
<path d="M 105.547852 58.111328 L 111.241211 58.111328 L 111.241211 59.019043 L 105.547852 59.019043 Z " fill="rgb(255, 255, 255)" fill-opacity="1.000000" />
<path d="M 112.547852 58.111328 L 118.241211 58.111328 L 118.241211 59.019043 L 112.547852 59.019043 Z " fill="rgb(255, 255, 255)" fill-opacity="1.000000" />
<path d="M 119.547852 58.111328 L 125.241211 58.111328 L 125.241211 59.019043 L 119.547852 59.019043 Z " fill="rgb(255, 255, 255)" fill-opacity="1.000000" />
<path d="M 126.547852 58.111328 L 132.241211 58.111328 L 132.241211 59.019043 L 126.547852 59.019043 Z " fill="rgb(255, 255, 255)" fill-opacity="1.000000" />
<path d="M 133.547852 58.111328 L 139.241211 58.111328 L 139.241211 59.019043 L 133.547852 59.019043 Z " fill="rgb(255, 255, 255)" fill-opacity="1.000000" />
<path d="M 140.547852 58.111328 L 146.241211 58.111328 L 146.241211 59.019043 L 140.547852 59.019043 Z " fill="rgb(255, 255, 255)" fill-opacity="1.000000" />
<path d="M 147.547852 58.111328 L 153.241211 58.111328 L 153.241211 59.019043 L 147.547852 59.019043 Z " fill="rgb(255, 255, 255)" fill-opacity="1.000000" />
<path d="M 154.547852 58.111328 L 160.241211 58.111328 L 160.241211 59.019043 L 154.547852 59.019043 Z " fill="rgb(255, 255, 255)" fill-opacity="1.000000" />
<path d="M 161.547852 58.111328 L 167.241211 58.111328 L 167.241211 59.019043 L 161.547852 59.019043 Z " fill="rgb(255, 255, 255)" fill-opacity="1.000000" />
<path d="M 168.547852 58.111328 L 174.241211 58.111328 L 174.241211 59.019043 L 168.547852 59.019043 Z " fill="rgb(255, 255, 255)" fill-opacity="1.000000" />
<path d="M 175.547852 58.111328 L 181.241211 58.111328 L 181.241211 59.019043 L 175.547852 59.019043 Z " fill="rgb(255, 255, 255)" fill-opacity="1.000000" />
<path d="M 182.547852 58.111328 L 188.241211 58.111328 L 188.241211 59.019043 L 182.547852 59.019043 Z " fill="rgb(255, 255, 255)" fill-opacity="1.000000" />
<path d="M 189.547852 58.111328 L 195.241211 58.111328 L 195.241211 59.019043 L 189.547852 59.019043 Z " fill="rgb(255, 255, 255)" fill-opacity="1.000000" />
<path d="M 196.547852 58.111328 L 202.241211 58.111328 L 202.241211 59.019043 L 196.547852 59.019043 Z " fill="rgb(255, 255, 255)" fill-opacity="1.000000" />
<path d="M 203.547852 58.111328 L 209.241211 58.111328 L 209.241211 59.019043 L 203.547852 59.019043 Z " fill="rgb(255, 255, 255)" fill-opacity="1.000000" />
<path d="M 210.547852 58.111328 L 216.241211 58.111328 L 216.241211 59.019043 L 210.547852 59.019043 Z " fill="rgb(255, 255, 255)" fill-opacity="1.000000" />
<path d="M 217.547852 58.111328 L 223.241211 58.111328 L 223.241211 59.019043 L 217.547852 59.019043 Z " fill="rgb(255, 255, 255)" fill-opacity="1.000000" />
<path d="M 224.547852 58.111328 L 230.241211 58.111328 L 230.241211 59.019043 L 224.547852 59.019043 Z " fill="rgb(255, 255, 255)" fill-opacity="1.000000" />
<path d="M 231.547852 58.111328 L 237.241211 58.111328 L 237.241211 59.019043 L 231.547852 59.019043 Z " fill="rgb(255, 255, 255)" fill-opacity="1.000000" />
<path d="M 238.547852 58.111328 L 244.241211 58.111328 L 244.241211 59.019043 L 238.547852 59.019043 Z " fill="rgb(255, 255, 255)" fill-opacity="1.000000" />
<path d="M 245.547852 58.111328 L 251.241211 58.111328 L 251.241211 59.019043 L 245.547852 59.019043 Z " fill="rgb(255, 255, 255)" fill-opacity="1.000000" />
<path d="M 252.547852 58.111328 L 258.241211 58.111328 L 258.241211 59.019043 L 252.547852 59.019043 Z " fill="rgb(255, 255, 255)" fill-opacity="1.000000" />
<path d="M 259.547852 58.111328 L 265.241211 58.111328 L 265.241211 59.019043 L 259.547852 59.019043 Z " fill="rgb(255, 255, 255)" fill-opacity="1.000000" />
<path d="M 269.867188 55.672852 L 269.867188 58.052246 L 272.257324 58.052246 L 272.257324 58.959961 L 269.867188 58.959961 L 269.867188 61.339355 L 268.964844 61.339355 L 268.964844 58.959961 L 266.580078 58.959961 L 266.580078 58.052246 L 268.964844 58.052246 L 268.964844 55.672852 Z " fill="rgb(255, 255, 255)" fill-opacity="1.000000" />
<path d="M 274.573730 53.980957 L 278.795410 63.020508 L 277.774902 63.020508 L 273.547852 53.980957 Z " fill="rgb(101, 101, 101)" fill-opacity="1.000000" />
<path d="M 16.143066 41.872559 L 16.143066 44.885742 L 17.399902 44.885742 Q 18.151855 44.885742 18.573486 44.488281 Q 18.995117 44.090820 18.995117 43.376465 Q 18.995117 42.662109 18.576172 42.267334 Q 18.157227 41.872559 17.399902 41.872559 Z M 15.058105 40.980957 L 17.399902 40.980957 Q 18.742676 40.980957 19.435547 41.590576 Q 20.128418 42.200195 20.128418 43.376465 Q 20.128418 44.563477 19.438232 45.170410 Q 18.748047 45.777344 17.399902 45.777344 L 16.143066 45.777344 L 16.143066 49.000000 L 15.058105 49.000000 Z " fill="rgb(255, 255, 255)" fill-opacity="1.000000" />
<path d="M 25.082031 45.213379 Q 25.500977 45.320801 25.796387 45.618896 Q 26.091797 45.916992 26.532227 46.808594 L 27.622559 49.000000 L 26.457031 49.000000 L 25.500977 46.975098 Q 25.087402 46.110352 24.757080 45.860596 Q 24.426758 45.610840 23.895020 45.610840 L 22.858398 45.610840 L 22.858398 49.000000 L 21.768066 49.000000 L 21.768066 40.980957 L 24.002441 40.980957 Q 25.323730 40.980957 26.027344 41.577148 Q 26.730957 42.173340 26.730957 43.301270 Q 26.730957 44.096191 26.298584 44.598389 Q 25.866211 45.100586 25.082031 45.213379 Z M 22.858398 41.872559 L 22.858398 44.719238 L 24.045410 44.719238 Q 24.824219 44.719238 25.205566 44.370117 Q 25.586914 44.020996 25.586914 43.301270 Q 25.586914 42.608398 25.181396 42.240479 Q 24.775879 41.872559 24.002441 41.872559 Z " fill="rgb(255, 255, 255)" fill-opacity="1.000000" />
<path d="M 32.860840 44.998535 Q 32.860840 43.231445 32.498291 42.474121 Q 32.135742 41.716797 31.308594 41.716797 Q 30.486816 41.716797 30.124268 42.474121 Q 29.761719 43.231445 29.761719 44.998535 Q 29.761719 46.760254 30.124268 47.517578 Q 30.486816 48.274902 31.308594 48.274902 Q 32.135742 48.274902 32.498291 47.520264 Q 32.860840 46.765625 32.860840 44.998535 Z M 33.994141 44.998535 Q 33.994141 47.093262 33.330811 48.124512 Q 32.667480 49.155762 31.308594 49.155762 Q 29.949707 49.155762 29.289062 48.129883 Q 28.628418 47.104004 28.628418 44.998535 Q 28.628418 42.898438 29.291748 41.867188 Q 29.955078 40.835938 31.308594 40.835938 Q 32.667480 40.835938 33.330811 41.867188 Q 33.994141 42.898438 33.994141 44.998535 Z " fill="rgb(255, 255, 255)" fill-opacity="1.000000" />
<path d="M 37.341797 48.108398 Q 38.711426 48.108398 39.253906 47.434326 Q 39.796387 46.760254 39.796387 44.998535 Q 39.796387 43.220703 39.256592 42.546631 Q 38.716797 41.872559 37.341797 41.872559 L 36.826172 41.872559 L 36.826172 48.108398 Z M 37.363281 40.980957 Q 39.200195 40.980957 40.070312 41.958496 Q 40.940430 42.936035 40.940430 44.998535 Q 40.940430 47.050293 40.070312 48.025146 Q 39.200195 49.000000 37.363281 49.000000 L 35.735840 49.000000 L 35.735840 40.980957 Z " fill="rgb(255, 255, 255)" fill-opacity="1.000000" />
<path d="M 52.985352 40.594238 L 52.985352 51.594238 L 52.061523 51.594238 L 52.061523 40.594238 Z " fill="rgb(255, 255, 255)" fill-opacity="1.000000" />
<path d="M 68.435547 41.254883 L 68.435547 42.355957 Q 67.941406 42.039062 67.444580 41.877930 Q 66.947754 41.716797 66.442871 41.716797 Q 65.674805 41.716797 65.229004 42.073975 Q 64.783203 42.431152 64.783203 43.038086 Q 64.783203 43.569824 65.075928 43.849121 Q 65.368652 44.128418 66.168945 44.316406 L 66.738281 44.445312 Q 67.866211 44.708496 68.381836 45.272461 Q 68.897461 45.836426 68.897461 46.808594 Q 68.897461 47.952637 68.188477 48.554199 Q 67.479492 49.155762 66.125977 49.155762 Q 65.562012 49.155762 64.992676 49.034912 Q 64.423340 48.914062 63.848633 48.672363 L 63.848633 47.517578 Q 64.466309 47.909668 65.016846 48.092285 Q 65.567383 48.274902 66.125977 48.274902 Q 66.947754 48.274902 67.404297 47.906982 Q 67.860840 47.539062 67.860840 46.878418 Q 67.860840 46.276855 67.546631 45.959961 Q 67.232422 45.643066 66.453613 45.471191 L 65.873535 45.336914 Q 64.756348 45.084473 64.251465 44.574219 Q 63.746582 44.063965 63.746582 43.204590 Q 63.746582 42.130371 64.468994 41.483154 Q 65.191406 40.835938 66.389160 40.835938 Q 66.851074 40.835938 67.361328 40.940674 Q 67.871582 41.045410 68.435547 41.254883 Z " fill="rgb(153, 153, 153)" fill-opacity="1.000000" />
<path d="M 70.252441 40.980957 L 76.370117 40.980957 L 76.370117 41.894043 L 73.861816 41.894043 L 73.861816 49.000000 L 72.771484 49.000000 L 72.771484 41.894043 L 70.252441 41.894043 Z " fill="rgb(153, 153, 153)" fill-opacity="1.000000" />
<path d="M 80.308594 41.937012 L 79.164551 46.040527 L 81.452637 46.040527 Z M 79.653320 40.980957 L 80.969238 40.980957 L 83.423828 49.000000 L 82.301270 49.000000 L 81.710449 46.910645 L 78.901367 46.910645 L 78.321289 49.000000 L 77.198730 49.000000 Z " fill="rgb(153, 153, 153)" fill-opacity="1.000000" />
<path d="M 89.929688 48.339355 Q 89.494629 48.742188 88.949463 48.948975 Q 88.404297 49.155762 87.770508 49.155762 Q 86.245117 49.155762 85.396484 48.062744 Q 84.547852 46.969727 84.547852 44.998535 Q 84.547852 43.032715 85.407227 41.934326 Q 86.266602 40.835938 87.797363 40.835938 Q 88.302246 40.835938 88.764160 40.978271 Q 89.226074 41.120605 89.655762 41.410645 L 89.655762 42.522461 Q 89.220703 42.108887 88.764160 41.912842 Q 88.307617 41.716797 87.797363 41.716797 Q 86.739258 41.716797 86.210205 42.535889 Q 85.681152 43.354980 85.681152 44.998535 Q 85.681152 46.668945 86.194092 47.471924 Q 86.707031 48.274902 87.770508 48.274902 Q 88.130371 48.274902 88.401611 48.191650 Q 88.672852 48.108398 88.893066 47.931152 L 88.893066 45.777344 L 87.727539 45.777344 L 87.727539 44.885742 L 89.929688 44.885742 Z " fill="rgb(153, 153, 153)" fill-opacity="1.000000" />
<path d="M 92.079590 40.980957 L 96.532227 40.980957 L 96.532227 41.894043 L 94.851074 41.894043 L 94.851074 48.086914 L 96.532227 48.086914 L 96.532227 49.000000 L 92.079590 49.000000 L 92.079590 48.086914 L 93.760742 48.086914 L 93.760742 41.894043 L 92.079590 41.894043 Z " fill="rgb(153, 153, 153)" fill-opacity="1.000000" />
<path d="M 98.102051 41.007812 L 99.584473 41.007812 L 102.721191 47.587402 L 102.721191 41.007812 L 103.875977 41.007812 L 103.875977 49.000000 L 102.393555 49.000000 L 99.256836 42.420410 L 99.256836 49.000000 L 98.102051 49.000000 Z " fill="rgb(153, 153, 153)" fill-opacity="1.000000" />
<path d="M 110.929688 48.339355 Q 110.494629 48.742188 109.949463 48.948975 Q 109.404297 49.155762 108.770508 49.155762 Q 107.245117 49.155762 106.396484 48.062744 Q 105.547852 46.969727 105.547852 44.998535 Q 105.547852 43.032715 106.407227 41.934326 Q 107.266602 40.835938 108.797363 40.835938 Q 109.302246 40.835938 109.764160 40.978271 Q 110.226074 41.120605 110.655762 41.410645 L 110.655762 42.522461 Q 110.220703 42.108887 109.764160 41.912842 Q 109.307617 41.716797 108.797363 41.716797 Q 107.739258 41.716797 107.210205 42.535889 Q 106.681152 43.354980 106.681152 44.998535 Q 106.681152 46.668945 107.194092 47.471924 Q 107.707031 48.274902 108.770508 48.274902 Q 109.130371 48.274902 109.401611 48.191650 Q 109.672852 48.108398 109.893066 47.931152 L 109.893066 45.777344 L 108.727539 45.777344 L 108.727539 44.885742 L 110.929688 44.885742 Z " fill="rgb(153, 153, 153)" fill-opacity="1.000000" />
<path d="M 122.985352 40.594238 L 122.985352 51.594238 L 122.061523 51.594238 L 122.061523 40.594238 Z " fill="rgb(153, 153, 153)" fill-opacity="1.000000" />
<path d="M 135.143066 41.872559 L 135.143066 44.885742 L 136.399902 44.885742 Q 137.151855 44.885742 137.573486 44.488281 Q 137.995117 44.090820 137.995117 43.376465 Q 137.995117 42.662109 137.576172 42.267334 Q 137.157227 41.872559 136.399902 41.872559 Z M 134.058105 40.980957 L 136.399902 40.980957 Q 137.742676 40.980957 138.435547 41.590576 Q 139.128418 42.200195 139.128418 43.376465 Q 139.128418 44.563477 138.438232 45.170410 Q 137.748047 45.777344 136.399902 45.777344 L 135.143066 45.777344 L 135.143066 49.000000 L 134.058105 49.000000 Z " fill="rgb(153, 153, 153)" fill-opacity="1.000000" />
<path d="M 144.082031 45.213379 Q 144.500977 45.320801 144.796387 45.618896 Q 145.091797 45.916992 145.532227 46.808594 L 146.622559 49.000000 L 145.457031 49.000000 L 144.500977 46.975098 Q 144.087402 46.110352 143.757080 45.860596 Q 143.426758 45.610840 142.895020 45.610840 L 141.858398 45.610840 L 141.858398 49.000000 L 140.768066 49.000000 L 140.768066 40.980957 L 143.002441 40.980957 Q 144.323730 40.980957 145.027344 41.577148 Q 145.730957 42.173340 145.730957 43.301270 Q 145.730957 44.096191 145.298584 44.598389 Q 144.866211 45.100586 144.082031 45.213379 Z M 141.858398 41.872559 L 141.858398 44.719238 L 143.045410 44.719238 Q 143.824219 44.719238 144.205566 44.370117 Q 144.586914 44.020996 144.586914 43.301270 Q 144.586914 42.608398 144.181396 42.240479 Q 143.775879 41.872559 143.002441 41.872559 Z " fill="rgb(153, 153, 153)" fill-opacity="1.000000" />
<path d="M 148.058105 40.980957 L 152.816895 40.980957 L 152.816895 41.894043 L 149.143066 41.894043 L 149.143066 44.053223 L 152.655762 44.053223 L 152.655762 44.966309 L 149.143066 44.966309 L 149.143066 48.086914 L 152.918945 48.086914 L 152.918945 49.000000 L 148.058105 49.000000 Z " fill="rgb(153, 153, 153)" fill-opacity="1.000000" />
<path d="M 157.308594 48.086914 L 159.193848 40.980957 L 160.316406 40.980957 L 157.969238 49.000000 L 156.653320 49.000000 L 154.306152 40.980957 L 155.428711 40.980957 Z " fill="rgb(153, 153, 153)" fill-opacity="1.000000" />
<path d="M 162.079590 40.980957 L 166.532227 40.980957 L 166.532227 41.894043 L 164.851074 41.894043 L 164.851074 48.086914 L 166.532227 48.086914 L 166.532227 49.000000 L 162.079590 49.000000 L 162.079590 48.086914 L 163.760742 48.086914 L 163.760742 41.894043 L 162.079590 41.894043 Z " fill="rgb(153, 153, 153)" fill-opacity="1.000000" />
<path d="M 169.058105 40.980957 L 173.816895 40.980957 L 173.816895 41.894043 L 170.143066 41.894043 L 170.143066 44.053223 L 173.655762 44.053223 L 173.655762 44.966309 L 170.143066 44.966309 L 170.143066 48.086914 L 173.918945 48.086914 L 173.918945 49.000000 L 169.058105 49.000000 Z " fill="rgb(153, 153, 153)" fill-opacity="1.000000" />
<path d="M 175.000000 40.980957 L 176.058105 40.980957 L 176.826172 47.490723 L 177.739258 43.183105 L 178.872559 43.183105 L 179.796387 47.501465 L 180.564453 40.980957 L 181.622559 40.980957 L 180.424805 49.000000 L 179.398926 49.000000 L 178.308594 44.235840 L 177.223633 49.000000 L 176.197754 49.000000 Z " fill="rgb(153, 153, 153)" fill-opacity="1.000000" />
<path d="M 192.985352 40.594238 L 192.985352 51.594238 L 192.061523 51.594238 L 192.061523 40.594238 Z " fill="rgb(153, 153, 153)" fill-opacity="1.000000" />
<path d="M 205.341797 48.108398 Q 206.711426 48.108398 207.253906 47.434326 Q 207.796387 46.760254 207.796387 44.998535 Q 207.796387 43.220703 207.256592 42.546631 Q 206.716797 41.872559 205.341797 41.872559 L 204.826172 41.872559 L 204.826172 48.108398 Z M 205.363281 40.980957 Q 207.200195 40.980957 208.070312 41.958496 Q 208.940430 42.936035 208.940430 44.998535 Q 208.940430 47.050293 208.070312 48.025146 Q 207.200195 49.000000 205.363281 49.000000 L 203.735840 49.000000 L 203.735840 40.980957 Z " fill="rgb(153, 153, 153)" fill-opacity="1.000000" />
<path d="M 211.058105 40.980957 L 215.816895 40.980957 L 215.816895 41.894043 L 212.143066 41.894043 L 212.143066 44.053223 L 215.655762 44.053223 L 215.655762 44.966309 L 212.143066 44.966309 L 212.143066 48.086914 L 215.918945 48.086914 L 215.918945 49.000000 L 211.058105 49.000000 Z " fill="rgb(153, 153, 153)" fill-opacity="1.000000" />
<path d="M 220.308594 48.086914 L 222.193848 40.980957 L 223.316406 40.980957 L 220.969238 49.000000 L 219.653320 49.000000 L 217.306152 40.980957 L 218.428711 40.980957 Z " fill="rgb(153, 153, 153)" fill-opacity="1.000000" />
<path d="M 234.985352 40.594238 L 234.985352 51.594238 L 234.061523 51.594238 L 234.061523 40.594238 Z " fill="rgb(153, 153, 153)" fill-opacity="1.000000" />
<path d="M 269.985352 40.594238 L 269.985352 51.594238 L 269.061523 51.594238 L 269.061523 40.594238 Z " fill="rgb(255, 255, 255)" fill-opacity="1.000000" />
<path d="M 274.573730 40.980957 L 278.795410 50.020508 L 277.774902 50.020508 L 273.547852 40.980957 Z " fill="rgb(101, 101, 101)" fill-opacity="1.000000" />
<path d="M 7.547852 32.111328 L 13.241211 32.111328 L 13.241211 33.019043 L 7.547852 33.019043 Z " fill="rgb(255, 255, 255)" fill-opacity="1.000000" />
<path d="M 14.547852 32.111328 L 20.241211 32.111328 L 20.241211 33.019043 L 14.547852 33.019043 Z " fill="rgb(255, 255, 255)" fill-opacity="1.000000" />
<path d="M 21.547852 32.111328 L 27.241211 32.111328 L 27.241211 33.019043 L 21.547852 33.019043 Z " fill="rgb(255, 255, 255)" fill-opacity="1.000000" />
<path d="M 28.547852 32.111328 L 34.241211 32.111328 L 34.241211 33.019043 L 28.547852 33.019043 Z " fill="rgb(255, 255, 255)" fill-opacity="1.000000" />
<path d="M 35.547852 32.111328 L 41.241211 32.111328 L 41.241211 33.019043 L 35.547852 33.019043 Z " fill="rgb(255, 255, 255)" fill-opacity="1.000000" />
<path d="M 42.547852 32.111328 L 48.241211 32.111328 L 48.241211 33.019043 L 42.547852 33.019043 Z " fill="rgb(255, 255, 255)" fill-opacity="1.000000" />
<path d="M 52.867188 29.672852 L 52.867188 32.052246 L 55.257324 32.052246 L 55.257324 32.959961 L 52.867188 32.959961 L 52.867188 35.339355 L 51.964844 35.339355 L 51.964844 32.959961 L 49.580078 32.959961 L 49.580078 32.052246 L 51.964844 32.052246 L 51.964844 29.672852 Z " fill="rgb(255, 255, 255)" fill-opacity="1.000000" />
<path d="M 56.547852 32.111328 L 62.241211 32.111328 L 62.241211 33.019043 L 56.547852 33.019043 Z " fill="rgb(153, 153, 153)" fill-opacity="1.000000" />
<path d="M 63.547852 32.111328 L 69.241211 32.111328 L 69.241211 33.019043 L 63.547852 33.019043 Z " fill="rgb(153, 153, 153)" fill-opacity="1.000000" />
<path d="M 70.547852 32.111328 L 76.241211 32.111328 L 76.241211 33.019043 L 70.547852 33.019043 Z " fill="rgb(153, 153, 153)" fill-opacity="1.000000" />
<path d="M 77.547852 32.111328 L 83.241211 32.111328 L 83.241211 33.019043 L 77.547852 33.019043 Z " fill="rgb(153, 153, 153)" fill-opacity="1.000000" />
<path d="M 84.547852 32.111328 L 90.241211 32.111328 L 90.241211 33.019043 L 84.547852 33.019043 Z " fill="rgb(153, 153, 153)" fill-opacity="1.000000" />
<path d="M 91.547852 32.111328 L 97.241211 32.111328 L 97.241211 33.019043 L 91.547852 33.019043 Z " fill="rgb(153, 153, 153)" fill-opacity="1.000000" />
<path d="M 98.547852 32.111328 L 104.241211 32.111328 L 104.241211 33.019043 L 98.547852 33.019043 Z " fill="rgb(153, 153, 153)" fill-opacity="1.000000" />
<path d="M 105.547852 32.111328 L 111.241211 32.111328 L 111.241211 33.019043 L 105.547852 33.019043 Z " fill="rgb(153, 153, 153)" fill-opacity="1.000000" />
<path d="M 112.547852 32.111328 L 118.241211 32.111328 L 118.241211 33.019043 L 112.547852 33.019043 Z " fill="rgb(153, 153, 153)" fill-opacity="1.000000" />
<path d="M 119.547852 32.111328 L 125.241211 32.111328 L 125.241211 33.019043 L 119.547852 33.019043 Z " fill="rgb(153, 153, 153)" fill-opacity="1.000000" />
<path d="M 126.547852 32.111328 L 132.241211 32.111328 L 132.241211 33.019043 L 126.547852 33.019043 Z " fill="rgb(153, 153, 153)" fill-opacity="1.000000" />
<path d="M 133.547852 32.111328 L 139.241211 32.111328 L 139.241211 33.019043 L 133.547852 33.019043 Z " fill="rgb(153, 153, 153)" fill-opacity="1.000000" />
<path d="M 140.547852 32.111328 L 146.241211 32.111328 L 146.241211 33.019043 L 140.547852 33.019043 Z " fill="rgb(153, 153, 153)" fill-opacity="1.000000" />
<path d="M 147.547852 32.111328 L 153.241211 32.111328 L 153.241211 33.019043 L 147.547852 33.019043 Z " fill="rgb(153, 153, 153)" fill-opacity="1.000000" />
<path d="M 154.547852 32.111328 L 160.241211 32.111328 L 160.241211 33.019043 L 154.547852 33.019043 Z " fill="rgb(153, 153, 153)" fill-opacity="1.000000" />
<path d="M 161.547852 32.111328 L 167.241211 32.111328 L 167.241211 33.019043 L 161.547852 33.019043 Z " fill="rgb(153, 153, 153)" fill-opacity="1.000000" />
<path d="M 168.547852 32.111328 L 174.241211 32.111328 L 174.241211 33.019043 L 168.547852 33.019043 Z " fill="rgb(153, 153, 153)" fill-opacity="1.000000" />
<path d="M 175.547852 32.111328 L 181.241211 32.111328 L 181.241211 33.019043 L 175.547852 33.019043 Z " fill="rgb(153, 153, 153)" fill-opacity="1.000000" />
<path d="M 182.547852 32.111328 L 188.241211 32.111328 L 188.241211 33.019043 L 182.547852 33.019043 Z " fill="rgb(153, 153, 153)" fill-opacity="1.000000" />
<path d="M 189.547852 32.111328 L 195.241211 32.111328 L 195.241211 33.019043 L 189.547852 33.019043 Z " fill="rgb(153, 153, 153)" fill-opacity="1.000000" />
<path d="M 196.547852 32.111328 L 202.241211 32.111328 L 202.241211 33.019043 L 196.547852 33.019043 Z " fill="rgb(153, 153, 153)" fill-opacity="1.000000" />
<path d="M 203.547852 32.111328 L 209.241211 32.111328 L 209.241211 33.019043 L 203.547852 33.019043 Z " fill="rgb(153, 153, 153)" fill-opacity="1.000000" />
<path d="M 210.547852 32.111328 L 216.241211 32.111328 L 216.241211 33.019043 L 210.547852 33.019043 Z " fill="rgb(153, 153, 153)" fill-opacity="1.000000" />
<path d="M 217.547852 32.111328 L 223.241211 32.111328 L 223.241211 33.019043 L 217.547852 33.019043 Z " fill="rgb(153, 153, 153)" fill-opacity="1.000000" />
<path d="M 224.547852 32.111328 L 230.241211 32.111328 L 230.241211 33.019043 L 224.547852 33.019043 Z " fill="rgb(153, 153, 153)" fill-opacity="1.000000" />
<path d="M 234.867188 29.672852 L 234.867188 32.052246 L 237.257324 32.052246 L 237.257324 32.959961 L 234.867188 32.959961 L 234.867188 35.339355 L 233.964844 35.339355 L 233.964844 32.959961 L 231.580078 32.959961 L 231.580078 32.052246 L 233.964844 32.052246 L 233.964844 29.672852 Z " fill="rgb(153, 153, 153)" fill-opacity="1.000000" />
<path d="M 269.985352 27.594238 L 269.985352 38.594238 L 269.061523 38.594238 L 269.061523 27.594238 Z " fill="rgb(255, 255, 255)" fill-opacity="1.000000" />
<path d="M 274.573730 27.980957 L 278.795410 37.020508 L 277.774902 37.020508 L 273.547852 27.980957 Z " fill="rgb(101, 101, 101)" fill-opacity="1.000000" />
<path d="M 269.985352 14.594238 L 269.985352 25.594238 L 269.061523 25.594238 L 269.061523 14.594238 Z " fill="rgb(255, 255, 255)" fill-opacity="1.000000" />
<path d="M 274.573730 14.980957 L 278.795410 24.020508 L 277.774902 24.020508 L 273.547852 14.980957 Z " fill="rgb(101, 101, 101)" fill-opacity="1.000000" />
<path d="M 9.089355 7.830078 L 10.979980 7.830078 L 10.979980 10.000000 L 9.089355 10.000000 Z " fill="rgb(255, 255, 255)" fill-opacity="1.000000" />
<path d="M 16.089355 7.830078 L 17.979980 7.830078 L 17.979980 10.000000 L 16.089355 10.000000 Z " fill="rgb(255, 255, 255)" fill-opacity="1.000000" />
<path d="M 23.089355 7.830078 L 24.979980 7.830078 L 24.979980 10.000000 L 23.089355 10.000000 Z " fill="rgb(255, 255, 255)" fill-opacity="1.000000" />
<path d="M 30.089355 7.830078 L 31.979980 7.830078 L 31.979980 10.000000 L 30.089355 10.000000 Z " fill="rgb(255, 255, 255)" fill-opacity="1.000000" />
<path d="M 37.089355 7.830078 L 38.979980 7.830078 L 38.979980 10.000000 L 37.089355 10.000000 Z " fill="rgb(255, 255, 255)" fill-opacity="1.000000" />
<path d="M 44.089355 7.830078 L 45.979980 7.830078 L 45.979980 10.000000 L 44.089355 10.000000 Z " fill="rgb(255, 255, 255)" fill-opacity="1.000000" />
<path d="M 51.089355 7.830078 L 52.979980 7.830078 L 52.979980 10.000000 L 51.089355 10.000000 Z " fill="rgb(255, 255, 255)" fill-opacity="1.000000" />
<path d="M 58.089355 7.830078 L 59.979980 7.830078 L 59.979980 10.000000 L 58.089355 10.000000 Z " fill="rgb(255, 255, 255)" fill-opacity="1.000000" />
<path d="M 65.089355 7.830078 L 66.979980 7.830078 L 66.979980 10.000000 L 65.089355 10.000000 Z " fill="rgb(255, 255, 255)" fill-opacity="1.000000" />
<path d="M 72.089355 7.830078 L 73.979980 7.830078 L 73.979980 10.000000 L 72.089355 10.000000 Z " fill="rgb(255, 255, 255)" fill-opacity="1.000000" />
<path d="M 79.089355 7.830078 L 80.979980 7.830078 L 80.979980 10.000000 L 79.089355 10.000000 Z " fill="rgb(255, 255, 255)" fill-opacity="1.000000" />
<path d="M 86.089355 7.830078 L 87.979980 7.830078 L 87.979980 10.000000 L 86.089355 10.000000 Z " fill="rgb(255, 255, 255)" fill-opacity="1.000000" />
<path d="M 93.089355 7.830078 L 94.979980 7.830078 L 94.979980 10.000000 L 93.089355 10.000000 Z " fill="rgb(255, 255, 255)" fill-opacity="1.000000" />
<path d="M 100.089355 7.830078 L 101.979980 7.830078 L 101.979980 10.000000 L 100.089355 10.000000 Z " fill="rgb(255, 255, 255)" fill-opacity="1.000000" />
<path d="M 107.089355 7.830078 L 108.979980 7.830078 L 108.979980 10.000000 L 107.089355 10.000000 Z " fill="rgb(255, 255, 255)" fill-opacity="1.000000" />
<path d="M 114.089355 7.830078 L 115.979980 7.830078 L 115.979980 10.000000 L 114.089355 10.000000 Z " fill="rgb(255, 255, 255)" fill-opacity="1.000000" />
<path d="M 121.089355 7.830078 L 122.979980 7.830078 L 122.979980 10.000000 L 121.089355 10.000000 Z " fill="rgb(255, 255, 255)" fill-opacity="1.000000" />
<path d="M 128.089355 7.830078 L 129.979980 7.830078 L 129.979980 10.000000 L 128.089355 10.000000 Z " fill="rgb(255, 255, 255)" fill-opacity="1.000000" />
<path d="M 135.089355 7.830078 L 136.979980 7.830078 L 136.979980 10.000000 L 135.089355 10.000000 Z " fill="rgb(255, 255, 255)" fill-opacity="1.000000" />
<path d="M 142.089355 7.830078 L 143.979980 7.830078 L 143.979980 10.000000 L 142.089355 10.000000 Z " fill="rgb(255, 255, 255)" fill-opacity="1.000000" />
<path d="M 149.089355 7.830078 L 150.979980 7.830078 L 150.979980 10.000000 L 149.089355 10.000000 Z " fill="rgb(255, 255, 255)" fill-opacity="1.000000" />
<path d="M 156.089355 7.830078 L 157.979980 7.830078 L 157.979980 10.000000 L 156.089355 10.000000 Z " fill="rgb(255, 255, 255)" fill-opacity="1.000000" />
<path d="M 163.089355 7.830078 L 164.979980 7.830078 L 164.979980 10.000000 L 163.089355 10.000000 Z " fill="rgb(255, 255, 255)" fill-opacity="1.000000" />
<path d="M 170.089355 7.830078 L 171.979980 7.830078 L 171.979980 10.000000 L 170.089355 10.000000 Z " fill="rgb(255, 255, 255)" fill-opacity="1.000000" />
<path d="M 177.089355 7.830078 L 178.979980 7.830078 L 178.979980 10.000000 L 177.089355 10.000000 Z " fill="rgb(255, 255, 255)" fill-opacity="1.000000" />
<path d="M 184.089355 7.830078 L 185.979980 7.830078 L 185.979980 10.000000 L 184.089355 10.000000 Z " fill="rgb(255, 255, 255)" fill-opacity="1.000000" />
<path d="M 191.089355 7.830078 L 192.979980 7.830078 L 192.979980 10.000000 L 191.089355 10.000000 Z " fill="rgb(255, 255, 255)" fill-opacity="1.000000" />
<path d="M 198.089355 7.830078 L 199.979980 7.830078 L 199.979980 10.000000 L 198.089355 10.000000 Z " fill="rgb(255, 255, 255)" fill-opacity="1.000000" />
<path d="M 205.089355 7.830078 L 206.979980 7.830078 L 206.979980 10.000000 L 205.089355 10.000000 Z " fill="rgb(255, 255, 255)" fill-opacity="1.000000" />
<path d="M 212.089355 7.830078 L 213.979980 7.830078 L 213.979980 10.000000 L 212.089355 10.000000 Z " fill="rgb(255, 255, 255)" fill-opacity="1.000000" />
<path d="M 219.089355 7.830078 L 220.979980 7.830078 L 220.979980 10.000000 L 219.089355 10.000000 Z " fill="rgb(255, 255, 255)" fill-opacity="1.000000" />
<path d="M 226.089355 7.830078 L 227.979980 7.830078 L 227.979980 10.000000 L 226.089355 10.000000 Z " fill="rgb(255, 255, 255)" fill-opacity="1.000000" />
<path d="M 233.089355 7.830078 L 234.979980 7.830078 L 234.979980 10.000000 L 233.089355 10.000000 Z " fill="rgb(255, 255, 255)" fill-opacity="1.000000" />
<path d="M 240.089355 7.830078 L 241.979980 7.830078 L 241.979980 10.000000 L 240.089355 10.000000 Z " fill="rgb(255, 255, 255)" fill-opacity="1.000000" />
<path d="M 247.089355 7.830078 L 248.979980 7.830078 L 248.979980 10.000000 L 247.089355 10.000000 Z " fill="rgb(255, 255, 255)" fill-opacity="1.000000" />
<path d="M 254.089355 7.830078 L 255.979980 7.830078 L 255.979980 10.000000 L 254.089355 10.000000 Z " fill="rgb(255, 255, 255)" fill-opacity="1.000000" />
<path d="M 261.089355 7.830078 L 262.979980 7.830078 L 262.979980 10.000000 L 261.089355 10.000000 Z " fill="rgb(255, 255, 255)" fill-opacity="1.000000" />
<path d="M 269.867188 3.672852 L 269.867188 6.052246 L 272.257324 6.052246 L 272.257324 6.959961 L 269.867188 6.959961 L 269.867188 9.339355 L 268.964844 9.339355 L 268.964844 6.959961 L 266.580078 6.959961 L 266.580078 6.052246 L 268.964844 6.052246 L 268.964844 3.672852 Z " fill="rgb(255, 255, 255)" fill-opacity="1.000000" />
</svg>