<svg xmlns="http://www.w3.org/2000/svg" version="1.1" width="281" height="79">
<path d="M 3.867188 3.672852 L 3.867188 6.052246 L 6.257324 6.052246 L 6.257324 6.959961 L 3.867188 6.959961 L 3.867188 9.339355 L 2.964844 9.339355 L 2.964844 6.959961 L 0.580078 6.959961 L 0.580078 6.052246 L 2.964844 6.052246 L 2.964844 3.672852 Z " fill="rgb(255, 255, 255)" fill-opacity="1.000000" />
<path d="M 3.985352 14.594238 L 3.985352 25.594238 L 3.061523 25.594238 L 3.061523 14.594238 Z " fill="rgb(255, 255, 255)" fill-opacity="1.000000" />
<path d="M 3.985352 27.594238 L 3.985352 38.594238 L 3.061523 38.594238 L 3.061523 27.594238 Z " fill="rgb(255, 255, 255)" fill-opacity="1.000000" />
<path d="M 3.985352 40.594238 L 3.985352 51.594238 L 3.061523 51.594238 L 3.061523 40.594238 Z " fill="rgb(255, 255, 255)" fill-opacity="1.000000" />
<path d="M 3.867188 55.672852 L 3.867188 58.052246 L 6.257324 58.052246 L 6.257324 58.959961 L 3.867188 58.959961 L 3.867188 61.339355 L 2.964844 61.339355 L 2.964844 58.959961 L 0.580078 58.959961 L 0.580078 58.052246 L 2.964844 58.052246 L 2.964844 55.672852 Z " fill="rgb(255, 255, 255)" fill-opacity="1.000000" />
<path d="M 8.573730 66.980957 L 12.795410 76.020508 L 11.774902 76.020508 L 7.547852 66.980957 Z " fill="rgb(101, 101, 101)" fill-opacity="1.000000" />
<path d="M 15.573730 66.980957 L 19.795410 76.020508 L 18.774902 76.020508 L 14.547852 66.980957 Z " fill="rgb(101, 101, 101)" fill-opacity="1.000000" />
<path d="M 22.573730 66.980957 L 26.795410 76.020508 L 25.774902 76.020508 L 21.547852 66.980957 Z " fill="rgb(101, 101, 101)" fill-opacity="1.000000" />
<path d="M 29.573730 66.980957 L 33.795410 76.020508 L 32.774902 76.020508 L 28.547852 66.980957 Z " fill="rgb(101, 101, 101)" fill-opacity="1.000000" />
<path d="M 36.573730 66.980957 L 40.795410 76.020508 L 39.774902 76.020508 L 35.547852 66.980957 Z " fill="rgb(101, 101, 101)" fill-opacity="1.000000" />
<path d="M 43.573730 66.980957 L 47.795410 76.020508 L 46.774902 76.020508 L 42.547852 66.980957 Z " fill="rgb(101, 101, 101)" fill-opacity="1.000000" />
<path d="M 50.573730 66.980957 L 54.795410 76.020508 L 53.774902 76.020508 L 49.547852 66.980957 Z " fill="rgb(101, 101, 101)" fill-opacity="1.000000" />
<path d="M 57.573730 66.980957 L 61.795410 76.020508 L 60.774902 76.020508 L 56.547852 66.980957 Z " fill="rgb(101, 101, 101)" fill-opacity="1.000000" />
<path d="M 64.573730 66.980957 L 68.795410 76.020508 L 67.774902 76.020508 L 63.547852 66.980957 Z " fill="rgb(101, 101, 101)" fill-opacity="1.000000" />
<path d="M 71.573730 66.980957 L 75.795410 76.020508 L 74.774902 76.020508 L 70.547852 66.980957 Z " fill="rgb(101, 101, 101)" fill-opacity="1.000000" />
<path d="M 78.573730 66.980957 L 82.795410 76.020508 L 81.774902 76.020508 L 77.547852 66.980957 Z " fill="rgb(101, 101, 101)" fill-opacity="1.000000" />
<path d="M 85.573730 66.980957 L 89.795410 76.020508 L 88.774902 76.020508 L 84.547852 66.980957 Z " fill="rgb(101, 101, 101)" fill-opacity="1.000000" />
<path d="M 92.573730 66.980957 L 96.795410 76.020508 L 95.774902 76.020508 L 91.547852 66.980957 Z " fill="rgb(101, 101, 101)" fill-opacity="1.000000" />
<path d="M 99.573730 66.980957 L 103.795410 76.020508 L 102.774902 76.020508 L 98.547852 66.980957 Z " fill="rgb(101, 101, 101)" fill-opacity="1.000000" />
<path d="M 106.573730 66.980957 L 110.795410 76.020508 L 109.774902 76.020508 L 105.547852 66.980957 Z " fill="rgb(101, 101, 101)" fill-opacity="1.000000" />
<path d="M 113.573730 66.980957 L 117.795410 76.020508 L 116.774902 76.020508 L 112.547852 66.980957 Z " fill="rgb(101, 101, 101)" fill-opacity="1.000000" />
<path d="M 120.573730 66.980957 L 124.795410 76.020508 L 123.774902 76.020508 L 119.547852 66.980957 Z " fill="rgb(101, 101, 101)" fill-opacity="1.000000" />
<path d="M 127.573730 66.980957 L 131.795410 76.020508 L 130.774902 76.020508 L 126.547852 66.980957 Z " fill="rgb(101, 101, 101)" fill-opacity="1.000000" />
<path d="M 134.573730 66.980957 L 138.795410 76.020508 L 137.774902 76.020508 L 133.547852 66.980957 Z " fill="rgb(101, 101, 101)" fill-opacity="1.000000" />
<path d="M 141.573730 66.980957 L 145.795410 76.020508 L 144.774902 76.020508 L 140.547852 66.980957 Z " fill="rgb(101, 101, 101)" fill-opacity="1.000000" />
<path d="M 148.573730 66.980957 L 152.795410 76.020508 L 151.774902 76.020508 L 147.547852 66.980957 Z " fill="rgb(101, 101, 101)" fill-opacity="1.000000" />
<path d="M 155.573730 66.980957 L 159.795410 76.020508 L 158.774902 76.020508 L 154.547852 66.980957 Z " fill="rgb(101, 101, 101)" fill-opacity="1.000000" />
<path d="M 162.573730 66.980957 L 166.795410 76.020508 L 165.774902 76.020508 L 161.547852 66.980957 Z " fill="rgb(101, 101, 101)" fill-opacity="1.000000" />
<path d="M 169.573730 66.980957 L 173.795410 76.020508 L 172.774902 76.020508 L 168.547852 66.980957 Z " fill="rgb(101, 101, 101)" fill-opacity="1.000000" />
<path d="M 176.573730 66.980957 L 180.795410 76.020508 L 179.774902 76.020508 L 175.547852 66.980957 Z " fill="rgb(101, 101, 101)" fill-opacity="1.000000" />
<path d="M 183.573730 66.980957 L 187.795410 76.020508 L 186.774902 76.020508 L 182.547852 66.980957 Z " fill="rgb(101, 101, 101)" fill-opacity="1.000000" />
<path d="M 190.573730 66.980957 L 194.795410 76.020508 L 193.774902 76.020508 L 189.547852 66.980957 Z " fill="rgb(101, 101, 101)" fill-opacity="1.000000" />
<path d="M 197.573730 66.980957 L 201.795410 76.020508 L 200.774902 76.020508 L 196.547852 66.980957 Z " fill="rgb(101, 101, 101)" fill-opacity="1.000000" />
<path d="M 204.573730 66.980957 L 208.795410 76.020508 L 207.774902 76.020508 L 203.547852 66.980957 Z " fill="rgb(101, 101, 101)" fill-opacity="1.000000" />
<path d="M 211.573730 66.980957 L 215.795410 76.020508 L 214.774902 76.020508 L 210.547852 66.980957 Z " fill="rgb(101, 101, 101)" fill-opacity="1.000000" />
<path d="M 218.573730 66.980957 L 222.795410 76.020508 L 221.774902 76.020508 L 217.547852 66.980957 Z " fill="rgb(101, 101, 101)" fill-opacity="1.000000" />
<path d="M 225.573730 66.980957 L 229.795410 76.020508 L 228.774902 76.020508 L 224.547852 66.980957 Z " fill="rgb(101, 101, 101)" fill-opacity="1.000000" />
<path d="M 232.573730 66.980957 L 236.795410 76.020508 L 235.774902 76.020508 L 231.547852 66.980957 Z " fill="rgb(101, 101, 101)" fill-opacity="1.000000" />
<path d="M 239.573730 66.980957 L 243.795410 76.020508 L 242.774902 76.020508 L 238.547852 66.980957 Z " fill="rgb(101, 101, 101)" fill-opacity="1.000000" />
<path d="M 246.573730 66.980957 L 250.795410 76.020508 L 249.774902 76.020508 L 245.547852 66.980957 Z " fill="rgb(101, 101, 101)" fill-opacity="1.000000" />
<path d="M 253.573730 66.980957 L 257.795410 76.020508 L 256.774902 76.020508 L 252.547852 66.980957 Z " fill="rgb(101, 101, 101)" fill-opacity="1.000000" />
<path d="M 260.573730 66.980957 L 264.795410 76.020508 L 263.774902 76.020508 L 259.547852 66.980957 Z " fill="rgb(101, 101, 101)" fill-opacity="1.000000" />
<path d="M 267.573730 66.980957 L 271.795410 76.020508 L 270.774902 76.020508 L 266.547852 66.980957 Z " fill="rgb(101, 101, 101)" fill-opacity="1.000000" />
<path d="M 274.573730 66.980957 L 278.795410 76.020508 L 277.774902 76.020508 L 273.547852 66.980957 Z " fill="rgb(101, 101, 101)" fill-opacity="1.000000" />
<path d="M 7.547852 58.111328 L 13.241211 58.111328 L 13.241211 59.019043 L 7.547852 59.019043 Z " fill="rgb(255, 255, 255)" fill-opacity="1.000000" />
<path d="M 14.547852 58.111328 L 20.241211 58.111328 L 20.241211 59.019043 L 14.547852 59.019043 Z " fill="rgb(255, 255, 255)" fill-opacity="1.000000" />
<path d="M 21.547852 58.111328 L 27.241211 58.111328 L 27.241211 59.019043 L 21.547852 59.019043 Z " fill="rgb(255, 255, 255)" fill-opacity="1.000000" />
<path d="M 28.547852 58.111328 L 34.241211 58.111328 L 34.241211 59.019043 L 28.547852 59.019043 Z " fill="rgb(255, 255, 255)" fill-opacity="1.000000" />
<path d="M 35.547852 58.111328 L 41.241211 58.111328 L 41.241211 59.019043 L 35.547852 59.019043 Z " fill="rgb(255, 255, 255)" fill-opacity="1.000000" />
<path d="M 42.547852 58.111328 L 48.241211 58.111328 L 48.241211 59.019043 L 42.547852 59.019043 Z " fill="rgb(255, 255, 255)" fill-opacity="1.000000" />
<path d="M 49.547852 58.111328 L 55.241211 58.111328 L 55.241211 59.019043 L 49.547852 59.019043 Z " fill="rgb(255, 255, 255)" fill-opacity="1.000000" />
<path d="M 56.547852 58.111328 L 62.241211 58.111328 L 62.241211 59.019043 L 56.547852 59.019043 Z " fill="rgb(255, 255, 255)" fill-opacity="1.000000" />
<path d="M 63.547852 58.111328 L 69.241211 58.111328 L 69.241211 59.019043 L 63.547852 59.019043 Z " fill="rgb(255, 255, 255)" fill-opacity="1.000000" />
<path d="M 70.547852 58.111328 L 76.241211 58.111328 L 76.241211 59.019043 L 70.547852 59.019043 Z " fill="rgb(255, 255, 255)" fill-opacity="1.000000" />
<path d="M 77.547852 58.111328 L 83.241211 58.111328 L 83.241211 59.019043 L 77.547852 59.019043 Z " fill="rgb(255, 255, 255)" fill-opacity="1.000000" />
<path d="M 84.547852 58.111328 L 90.241211 58.111328 L 90.241211 59.019043 L 84.547852 59.019043 Z " fill="rgb(255, 255, 255)" fill-opacity="1.000000" />
<path d="M 91.547852 58.111328 L 97.241211 58.111328 L 97.241211 59.019043 L 91.547852 59.019043 Z " fill="rgb(255, 255, 255)" fill-opacity="1.000000" />
<path d="M 98.547852 58.111328 L 104.241211 58.111328 L 104.241211 59.019043 L 98.547852 59.019043 Z " fill="rgb(255, 255, 255)" fill-opacity="1.000000" />
<path d="M 105.547852 58.111328 L 111.241211 58.111328 L 111.241211 59.019043 L 105.547852 59.019043 Z " fill="rgb(255, 255, 255)" fill-opacity="1.000000" />
<path d="M 112.547852 58.111328 L 118.241211 58.111328 L 118.241211 59.019043 L 112.547852 59.019043 Z " fill="rgb(255, 255, 255)" fill-opacity="1.000000" />
<path d="M 119.547852 58.111328 L 125.241211 58.111328 L 125.241211 59.019043 L 119.547852 59.019043 Z " fill="rgb(255, 255, 255)" fill-opacity="1.000000" />
<path d="M 126.547852 58.111328 L 132.241211 58.111328 L 132.241211 59.019043 L 126.547852 59.019043 Z " fill="rgb(255, 255, 255)" fill-opacity="1.000000" />
<path d="M 133.547852 58.111328 L 139.241211 58.111328 L 139.241211 59.019043 L 133.547852 59.019043 Z " fill="rgb(255, 255, 255)" fill-opacity="1.000000" />
<path d="M 140.547852 58.111328 L 146.241211 58.111328 L 146.241211 59.019043 L 140.547852 59.019043 Z " fill="rgb(255, 255, 255)" fill-opacity="1.000000" />
<path d="M 147.547852 58.111328 L 153.241211 58.111328 L 153.241211 59.019043 L 147.547852 59.019043 Z " fill="rgb(255, 255, 255)" fill-opacity="1.000000" />
<path d="M 154.547852 58.111328 L 160.241211 58.111328 L 160.241211 59.019043 L 154.547852 59.019043 Z " fill="rgb(255, 255, 255)" fill-opacity="1.000000" />
<path d="M 161.547852 58.111328 L 167.241211 58.111328 L 167.241211 59.019043 L 161.547852 59.019043 Z " fill="rgb(255, 255, 255)" fill-opacity="1.000000" />
<path d="M 168.547852 58.111328 L 174.241211 58.111328 L 174.241211 59.019043 L 168.547852 59.019043 Z " fill="rgb(255, 255, 255)" fill-opacity="1.000000" />
<path d="M 175.547852 58.111328 L 181.241211 58.111328 L 181.241211 59.019043 L 175.547852 59.019043 Z " fill="rgb(255, 255, 255)" fill-opacity="1.000000" />
<path d="M 182.547852 58.111328 L 188.241211 58.111328 L 188.241211 59.019043 L 182.547852 59.019043 Z " fill="rgb(255, 255, 255)" fill-opacity="1.000000" />
<path d="M 189.547852 58.111328 L 195.241211 58.111328 L 195.241211 59.019043 L 189.547852 59.019043 Z " fill="rgb(255, 255, 255)" fill-opacity="1.000000" />
<path d="M 196.547852 58.111328 L 202.241211 58.111328 L 202.241211 59.019043 L 196.547852 59.019043 Z " fill="rgb(255, 255, 255)" fill-opacity="1.000000" />
<path d="M 203.547852 58.111328 L 209.241211 58.111328 L 209.241211 59.019043 L 203.547852 59.019043 Z " fill="rgb(255, 255, 255)" fill-opacity="1.000000" />
<path d="M 210.547852 58.111328 L 216.241211 58.111328 L 216.241211 59.019043 L 210.547852 59.019043 Z " fill="rgb(255, 255, 255)" fill-opacity="1.000000" />
<path d="M 217.547852 58.111328 L 223.241211 58.111328 L 223.241211 59.019043 L 217.547852 59.019043 Z " fill="rgb(255, 255, 255)" fill-opacity="1.000000" />
<path d="M 224.547852 58.111328 L 230.241211 58.111328 L 230.241211 59.019043 L 224.547852 59.019043 Z " fill="rgb(255, 255, 255)" fill-opacity="1.000000" />
<path d="M 231.547852 58.111328 L 237.241211 58.111328 L 237.241211 59.019043 L 231.547852 59.019043 Z " fill="rgb(255, 255, 255)" fill-opacity="1.000000" />
<path d="M 238.547852 58.111328 L 244.241211 58.111328 L 244.241211 59.019043 L 238.547852 59.019043 Z " fill="rgb(255, 255, 255)" fill-opacity="1.000000" />
<path d="M 245.547852 58.111328 L 251.241211 58.111328 L 251.241211 59.019043 L 245.547852 59.019043 Z " fill="rgb(255, 255, 255)" fill-opacity="1.000000" />
<path d="M 252.547852 58.111328 L 258.241211 58.111328 L 258.241211 59.019043 L 252.547852 59.019043 Z " fill="rgb(255, 255, 255)" fill-opacity="1.000000" />
<path d="M 259.547852 58.111328 L 265.241211 58.111328 L 265.241211 59.019043 L 259.547852 59.019043 Z " fill="rgb(255, 255, 255)" fill-opacity="1.000000" />
<path d="M 269.867188 55.672852 L 269.867188 58.052246 L 272.257324 58.052246 L 272.257324 58.959961 L 269.867188 58.959961 L 269.867188 61.339355 L 268.964844 61.339355 L 268.964844 58.959961 L 266.580078 58.959961 L 266.580078 58.052246 L 268.964844 58.052246 L 268.964844 55.672852 Z " fill="rgb(255, 255, 255)" fill-opacity="1.000000" />
<path d="M 274.573730 53.980957 L 278.795410 63.020508 L 277.774902 63.020508 L 273.547852 53.980957 Z " fill="rgb(101, 101, 101)" fill-opacity="1.000000" />
<path d="M 108.023926 27.105469 L 110.301270 27.105469 L 110.301270 27.873535 L 109.012207 27.873535 L 109.012207 36.145020 L 110.301270 36.145020 L 110.301270 36.913086 L 108.023926 36.913086 Z " fill="rgb(255, 255, 255)" fill-opacity="1.000000" />
<path d="M 269.985352 40.594238 L 269.985352 51.594238 L 269.061523 51.594238 L 269.061523 40.594238 Z " fill="rgb(255, 255, 255)" fill-opacity="1.000000" />
<path d="M 274.573730 40.980957 L 278.795410 50.020508 L 277.774902 50.020508 L 273.547852 40.980957 Z " fill="rgb(101, 101, 101)" fill-opacity="1.000000" />
<path d="M 117.435547 28.254883 L 117.435547 29.355957 Q 116.941406 29.039062 116.444580 28.877930 Q 115.947754 28.716797 115.442871 28.716797 Q 114.674805 28.716797 114.229004 29.073975 Q 113.783203 29.431152 113.783203 30.038086 Q 113.783203 30.569824 114.075928 30.849121 Q 114.368652 31.128418 115.168945 31.316406 L 115.738281 31.445312 Q 116.866211 31.708496 117.381836 32.272461 Q 117.897461 32.836426 117.897461 33.808594 Q 117.897461 34.952637 117.188477 35.554199 Q 116.479492 36.155762 115.125977 36.155762 Q 114.562012 36.155762 113.992676 36.034912 Q 113.423340 35.914062 112.848633 35.672363 L 112.848633 34.517578 Q 113.466309 34.909668 114.016846 35.092285 Q 114.567383 35.274902 115.125977 35.274902 Q 115.947754 35.274902 116.404297 34.906982 Q 116.860840 34.539062 116.860840 33.878418 Q 116.860840 33.276855 116.546631 32.959961 Q 116.232422 32.643066 115.453613 32.471191 L 114.873535 32.336914 Q 113.756348 32.084473 113.251465 31.574219 Q 112.746582 31.063965 112.746582 30.204590 Q 112.746582 29.130371 113.468994 28.483154 Q 114.191406 27.835938 115.389160 27.835938 Q 115.851074 27.835938 116.361328 27.940674 Q 116.871582 28.045410 117.435547 28.254883 Z " fill="rgb(255, 255, 255)" fill-opacity="1.000000" />
<path d="M 119.252441 27.980957 L 125.370117 27.980957 L 125.370117 28.894043 L 122.861816 28.894043 L 122.861816 36.000000 L 121.771484 36.000000 L 121.771484 28.894043 L 119.252441 28.894043 Z " fill="rgb(255, 255, 255)" fill-opacity="1.000000" />
<path d="M 130.860840 31.998535 Q 130.860840 30.231445 130.498291 29.474121 Q 130.135742 28.716797 129.308594 28.716797 Q 128.486816 28.716797 128.124268 29.474121 Q 127.761719 30.231445 127.761719 31.998535 Q 127.761719 33.760254 128.124268 34.517578 Q 128.486816 35.274902 129.308594 35.274902 Q 130.135742 35.274902 130.498291 34.520264 Q 130.860840 33.765625 130.860840 31.998535 Z M 131.994141 31.998535 Q 131.994141 34.093262 131.330811 35.124512 Q 130.667480 36.155762 129.308594 36.155762 Q 127.949707 36.155762 127.289062 35.129883 Q 126.628418 34.104004 126.628418 31.998535 Q 126.628418 29.898438 127.291748 28.867188 Q 127.955078 27.835938 129.308594 27.835938 Q 130.667480 27.835938 131.330811 28.867188 Q 131.994141 29.898438 131.994141 31.998535 Z " fill="rgb(255, 255, 255)" fill-opacity="1.000000" />
<path d="M 137.082031 32.213379 Q 137.500977 32.320801 137.796387 32.618896 Q 138.091797 32.916992 138.532227 33.808594 L 139.622559 36.000000 L 138.457031 36.000000 L 137.500977 33.975098 Q 137.087402 33.110352 136.757080 32.860596 Q 136.426758 32.610840 135.895020 32.610840 L 134.858398 32.610840 L 134.858398 36.000000 L 133.768066 36.000000 L 133.768066 27.980957 L 136.002441 27.980957 Q 137.323730 27.980957 138.027344 28.577148 Q 138.730957 29.173340 138.730957 30.301270 Q 138.730957 31.096191 138.298584 31.598389 Q 137.866211 32.100586 137.082031 32.213379 Z M 134.858398 28.872559 L 134.858398 31.719238 L 136.045410 31.719238 Q 136.824219 31.719238 137.205566 31.370117 Q 137.586914 31.020996 137.586914 30.301270 Q 137.586914 29.608398 137.181396 29.240479 Q 136.775879 28.872559 136.002441 28.872559 Z " fill="rgb(255, 255, 255)" fill-opacity="1.000000" />
<path d="M 143.308594 28.937012 L 142.164551 33.040527 L 144.452637 33.040527 Z M 142.653320 27.980957 L 143.969238 27.980957 L 146.423828 36.000000 L 145.301270 36.000000 L 144.710449 33.910645 L 141.901367 33.910645 L 141.321289 36.000000 L 140.198730 36.000000 Z " fill="rgb(255, 255, 255)" fill-opacity="1.000000" />
<path d="M 152.929688 35.339355 Q 152.494629 35.742188 151.949463 35.948975 Q 151.404297 36.155762 150.770508 36.155762 Q 149.245117 36.155762 148.396484 35.062744 Q 147.547852 33.969727 147.547852 31.998535 Q 147.547852 30.032715 148.407227 28.934326 Q 149.266602 27.835938 150.797363 27.835938 Q 151.302246 27.835938 151.764160 27.978271 Q 152.226074 28.120605 152.655762 28.410645 L 152.655762 29.522461 Q 152.220703 29.108887 151.764160 28.912842 Q 151.307617 28.716797 150.797363 28.716797 Q 149.739258 28.716797 149.210205 29.535889 Q 148.681152 30.354980 148.681152 31.998535 Q 148.681152 33.668945 149.194092 34.471924 Q 149.707031 35.274902 150.770508 35.274902 Q 151.130371 35.274902 151.401611 35.191650 Q 151.672852 35.108398 151.893066 34.931152 L 151.893066 32.777344 L 150.727539 32.777344 L 150.727539 31.885742 L 152.929688 31.885742 Z " fill="rgb(255, 255, 255)" fill-opacity="1.000000" />
<path d="M 155.058105 27.980957 L 159.816895 27.980957 L 159.816895 28.894043 L 156.143066 28.894043 L 156.143066 31.053223 L 159.655762 31.053223 L 159.655762 31.966309 L 156.143066 31.966309 L 156.143066 35.086914 L 159.918945 35.086914 L 159.918945 36.000000 L 155.058105 36.000000 Z " fill="rgb(255, 255, 255)" fill-opacity="1.000000" />
<path d="M 164.867188 27.105469 L 164.867188 36.913086 L 162.589844 36.913086 L 162.589844 36.145020 L 163.878906 36.145020 L 163.878906 27.873535 L 162.589844 27.873535 L 162.589844 27.105469 Z " fill="rgb(255, 255, 255)" fill-opacity="1.000000" />
<path d="M 269.985352 27.594238 L 269.985352 38.594238 L 269.061523 38.594238 L 269.061523 27.594238 Z " fill="rgb(255, 255, 255)" fill-opacity="1.000000" />
<path d="M 274.573730 27.980957 L 278.795410 37.020508 L 277.774902 37.020508 L 273.547852 27.980957 Z " fill="rgb(101, 101, 101)" fill-opacity="1.000000" />
<path d="M 269.985352 14.594238 L 269.985352 25.594238 L 269.061523 25.594238 L 269.061523 14.594238 Z " fill="rgb(255, 255, 255)" fill-opacity="1.000000" />
<path d="M 274.573730 14.980957 L 278.795410 24.020508 L 277.774902 24.020508 L 273.547852 14.980957 Z " fill="rgb(101, 101, 101)" fill-opacity="1.000000" />
<path d="M 7.547852 6.111328 L 13.241211 6.111328 L 13.241211 7.019043 L 7.547852 7.019043 Z " fill="rgb(255, 255, 255)" fill-opacity="1.000000" />
<path d="M 14.547852 6.111328 L 20.241211 6.111328 L 20.241211 7.019043 L 14.547852 7.019043 Z " fill="rgb(255, 255, 255)" fill-opacity="1.000000" />
<path d="M 21.547852 6.111328 L 27.241211 6.111328 L 27.241211 7.019043 L 21.547852 7.019043 Z " fill="rgb(255, 255, 255)" fill-opacity="1.000000" />
<path d="M 28.547852 6.111328 L 34.241211 6.111328 L 34.241211 7.019043 L 28.547852 7.019043 Z " fill="rgb(255, 255, 255)" fill-opacity="1.000000" />
<path d="M 35.547852 6.111328 L 41.241211 6.111328 L 41.241211 7.019043 L 35.547852 7.019043 Z " fill="rgb(255, 255, 255)" fill-opacity="1.000000" />
<path d="M 42.547852 6.111328 L 48.241211 6.111328 L 48.241211 7.019043 L 42.547852 7.019043 Z " fill="rgb(255, 255, 255)" fill-opacity="1.000000" />
<path d="M 49.547852 6.111328 L 55.241211 6.111328 L 55.241211 7.019043 L 49.547852 7.019043 Z " fill="rgb(255, 255, 255)" fill-opacity="1.000000" />
<path d="M 56.547852 6.111328 L 62.241211 6.111328 L 62.241211 7.019043 L 56.547852 7.019043 Z " fill="rgb(255, 255, 255)" fill-opacity="1.000000" />
<path d="M 63.547852 6.111328 L 69.241211 6.111328 L 69.241211 7.019043 L 63.547852 7.019043 Z " fill="rgb(255, 255, 255)" fill-opacity="1.000000" />
<path d="M 70.547852 6.111328 L 76.241211 6.111328 L 76.241211 7.019043 L 70.547852 7.019043 Z " fill="rgb(255, 255, 255)" fill-opacity="1.000000" />
<path d="M 77.547852 6.111328 L 83.241211 6.111328 L 83.241211 7.019043 L 77.547852 7.019043 Z " fill="rgb(255, 255, 255)" fill-opacity="1.000000" />
<path d="M 84.547852 6.111328 L 90.241211 6.111328 L 90.241211 7.019043 L 84.547852 7.019043 Z " fill="rgb(255, 255, 255)" fill-opacity="1.000000" />
<path d="M 91.547852 6.111328 L 97.241211 6.111328 L 97.241211 7.019043 L 91.547852 7.019043 Z " fill="rgb(255, 255, 255)" fill-opacity="1.000000" />
<path d="M 98.547852 6.111328 L 104.241211 6.111328 L 104.241211 7.019043 L 98.547852 7.019043 Z " fill="rgb(255, 255, 255)" fill-opacity="1.000000" />
<path d="M 105.547852 6.111328 L 111.241211 6.111328 L 111.241211 7.019043 L 105.547852 7.019043 Z " fill="rgb(255, 255, 255)" fill-opacity="1.000000" />
<path d="M 112.547852 6.111328 L 118.241211 6.111328 L 118.241211 7.019043 L 112.547852 7.019043 Z " fill="rgb(255, 255, 255)" fill-opacity="1.000000" />
<path d="M 119.547852 6.111328 L 125.241211 6.111328 L 125.241211 7.019043 L 119.547852 7.019043 Z " fill="rgb(255, 255, 255)" fill-opacity="1.000000" />
<path d="M 126.547852 6.111328 L 132.241211 6.111328 L 132.241211 7.019043 L 126.547852 7.019043 Z " fill="rgb(255, 255, 255)" fill-opacity="1.000000" />
<path d="M 133.547852 6.111328 L 139.241211 6.111328 L 139.241211 7.019043 L 133.547852 7.019043 Z " fill="rgb(255, 255, 255)" fill-opacity="1.000000" />
<path d="M 140.547852 6.111328 L 146.241211 6.111328 L 146.241211 7.019043 L 140.547852 7.019043 Z " fill="rgb(255, 255, 255)" fill-opacity="1.000000" />
<path d="M 147.547852 6.111328 L 153.241211 6.111328 L 153.241211 7.019043 L 147.547852 7.019043 Z " fill="rgb(255, 255, 255)" fill-opacity="1.000000" />
<path d="M 154.547852 6.111328 L 160.241211 6.111328 L 160.241211 7.019043 L 154.547852 7.019043 Z " fill="rgb(255, 255, 255)" fill-opacity="1.000000" />
<path d="M 161.547852 6.111328 L 167.241211 6.111328 L 167.241211 7.019043 L 161.547852 7.019043 Z " fill="rgb(255, 255, 255)" fill-opacity="1.000000" />
<path d="M 168.547852 6.111328 L 174.241211 6.111328 L 174.241211 7.019043 L 168.547852 7.019043 Z " fill="rgb(255, 255, 255)" fill-opacity="1.000000" />
<path d="M 175.547852 6.111328 L 181.241211 6.111328 L 181.241211 7.019043 L 175.547852 7.019043 Z " fill="rgb(255, 255, 255)" fill-opacity="1.000000" />
<path d="M 182.547852 6.111328 L 188.241211 6.111328 L 188.241211 7.019043 L 182.547852 7.019043 Z " fill="rgb(255, 255, 255)" fill-opacity="1.000000" />
<path d="M 189.547852 6.111328 L 195.241211 6.111328 L 195.241211 7.019043 L 189.547852 7.019043 Z " fill="rgb(255, 255, 255)" fill-opacity="1.000000" />
<path d="M 196.547852 6.111328 L 202.241211 6.111328 L 202.241211 7.019043 L 196.547852 7.019043 Z " fill="rgb(255, 255, 255)" fill-opacity="1.000000" />
<path d="M 203.547852 6.111328 L 209.241211 6.111328 L 209.241211 7.019043 L 203.547852 7.019043 Z " fill="rgb(255, 255, 255)" fill-opacity="1.000000" />
<path d="M 210.547852 6.111328 L 216.241211 6.111328 L 216.241211 7.019043 L 210.547852 7.019043 Z " fill="rgb(255, 255, 255)" fill-opacity="1.000000" />
<path d="M 217.547852 6.111328 L 223.241211 6.111328 L 223.241211 7.019043 L 217.547852 7.019043 Z " fill="rgb(255, 255, 255)" fill-opacity="1.000000" />
<path d="M 224.547852 6.111328 L 230.241211 6.111328 L 230.241211 7.019043 L 224.547852 7.019043 Z " fill="rgb(255, 255, 255)" fill-opacity="1.000000" />
<path d="M 231.547852 6.111328 L 237.241211 6.111328 L 237.241211 7.019043 L 231.547852 7.019043 Z " fill="rgb(255, 255, 255)" fill-opacity="1.000000" />
<path d="M 238.547852 6.111328 L 244.241211 6.111328 L 244.241211 7.019043 L 238.547852 7.019043 Z " fill="rgb(255, 255, 255)" fill-opacity="1.000000" />
<path d="M 245.547852 6.111328 L 251.241211 6.111328 L 251.241211 7.019043 L 245.547852 7.019043 Z " fill="rgb(255, 255, 255)" fill-opacity="1.000000" />
<path d="M 252.547852 6.111328 L 258.241211 6.111328 L 258.241211 7.019043 L 252.547852 7.019043 Z " fill="rgb(255, 255, 255)" fill-opacity="1.000000" />
<path d="M 259.547852 6.111328 L 265.241211 6.111328 L 265.241211 7.019043 L 259.547852 7.019043 Z " fill="rgb(255, 255, 255)" fill-opacity="1.000000" />
<path d="M 269.867188 3.672852 L 269.867188 6.052246 L 272.257324 6.052246 L 272.257324 6.959961 L 269.867188 6.959961 L 269.867188 9.339355 L 268.964844 9.339355 L 268.964844 6.959961 L 266.580078 6.959961 L 266.580078 6.052246 L 268.964844 6.052246 L 268.964844 3.672852 Z " fill="rgb(255, 255, 255)" fill-opacity="1.000000" />
</svg>