<svg xmlns="http://www.w3.org/2000/svg" version="1.1" width="281" height="92">
<path d="M 3.867188 3.672852 L 3.867188 6.052246 L 6.257324 6.052246 L 6.257324 6.959961 L 3.867188 6.959961 L 3.867188 9.339355 L 2.964844 9.339355 L 2.964844 6.959961 L 0.580078 6.959961 L 0.580078 6.052246 L 2.964844 6.052246 L 2.964844 3.672852 Z " fill="rgb(255, 255, 255)" fill-opacity="1.000000" />
<path d="M 3.985352 14.594238 L 3.985352 25.594238 L 3.061523 25.594238 L 3.061523 14.594238 Z " fill="rgb(255, 255, 255)" fill-opacity="1.000000" />
<path d="M 3.867188 29.672852 L 3.867188 32.052246 L 6.257324 32.052246 L 6.257324 32.959961 L 3.867188 32.959961 L 3.867188 35.339355 L 2.964844 35.339355 L 2.964844 32.959961 L 0.580078 32.959961 L 0.580078 32.052246 L 2.964844 32.052246 L 2.964844 29.672852 Z " fill="rgb(255, 255, 255)" fill-opacity="1.000000" />
<path d="M 8.573730 40.980957 L 12.795410 50.020508 L 11.774902 50.020508 L 7.547852 40.980957 Z " fill="rgb(101, 101, 101)" fill-opacity="1.000000" />
<path d="M 15.573730 40.980957 L 19.795410 50.020508 L 18.774902 50.020508 L 14.547852 40.980957 Z " fill="rgb(101, 101, 101)" fill-opacity="1.000000" />
<path d="M 22.573730 40.980957 L 26.795410 50.020508 L 25.774902 50.020508 L 21.547852 40.980957 Z " fill="rgb(101, 101, 101)" fill-opacity="1.000000" />
<path d="M 29.573730 40.980957 L 33.795410 50.020508 L 32.774902 50.020508 L 28.547852 40.980957 Z " fill="rgb(101, 101, 101)" fill-opacity="1.000000" />
<path d="M 36.573730 40.980957 L 40.795410 50.020508 L 39.774902 50.020508 L 35.547852 40.980957 Z " fill="rgb(101, 101, 101)" fill-opacity="1.000000" />
<path d="M 43.573730 40.980957 L 47.795410 50.020508 L 46.774902 50.020508 L 42.547852 40.980957 Z " fill="rgb(101, 101, 101)" fill-opacity="1.000000" />
<path d="M 50.573730 40.980957 L 54.795410 50.020508 L 53.774902 50.020508 L 49.547852 40.980957 Z " fill="rgb(101, 101, 101)" fill-opacity="1.000000" />
<path d="M 57.573730 40.980957 L 61.795410 50.020508 L 60.774902 50.020508 L 56.547852 40.980957 Z " fill="rgb(101, 101, 101)" fill-opacity="1.000000" />
<path d="M 64.573730 40.980957 L 68.795410 50.020508 L 67.774902 50.020508 L 63.547852 40.980957 Z " fill="rgb(101, 101, 101)" fill-opacity="1.000000" />
<path d="M 73.867188 55.672852 L 73.867188 58.052246 L 76.257324 58.052246 L 76.257324 58.959961 L 73.867188 58.959961 L 73.867188 61.339355 L 72.964844 61.339355 L 72.964844 58.959961 L 70.580078 58.959961 L 70.580078 58.052246 L 72.964844 58.052246 L 72.964844 55.672852 Z " fill="rgb(255, 255, 255)" fill-opacity="1.000000" />
<path d="M 150.867188 68.672852 L 150.867188 71.052246 L 153.257324 71.052246 L 153.257324 71.959961 L 150.867188 71.959961 L 150.867188 74.339355 L 149.964844 74.339355 L 149.964844 71.959961 L 147.580078 71.959961 L 147.580078 71.052246 L 149.964844 71.052246 L 149.964844 68.672852 Z " fill="rgb(255, 255, 255)" fill-opacity="1.000000" />
<path d="M 155.573730 79.980957 L 159.795410 89.020508 L 158.774902 89.020508 L 154.547852 79.980957 Z " fill="rgb(101, 101, 101)" fill-opacity="1.000000" />
<path d="M 162.573730 79.980957 L 166.795410 89.020508 L 165.774902 89.020508 L 161.547852 79.980957 Z " fill="rgb(101, 101, 101)" fill-opacity="1.000000" />
<path d="M 169.573730 79.980957 L 173.795410 89.020508 L 172.774902 89.020508 L 168.547852 79.980957 Z " fill="rgb(101, 101, 101)" fill-opacity="1.000000" />
<path d="M 176.573730 79.980957 L 180.795410 89.020508 L 179.774902 89.020508 L 175.547852 79.980957 Z " fill="rgb(101, 101, 101)" fill-opacity="1.000000" />
<path d="M 183.573730 79.980957 L 187.795410 89.020508 L 186.774902 89.020508 L 182.547852 79.980957 Z " fill="rgb(101, 101, 101)" fill-opacity="1.000000" />
<path d="M 190.573730 79.980957 L 194.795410 89.020508 L 193.774902 89.020508 L 189.547852 79.980957 Z " fill="rgb(101, 101, 101)" fill-opacity="1.000000" />
<path d="M 197.573730 79.980957 L 201.795410 89.020508 L 200.774902 89.020508 L 196.547852 79.980957 Z " fill="rgb(101, 101, 101)" fill-opacity="1.000000" />
<path d="M 204.573730 79.980957 L 208.795410 89.020508 L 207.774902 89.020508 L 203.547852 79.980957 Z " fill="rgb(101, 101, 101)" fill-opacity="1.000000" />
<path d="M 211.573730 79.980957 L 215.795410 89.020508 L 214.774902 89.020508 L 210.547852 79.980957 Z " fill="rgb(101, 101, 101)" fill-opacity="1.000000" />
<path d="M 218.573730 79.980957 L 222.795410 89.020508 L 221.774902 89.020508 L 217.547852 79.980957 Z " fill="rgb(101, 101, 101)" fill-opacity="1.000000" />
<path d="M 225.573730 79.980957 L 229.795410 89.020508 L 228.774902 89.020508 L 224.547852 79.980957 Z " fill="rgb(101, 101, 101)" fill-opacity="1.000000" />
<path d="M 232.573730 79.980957 L 236.795410 89.020508 L 235.774902 89.020508 L 231.547852 79.980957 Z " fill="rgb(101, 101, 101)" fill-opacity="1.000000" />
<path d="M 239.573730 79.980957 L 243.795410 89.020508 L 242.774902 89.020508 L 238.547852 79.980957 Z " fill="rgb(101, 101, 101)" fill-opacity="1.000000" />
<path d="M 246.573730 79.980957 L 250.795410 89.020508 L 249.774902 89.020508 L 245.547852 79.980957 Z " fill="rgb(101, 101, 101)" fill-opacity="1.000000" />
<path d="M 253.573730 79.980957 L 257.795410 89.020508 L 256.774902 89.020508 L 252.547852 79.980957 Z " fill="rgb(101, 101, 101)" fill-opacity="1.000000" />
<path d="M 260.573730 79.980957 L 264.795410 89.020508 L 263.774902 89.020508 L 259.547852 79.980957 Z " fill="rgb(101, 101, 101)" fill-opacity="1.000000" />
<path d="M 267.573730 79.980957 L 271.795410 89.020508 L 270.774902 89.020508 L 266.547852 79.980957 Z " fill="rgb(101, 101, 101)" fill-opacity="1.000000" />
<path d="M 274.573730 79.980957 L 278.795410 89.020508 L 277.774902 89.020508 L 273.547852 79.980957 Z " fill="rgb(101, 101, 101)" fill-opacity="1.000000" />
<path d="M 154.547852 71.111328 L 160.241211 71.111328 L 160.241211 72.019043 L 154.547852 72.019043 Z " fill="rgb(255, 255, 255)" fill-opacity="1.000000" />
<path d="M 161.547852 71.111328 L 167.241211 71.111328 L 167.241211 72.019043 L 161.547852 72.019043 Z " fill="rgb(255, 255, 255)" fill-opacity="1.000000" />
<path d="M 168.547852 71.111328 L 174.241211 71.111328 L 174.241211 72.019043 L 168.547852 72.019043 Z " fill="rgb(255, 255, 255)" fill-opacity="1.000000" />
<path d="M 175.547852 71.111328 L 181.241211 71.111328 L 181.241211 72.019043 L 175.547852 72.019043 Z " fill="rgb(255, 255, 255)" fill-opacity="1.000000" />
<path d="M 182.547852 71.111328 L 188.241211 71.111328 L 188.241211 72.019043 L 182.547852 72.019043 Z " fill="rgb(255, 255, 255)" fill-opacity="1.000000" />
<path d="M 189.547852 71.111328 L 195.241211 71.111328 L 195.241211 72.019043 L 189.547852 72.019043 Z " fill="rgb(255, 255, 255)" fill-opacity="1.000000" />
<path d="M 196.547852 71.111328 L 202.241211 71.111328 L 202.241211 72.019043 L 196.547852 72.019043 Z " fill="rgb(255, 255, 255)" fill-opacity="1.000000" />
<path d="M 203.547852 71.111328 L 209.241211 71.111328 L 209.241211 72.019043 L 203.547852 72.019043 Z " fill="rgb(255, 255, 255)" fill-opacity="1.000000" />
<path d="M 210.547852 71.111328 L 216.241211 71.111328 L 216.241211 72.019043 L 210.547852 72.019043 Z " fill="rgb(255, 255, 255)" fill-opacity="1.000000" />
<path d="M 217.547852 71.111328 L 223.241211 71.111328 L 223.241211 72.019043 L 217.547852 72.019043 Z " fill="rgb(255, 255, 255)" fill-opacity="1.000000" />
<path d="M 224.547852 71.111328 L 230.241211 71.111328 L 230.241211 72.019043 L 224.547852 72.019043 Z " fill="rgb(255, 255, 255)" fill-opacity="1.000000" />
<path d="M 231.547852 71.111328 L 237.241211 71.111328 L 237.241211 72.019043 L 231.547852 72.019043 Z " fill="rgb(255, 255, 255)" fill-opacity="1.000000" />
<path d="M 238.547852 71.111328 L 244.241211 71.111328 L 244.241211 72.019043 L 238.547852 72.019043 Z " fill="rgb(255, 255, 255)" fill-opacity="1.000000" />
<path d="M 245.547852 71.111328 L 251.241211 71.111328 L 251.241211 72.019043 L 245.547852 72.019043 Z " fill="rgb(255, 255, 255)" fill-opacity="1.000000" />
<path d="M 252.547852 71.111328 L 258.241211 71.111328 L 258.241211 72.019043 L 252.547852 72.019043 Z " fill="rgb(255, 255, 255)" fill-opacity="1.000000" />
<path d="M 259.547852 71.111328 L 265.241211 71.111328 L 265.241211 72.019043 L 259.547852 72.019043 Z " fill="rgb(255, 255, 255)" fill-opacity="1.000000" />
<path d="M 269.867188 68.672852 L 269.867188 71.052246 L 272.257324 71.052246 L 272.257324 71.959961 L 269.867188 71.959961 L 269.867188 74.339355 L 268.964844 74.339355 L 268.964844 71.959961 L 266.580078 71.959961 L 266.580078 71.052246 L 268.964844 71.052246 L 268.964844 68.672852 Z " fill="rgb(255, 255, 255)" fill-opacity="1.000000" />
<path d="M 274.573730 66.980957 L 278.795410 76.020508 L 277.774902 76.020508 L 273.547852 66.980957 Z " fill="rgb(101, 101, 101)" fill-opacity="1.000000" />
<path d="M 77.547852 58.111328 L 83.241211 58.111328 L 83.241211 59.019043 L 77.547852 59.019043 Z " fill="rgb(255, 255, 255)" fill-opacity="1.000000" />
<path d="M 84.547852 58.111328 L 90.241211 58.111328 L 90.241211 59.019043 L 84.547852 59.019043 Z " fill="rgb(255, 255, 255)" fill-opacity="1.000000" />
<path d="M 91.547852 58.111328 L 97.241211 58.111328 L 97.241211 59.019043 L 91.547852 59.019043 Z " fill="rgb(255, 255, 255)" fill-opacity="1.000000" />
<path d="M 98.547852 58.111328 L 104.241211 58.111328 L 104.241211 59.019043 L 98.547852 59.019043 Z " fill="rgb(255, 255, 255)" fill-opacity="1.000000" />
<path d="M 105.547852 58.111328 L 111.241211 58.111328 L 111.241211 59.019043 L 105.547852 59.019043 Z " fill="rgb(255, 255, 255)" fill-opacity="1.000000" />
<path d="M 112.547852 58.111328 L 118.241211 58.111328 L 118.241211 59.019043 L 112.547852 59.019043 Z " fill="rgb(255, 255, 255)" fill-opacity="1.000000" />
<path d="M 119.547852 58.111328 L 125.241211 58.111328 L 125.241211 59.019043 L 119.547852 59.019043 Z " fill="rgb(255, 255, 255)" fill-opacity="1.000000" />
<path d="M 126.547852 58.111328 L 132.241211 58.111328 L 132.241211 59.019043 L 126.547852 59.019043 Z " fill="rgb(255, 255, 255)" fill-opacity="1.000000" />
<path d="M 133.547852 58.111328 L 139.241211 58.111328 L 139.241211 59.019043 L 133.547852 59.019043 Z " fill="rgb(255, 255, 255)" fill-opacity="1.000000" />
<path d="M 140.472656 56.838379 L 140.472656 55.860840 L 146.149902 58.105957 L 146.149902 58.997559 L 140.472656 61.242676 L 140.472656 60.259766 L 145.038086 58.557129 Z " fill="rgb(255, 255, 255)" fill-opacity="1.000000" />
<path d="M 150.985352 53.594238 L 150.985352 64.594238 L 150.061523 64.594238 L 150.061523 53.594238 Z " fill="rgb(255, 255, 255)" fill-opacity="1.000000" />
<path d="M 192.023926 53.105469 L 194.301270 53.105469 L 194.301270 53.873535 L 193.012207 53.873535 L 193.012207 62.145020 L 194.301270 62.145020 L 194.301270 62.913086 L 192.023926 62.913086 Z " fill="rgb(255, 255, 255)" fill-opacity="1.000000" />
<path d="M 201.435547 54.254883 L 201.435547 55.355957 Q 200.941406 55.039062 200.444580 54.877930 Q 199.947754 54.716797 199.442871 54.716797 Q 198.674805 54.716797 198.229004 55.073975 Q 197.783203 55.431152 197.783203 56.038086 Q 197.783203 56.569824 198.075928 56.849121 Q 198.368652 57.128418 199.168945 57.316406 L 199.738281 57.445312 Q 200.866211 57.708496 201.381836 58.272461 Q 201.897461 58.836426 201.897461 59.808594 Q 201.897461 60.952637 201.188477 61.554199 Q 200.479492 62.155762 199.125977 62.155762 Q 198.562012 62.155762 197.992676 62.034912 Q 197.423340 61.914062 196.848633 61.672363 L 196.848633 60.517578 Q 197.466309 60.909668 198.016846 61.092285 Q 198.567383 61.274902 199.125977 61.274902 Q 199.947754 61.274902 200.404297 60.906982 Q 200.860840 60.539062 200.860840 59.878418 Q 200.860840 59.276855 200.546631 58.959961 Q 200.232422 58.643066 199.453613 58.471191 L 198.873535 58.336914 Q 197.756348 58.084473 197.251465 57.574219 Q 196.746582 57.063965 196.746582 56.204590 Q 196.746582 55.130371 197.468994 54.483154 Q 198.191406 53.835938 199.389160 53.835938 Q 199.851074 53.835938 200.361328 53.940674 Q 200.871582 54.045410 201.435547 54.254883 Z " fill="rgb(255, 255, 255)" fill-opacity="1.000000" />
<path d="M 203.198730 53.980957 L 204.353516 53.980957 L 206.308594 57.520508 L 208.258301 53.980957 L 209.423828 53.980957 L 206.851074 58.401367 L 206.851074 62.000000 L 205.760742 62.000000 L 205.760742 58.401367 Z " fill="rgb(255, 255, 255)" fill-opacity="1.000000" />
<path d="M 210.102051 54.007812 L 211.584473 54.007812 L 214.721191 60.587402 L 214.721191 54.007812 L 215.875977 54.007812 L 215.875977 62.000000 L 214.393555 62.000000 L 211.256836 55.420410 L 211.256836 62.000000 L 210.102051 62.000000 Z " fill="rgb(255, 255, 255)" fill-opacity="1.000000" />
<path d="M 222.763184 61.715332 Q 222.349609 61.935547 221.914551 62.045654 Q 221.479492 62.155762 220.990723 62.155762 Q 219.449219 62.155762 218.597900 61.065430 Q 217.746582 59.975098 217.746582 57.998535 Q 217.746582 56.032715 218.603271 54.934326 Q 219.459961 53.835938 220.990723 53.835938 Q 221.479492 53.835938 221.914551 53.946045 Q 222.349609 54.056152 222.763184 54.276367 L 222.763184 55.388184 Q 222.365723 55.060547 221.909180 54.888672 Q 221.452637 54.716797 220.990723 54.716797 Q 219.932617 54.716797 219.406250 55.533203 Q 218.879883 56.349609 218.879883 57.998535 Q 218.879883 59.642090 219.406250 60.458496 Q 219.932617 61.274902 220.990723 61.274902 Q 221.463379 61.274902 221.917236 61.103027 Q 222.371094 60.931152 222.763184 60.603516 Z " fill="rgb(255, 255, 255)" fill-opacity="1.000000" />
<path d="M 227.867188 53.105469 L 227.867188 62.913086 L 225.589844 62.913086 L 225.589844 62.145020 L 226.878906 62.145020 L 226.878906 53.873535 L 225.589844 53.873535 L 225.589844 53.105469 Z " fill="rgb(255, 255, 255)" fill-opacity="1.000000" />
<path d="M 269.985352 53.594238 L 269.985352 64.594238 L 269.061523 64.594238 L 269.061523 53.594238 Z " fill="rgb(255, 255, 255)" fill-opacity="1.000000" />
<path d="M 274.573730 53.980957 L 278.795410 63.020508 L 277.774902 63.020508 L 273.547852 53.980957 Z " fill="rgb(101, 101, 101)" fill-opacity="1.000000" />
<path d="M 73.985352 40.594238 L 73.985352 51.594238 L 73.061523 51.594238 L 73.061523 40.594238 Z " fill="rgb(255, 255, 255)" fill-opacity="1.000000" />
<path d="M 78.573730 40.980957 L 82.795410 50.020508 L 81.774902 50.020508 L 77.547852 40.980957 Z " fill="rgb(101, 101, 101)" fill-opacity="1.000000" />
<path d="M 85.573730 40.980957 L 89.795410 50.020508 L 88.774902 50.020508 L 84.547852 40.980957 Z " fill="rgb(101, 101, 101)" fill-opacity="1.000000" />
<path d="M 92.573730 40.980957 L 96.795410 50.020508 L 95.774902 50.020508 L 91.547852 40.980957 Z " fill="rgb(101, 101, 101)" fill-opacity="1.000000" />
<path d="M 99.573730 40.980957 L 103.795410 50.020508 L 102.774902 50.020508 L 98.547852 40.980957 Z " fill="rgb(101, 101, 101)" fill-opacity="1.000000" />
<path d="M 106.573730 40.980957 L 110.795410 50.020508 L 109.774902 50.020508 L 105.547852 40.980957 Z " fill="rgb(101, 101, 101)" fill-opacity="1.000000" />
<path d="M 113.573730 40.980957 L 117.795410 50.020508 L 116.774902 50.020508 L 112.547852 40.980957 Z " fill="rgb(101, 101, 101)" fill-opacity="1.000000" />
<path d="M 120.573730 40.980957 L 124.795410 50.020508 L 123.774902 50.020508 L 119.547852 40.980957 Z " fill="rgb(101, 101, 101)" fill-opacity="1.000000" />
<path d="M 127.573730 40.980957 L 131.795410 50.020508 L 130.774902 50.020508 L 126.547852 40.980957 Z " fill="rgb(101, 101, 101)" fill-opacity="1.000000" />
<path d="M 134.573730 40.980957 L 138.795410 50.020508 L 137.774902 50.020508 L 133.547852 40.980957 Z " fill="rgb(101, 101, 101)" fill-opacity="1.000000" />
<path d="M 141.573730 40.980957 L 145.795410 50.020508 L 144.774902 50.020508 L 140.547852 40.980957 Z " fill="rgb(101, 101, 101)" fill-opacity="1.000000" />
<path d="M 150.867188 42.672852 L 150.867188 45.052246 L 153.257324 45.052246 L 153.257324 45.959961 L 150.867188 45.959961 L 150.867188 48.339355 L 149.964844 48.339355 L 149.964844 45.959961 L 147.580078 45.959961 L 147.580078 45.052246 L 149.964844 45.052246 L 149.964844 42.672852 Z " fill="rgb(255, 255, 255)" fill-opacity="1.000000" />
<path d="M 154.547852 45.111328 L 160.241211 45.111328 L 160.241211 46.019043 L 154.547852 46.019043 Z " fill="rgb(255, 255, 255)" fill-opacity="1.000000" />
<path d="M 161.547852 45.111328 L 167.241211 45.111328 L 167.241211 46.019043 L 161.547852 46.019043 Z " fill="rgb(255, 255, 255)" fill-opacity="1.000000" />
<path d="M 168.547852 45.111328 L 174.241211 45.111328 L 174.241211 46.019043 L 168.547852 46.019043 Z " fill="rgb(255, 255, 255)" fill-opacity="1.000000" />
<path d="M 175.547852 45.111328 L 181.241211 45.111328 L 181.241211 46.019043 L 175.547852 46.019043 Z " fill="rgb(255, 255, 255)" fill-opacity="1.000000" />
<path d="M 182.547852 45.111328 L 188.241211 45.111328 L 188.241211 46.019043 L 182.547852 46.019043 Z " fill="rgb(255, 255, 255)" fill-opacity="1.000000" />
<path d="M 189.547852 45.111328 L 195.241211 45.111328 L 195.241211 46.019043 L 189.547852 46.019043 Z " fill="rgb(255, 255, 255)" fill-opacity="1.000000" />
<path d="M 196.547852 45.111328 L 202.241211 45.111328 L 202.241211 46.019043 L 196.547852 46.019043 Z " fill="rgb(255, 255, 255)" fill-opacity="1.000000" />
<path d="M 203.547852 45.111328 L 209.241211 45.111328 L 209.241211 46.019043 L 203.547852 46.019043 Z " fill="rgb(255, 255, 255)" fill-opacity="1.000000" />
<path d="M 210.547852 45.111328 L 216.241211 45.111328 L 216.241211 46.019043 L 210.547852 46.019043 Z " fill="rgb(255, 255, 255)" fill-opacity="1.000000" />
<path d="M 217.547852 45.111328 L 223.241211 45.111328 L 223.241211 46.019043 L 217.547852 46.019043 Z " fill="rgb(255, 255, 255)" fill-opacity="1.000000" />
<path d="M 224.547852 45.111328 L 230.241211 45.111328 L 230.241211 46.019043 L 224.547852 46.019043 Z " fill="rgb(255, 255, 255)" fill-opacity="1.000000" />
<path d="M 231.547852 45.111328 L 237.241211 45.111328 L 237.241211 46.019043 L 231.547852 46.019043 Z " fill="rgb(255, 255, 255)" fill-opacity="1.000000" />
<path d="M 238.547852 45.111328 L 244.241211 45.111328 L 244.241211 46.019043 L 238.547852 46.019043 Z " fill="rgb(255, 255, 255)" fill-opacity="1.000000" />
<path d="M 245.547852 45.111328 L 251.241211 45.111328 L 251.241211 46.019043 L 245.547852 46.019043 Z " fill="rgb(255, 255, 255)" fill-opacity="1.000000" />
<path d="M 252.547852 45.111328 L 258.241211 45.111328 L 258.241211 46.019043 L 252.547852 46.019043 Z " fill="rgb(255, 255, 255)" fill-opacity="1.000000" />
<path d="M 259.547852 45.111328 L 265.241211 45.111328 L 265.241211 46.019043 L 259.547852 46.019043 Z " fill="rgb(255, 255, 255)" fill-opacity="1.000000" />
<path d="M 269.867188 42.672852 L 269.867188 45.052246 L 272.257324 45.052246 L 272.257324 45.959961 L 269.867188 45.959961 L 269.867188 48.339355 L 268.964844 48.339355 L 268.964844 45.959961 L 266.580078 45.959961 L 266.580078 45.052246 L 268.964844 45.052246 L 268.964844 42.672852 Z " fill="rgb(255, 255, 255)" fill-opacity="1.000000" />
<path d="M 7.547852 32.111328 L 13.241211 32.111328 L 13.241211 33.019043 L 7.547852 33.019043 Z " fill="rgb(255, 255, 255)" fill-opacity="1.000000" />
<path d="M 14.547852 32.111328 L 20.241211 32.111328 L 20.241211 33.019043 L 14.547852 33.019043 Z " fill="rgb(255, 255, 255)" fill-opacity="1.000000" />
<path d="M 21.547852 32.111328 L 27.241211 32.111328 L 27.241211 33.019043 L 21.547852 33.019043 Z " fill="rgb(255, 255, 255)" fill-opacity="1.000000" />
<path d="M 28.547852 32.111328 L 34.241211 32.111328 L 34.241211 33.019043 L 28.547852 33.019043 Z " fill="rgb(255, 255, 255)" fill-opacity="1.000000" />
<path d="M 35.547852 32.111328 L 41.241211 32.111328 L 41.241211 33.019043 L 35.547852 33.019043 Z " fill="rgb(255, 255, 255)" fill-opacity="1.000000" />
<path d="M 42.547852 32.111328 L 48.241211 32.111328 L 48.241211 33.019043 L 42.547852 33.019043 Z " fill="rgb(255, 255, 255)" fill-opacity="1.000000" />
<path d="M 49.547852 32.111328 L 55.241211 32.111328 L 55.241211 33.019043 L 49.547852 33.019043 Z " fill="rgb(255, 255, 255)" fill-opacity="1.000000" />
<path d="M 56.547852 32.111328 L 62.241211 32.111328 L 62.241211 33.019043 L 56.547852 33.019043 Z " fill="rgb(255, 255, 255)" fill-opacity="1.000000" />
<path d="M 63.547852 32.111328 L 69.241211 32.111328 L 69.241211 33.019043 L 63.547852 33.019043 Z " fill="rgb(255, 255, 255)" fill-opacity="1.000000" />
<path d="M 70.547852 32.111328 L 76.241211 32.111328 L 76.241211 33.019043 L 70.547852 33.019043 Z " fill="rgb(255, 255, 255)" fill-opacity="1.000000" />
<path d="M 77.547852 32.111328 L 83.241211 32.111328 L 83.241211 33.019043 L 77.547852 33.019043 Z " fill="rgb(255, 255, 255)" fill-opacity="1.000000" />
<path d="M 84.547852 32.111328 L 90.241211 32.111328 L 90.241211 33.019043 L 84.547852 33.019043 Z " fill="rgb(255, 255, 255)" fill-opacity="1.000000" />
<path d="M 91.547852 32.111328 L 97.241211 32.111328 L 97.241211 33.019043 L 91.547852 33.019043 Z " fill="rgb(255, 255, 255)" fill-opacity="1.000000" />
<path d="M 98.547852 32.111328 L 104.241211 32.111328 L 104.241211 33.019043 L 98.547852 33.019043 Z " fill="rgb(255, 255, 255)" fill-opacity="1.000000" />
<path d="M 105.547852 32.111328 L 111.241211 32.111328 L 111.241211 33.019043 L 105.547852 33.019043 Z " fill="rgb(255, 255, 255)" fill-opacity="1.000000" />
<path d="M 112.547852 32.111328 L 118.241211 32.111328 L 118.241211 33.019043 L 112.547852 33.019043 Z " fill="rgb(255, 255, 255)" fill-opacity="1.000000" />
<path d="M 119.547852 32.111328 L 125.241211 32.111328 L 125.241211 33.019043 L 119.547852 33.019043 Z " fill="rgb(255, 255, 255)" fill-opacity="1.000000" />
<path d="M 126.547852 32.111328 L 132.241211 32.111328 L 132.241211 33.019043 L 126.547852 33.019043 Z " fill="rgb(255, 255, 255)" fill-opacity="1.000000" />
<path d="M 136.867188 29.672852 L 136.867188 32.052246 L 139.257324 32.052246 L 139.257324 32.959961 L 136.867188 32.959961 L 136.867188 35.339355 L 135.964844 35.339355 L 135.964844 32.959961 L 133.580078 32.959961 L 133.580078 32.052246 L 135.964844 32.052246 L 135.964844 29.672852 Z " fill="rgb(255, 255, 255)" fill-opacity="1.000000" />
<path d="M 141.573730 27.980957 L 145.795410 37.020508 L 144.774902 37.020508 L 140.547852 27.980957 Z " fill="rgb(101, 101, 101)" fill-opacity="1.000000" />
<path d="M 38.023926 14.105469 L 40.301270 14.105469 L 40.301270 14.873535 L 39.012207 14.873535 L 39.012207 23.145020 L 40.301270 23.145020 L 40.301270 23.913086 L 38.023926 23.913086 Z " fill="rgb(255, 255, 255)" fill-opacity="1.000000" />
<path d="M 44.143066 15.872559 L 44.143066 18.885742 L 45.399902 18.885742 Q 46.151855 18.885742 46.573486 18.488281 Q 46.995117 18.090820 46.995117 17.376465 Q 46.995117 16.662109 46.576172 16.267334 Q 46.157227 15.872559 45.399902 15.872559 Z M 43.058105 14.980957 L 45.399902 14.980957 Q 46.742676 14.980957 47.435547 15.590576 Q 48.128418 16.200195 48.128418 17.376465 Q 48.128418 18.563477 47.438232 19.170410 Q 46.748047 19.777344 45.399902 19.777344 L 44.143066 19.777344 L 44.143066 23.000000 L 43.058105 23.000000 Z " fill="rgb(255, 255, 255)" fill-opacity="1.000000" />
<path d="M 53.860840 18.998535 Q 53.860840 17.231445 53.498291 16.474121 Q 53.135742 15.716797 52.308594 15.716797 Q 51.486816 15.716797 51.124268 16.474121 Q 50.761719 17.231445 50.761719 18.998535 Q 50.761719 20.760254 51.124268 21.517578 Q 51.486816 22.274902 52.308594 22.274902 Q 53.135742 22.274902 53.498291 21.520264 Q 53.860840 20.765625 53.860840 18.998535 Z M 54.994141 18.998535 Q 54.994141 21.093262 54.330811 22.124512 Q 53.667480 23.155762 52.308594 23.155762 Q 50.949707 23.155762 50.289062 22.129883 Q 49.628418 21.104004 49.628418 18.998535 Q 49.628418 16.898438 50.291748 15.867188 Q 50.955078 14.835938 52.308594 14.835938 Q 53.667480 14.835938 54.330811 15.867188 Q 54.994141 16.898438 54.994141 18.998535 Z " fill="rgb(255, 255, 255)" fill-opacity="1.000000" />
<path d="M 61.435547 15.254883 L 61.435547 16.355957 Q 60.941406 16.039062 60.444580 15.877930 Q 59.947754 15.716797 59.442871 15.716797 Q 58.674805 15.716797 58.229004 16.073975 Q 57.783203 16.431152 57.783203 17.038086 Q 57.783203 17.569824 58.075928 17.849121 Q 58.368652 18.128418 59.168945 18.316406 L 59.738281 18.445312 Q 60.866211 18.708496 61.381836 19.272461 Q 61.897461 19.836426 61.897461 20.808594 Q 61.897461 21.952637 61.188477 22.554199 Q 60.479492 23.155762 59.125977 23.155762 Q 58.562012 23.155762 57.992676 23.034912 Q 57.423340 22.914062 56.848633 22.672363 L 56.848633 21.517578 Q 57.466309 21.909668 58.016846 22.092285 Q 58.567383 22.274902 59.125977 22.274902 Q 59.947754 22.274902 60.404297 21.906982 Q 60.860840 21.539062 60.860840 20.878418 Q 60.860840 20.276855 60.546631 19.959961 Q 60.232422 19.643066 59.453613 19.471191 L 58.873535 19.336914 Q 57.756348 19.084473 57.251465 18.574219 Q 56.746582 18.063965 56.746582 17.204590 Q 56.746582 16.130371 57.468994 15.483154 Q 58.191406 14.835938 59.389160 14.835938 Q 59.851074 14.835938 60.361328 14.940674 Q 60.871582 15.045410 61.435547 15.254883 Z " fill="rgb(255, 255, 255)" fill-opacity="1.000000" />
<path d="M 63.252441 14.980957 L 69.370117 14.980957 L 69.370117 15.894043 L 66.861816 15.894043 L 66.861816 23.000000 L 65.771484 23.000000 L 65.771484 15.894043 L 63.252441 15.894043 Z " fill="rgb(255, 255, 255)" fill-opacity="1.000000" />
<path d="M 75.929688 22.339355 Q 75.494629 22.742188 74.949463 22.948975 Q 74.404297 23.155762 73.770508 23.155762 Q 72.245117 23.155762 71.396484 22.062744 Q 70.547852 20.969727 70.547852 18.998535 Q 70.547852 17.032715 71.407227 15.934326 Q 72.266602 14.835938 73.797363 14.835938 Q 74.302246 14.835938 74.764160 14.978271 Q 75.226074 15.120605 75.655762 15.410645 L 75.655762 16.522461 Q 75.220703 16.108887 74.764160 15.912842 Q 74.307617 15.716797 73.797363 15.716797 Q 72.739258 15.716797 72.210205 16.535889 Q 71.681152 17.354980 71.681152 18.998535 Q 71.681152 20.668945 72.194092 21.471924 Q 72.707031 22.274902 73.770508 22.274902 Q 74.130371 22.274902 74.401611 22.191650 Q 74.672852 22.108398 74.893066 21.931152 L 74.893066 19.777344 L 73.727539 19.777344 L 73.727539 18.885742 L 75.929688 18.885742 Z " fill="rgb(255, 255, 255)" fill-opacity="1.000000" />
<path d="M 81.082031 19.213379 Q 81.500977 19.320801 81.796387 19.618896 Q 82.091797 19.916992 82.532227 20.808594 L 83.622559 23.000000 L 82.457031 23.000000 L 81.500977 20.975098 Q 81.087402 20.110352 80.757080 19.860596 Q 80.426758 19.610840 79.895020 19.610840 L 78.858398 19.610840 L 78.858398 23.000000 L 77.768066 23.000000 L 77.768066 14.980957 L 80.002441 14.980957 Q 81.323730 14.980957 82.027344 15.577148 Q 82.730957 16.173340 82.730957 17.301270 Q 82.730957 18.096191 82.298584 18.598389 Q 81.866211 19.100586 81.082031 19.213379 Z M 78.858398 15.872559 L 78.858398 18.719238 L 80.045410 18.719238 Q 80.824219 18.719238 81.205566 18.370117 Q 81.586914 18.020996 81.586914 17.301270 Q 81.586914 16.608398 81.181396 16.240479 Q 80.775879 15.872559 80.002441 15.872559 Z " fill="rgb(255, 255, 255)" fill-opacity="1.000000" />
<path d="M 85.058105 14.980957 L 89.816895 14.980957 L 89.816895 15.894043 L 86.143066 15.894043 L 86.143066 18.053223 L 89.655762 18.053223 L 89.655762 18.966309 L 86.143066 18.966309 L 86.143066 22.086914 L 89.918945 22.086914 L 89.918945 23.000000 L 85.058105 23.000000 Z " fill="rgb(255, 255, 255)" fill-opacity="1.000000" />
<path d="M 96.435547 15.254883 L 96.435547 16.355957 Q 95.941406 16.039062 95.444580 15.877930 Q 94.947754 15.716797 94.442871 15.716797 Q 93.674805 15.716797 93.229004 16.073975 Q 92.783203 16.431152 92.783203 17.038086 Q 92.783203 17.569824 93.075928 17.849121 Q 93.368652 18.128418 94.168945 18.316406 L 94.738281 18.445312 Q 95.866211 18.708496 96.381836 19.272461 Q 96.897461 19.836426 96.897461 20.808594 Q 96.897461 21.952637 96.188477 22.554199 Q 95.479492 23.155762 94.125977 23.155762 Q 93.562012 23.155762 92.992676 23.034912 Q 92.423340 22.914062 91.848633 22.672363 L 91.848633 21.517578 Q 92.466309 21.909668 93.016846 22.092285 Q 93.567383 22.274902 94.125977 22.274902 Q 94.947754 22.274902 95.404297 21.906982 Q 95.860840 21.539062 95.860840 20.878418 Q 95.860840 20.276855 95.546631 19.959961 Q 95.232422 19.643066 94.453613 19.471191 L 93.873535 19.336914 Q 92.756348 19.084473 92.251465 18.574219 Q 91.746582 18.063965 91.746582 17.204590 Q 91.746582 16.130371 92.468994 15.483154 Q 93.191406 14.835938 94.389160 14.835938 Q 94.851074 14.835938 95.361328 14.940674 Q 95.871582 15.045410 96.435547 15.254883 Z " fill="rgb(255, 255, 255)" fill-opacity="1.000000" />
<path d="M 101.867188 14.105469 L 101.867188 23.913086 L 99.589844 23.913086 L 99.589844 23.145020 L 100.878906 23.145020 L 100.878906 14.873535 L 99.589844 14.873535 L 99.589844 14.105469 Z " fill="rgb(255, 255, 255)" fill-opacity="1.000000" />
<path d="M 136.985352 14.594238 L 136.985352 25.594238 L 136.061523 25.594238 L 136.061523 14.594238 Z " fill="rgb(255, 255, 255)" fill-opacity="1.000000" />
<path d="M 141.573730 14.980957 L 145.795410 24.020508 L 144.774902 24.020508 L 140.547852 14.980957 Z " fill="rgb(101, 101, 101)" fill-opacity="1.000000" />
<path d="M 7.547852 6.111328 L 13.241211 6.111328 L 13.241211 7.019043 L 7.547852 7.019043 Z " fill="rgb(255, 255, 255)" fill-opacity="1.000000" />
<path d="M 14.547852 6.111328 L 20.241211 6.111328 L 20.241211 7.019043 L 14.547852 7.019043 Z " fill="rgb(255, 255, 255)" fill-opacity="1.000000" />
<path d="M 21.547852 6.111328 L 27.241211 6.111328 L 27.241211 7.019043 L 21.547852 7.019043 Z " fill="rgb(255, 255, 255)" fill-opacity="1.000000" />
<path d="M 28.547852 6.111328 L 34.241211 6.111328 L 34.241211 7.019043 L 28.547852 7.019043 Z " fill="rgb(255, 255, 255)" fill-opacity="1.000000" />
<path d="M 35.547852 6.111328 L 41.241211 6.111328 L 41.241211 7.019043 L 35.547852 7.019043 Z " fill="rgb(255, 255, 255)" fill-opacity="1.000000" />
<path d="M 42.547852 6.111328 L 48.241211 6.111328 L 48.241211 7.019043 L 42.547852 7.019043 Z " fill="rgb(255, 255, 255)" fill-opacity="1.000000" />
<path d="M 49.547852 6.111328 L 55.241211 6.111328 L 55.241211 7.019043 L 49.547852 7.019043 Z " fill="rgb(255, 255, 255)" fill-opacity="1.000000" />
<path d="M 56.547852 6.111328 L 62.241211 6.111328 L 62.241211 7.019043 L 56.547852 7.019043 Z " fill="rgb(255, 255, 255)" fill-opacity="1.000000" />
<path d="M 63.547852 6.111328 L 69.241211 6.111328 L 69.241211 7.019043 L 63.547852 7.019043 Z " fill="rgb(255, 255, 255)" fill-opacity="1.000000" />
<path d="M 70.547852 6.111328 L 76.241211 6.111328 L 76.241211 7.019043 L 70.547852 7.019043 Z " fill="rgb(255, 255, 255)" fill-opacity="1.000000" />
<path d="M 77.547852 6.111328 L 83.241211 6.111328 L 83.241211 7.019043 L 77.547852 7.019043 Z " fill="rgb(255, 255, 255)" fill-opacity="1.000000" />
<path d="M 84.547852 6.111328 L 90.241211 6.111328 L 90.241211 7.019043 L 84.547852 7.019043 Z " fill="rgb(255, 255, 255)" fill-opacity="1.000000" />
<path d="M 91.547852 6.111328 L 97.241211 6.111328 L 97.241211 7.019043 L 91.547852 7.019043 Z " fill="rgb(255, 255, 255)" fill-opacity="1.000000" />
<path d="M 98.547852 6.111328 L 104.241211 6.111328 L 104.241211 7.019043 L 98.547852 7.019043 Z " fill="rgb(255, 255, 255)" fill-opacity="1.000000" />
<path d="M 105.547852 6.111328 L 111.241211 6.111328 L 111.241211 7.019043 L 105.547852 7.019043 Z " fill="rgb(255, 255, 255)" fill-opacity="1.000000" />
<path d="M 112.547852 6.111328 L 118.241211 6.111328 L 118.241211 7.019043 L 112.547852 7.019043 Z " fill="rgb(255, 255, 255)" fill-opacity="1.000000" />
<path d="M 119.547852 6.111328 L 125.241211 6.111328 L 125.241211 7.019043 L 119.547852 7.019043 Z " fill="rgb(255, 255, 255)" fill-opacity="1.000000" />
<path d="M 126.547852 6.111328 L 132.241211 6.111328 L 132.241211 7.019043 L 126.547852 7.019043 Z " fill="rgb(255, 255, 255)" fill-opacity="1.000000" />
<path d="M 136.867188 3.672852 L 136.867188 6.052246 L 139.257324 6.052246 L 139.257324 6.959961 L 136.867188 6.959961 L 136.867188 9.339355 L 135.964844 9.339355 L 135.964844 6.959961 L 133.580078 6.959961 L 133.580078 6.052246 L 135.964844 6.052246 L 135.964844 3.672852 Z " fill="rgb(255, 255, 255)" fill-opacity="1.000000" />
</svg>